<svg xmlns="http://www.w3.org/2000/svg" viewBox="0 0 64 64" role="img" aria-label="Cal.com">
  <rect width="64" height="64" fill="#111827"/>
  <g transform="translate(8 8) scale(2.25)">
    <path fill="#fff" d="M15.096 2.932 9.096 2.936a.894.894 0 0 0-.894.894v10.318c0 .494.4.894.894.894h.001a.894.894 0 0 0 .894-.894V8.94l6.002-.004a.894.894 0 0 0 .894-.894V3.826a.894.894 0 0 0-.894-.894h-.003ZM4.116 11.028v-.001a.894.894 0 0 0-.894.894v6.072c0 .494.4.894.894.894h6.006a.894.894 0 0 0 .894-.894v-6.072a.894.894 0 0 0-.894-.894H4.116Z"/>
  </g>
</svg>
