<svg xmlns="http://www.w3.org/2000/svg" viewBox="0 0 64 64" role="img" aria-label="HubSpot">
  <rect width="64" height="64" fill="#FF7A59"/>
  <g transform="translate(8 8) scale(2)">
    <path fill="#fff" d="M18.164 7.93V5.084a2.445 2.445 0 0 0 1.68-2.324 2.445 2.445 0 0 0-4.889 0 2.445 2.445 0 0 0 1.68 2.324v2.846a6.533 6.533 0 0 0-3.043 1.278l-7.678-7.677a2.89 2.89 0 0 0 .416-1.459 2.916 2.916 0 0 0-5.832 0A2.916 2.916 0 0 0 4.69 2.076l7.677 7.677a6.544 6.544 0 0 0-1.278 3.043H8.243a2.445 2.445 0 0 0-1.68-2.324 2.445 2.445 0 0 0 0 4.889 2.445 2.445 0 0 0 1.68-2.324h2.397v2.397a2.445 2.445 0 0 0-1.68 2.324 2.445 2.445 0 0 0 4.889 0 2.445 2.445 0 0 0-1.68-2.324v-2.397a6.513 6.513 0 0 0 3.881-2.256l2.786 2.786a2.916 2.916 0 0 0 .832 4.623 2.916 2.916 0 0 0 3.944-4.231l-2.786-2.786a6.544 6.544 0 0 0 1.278-3.043zm-8.023 4.386a3.943 3.943 0 1 1 0-7.886 3.943 3.943 0 0 1 0 7.886z"/>
  </g>
</svg>
