<svg width="240" height="240" viewBox="0 0 240 240" fill="none" xmlns="http://www.w3.org/2000/svg">
<rect width="240" height="240" rx="34" fill="black"/>
<rect width="205.531" height="205.531" transform="translate(17.2344 17.2344)" fill="black"/>
<path d="M122.408 30.0801C124.405 31.0071 125.35 32.1977 126.423 34.0944C126.624 35.4924 126.624 35.4924 126.625 37.0672C126.628 37.5054 126.628 37.5054 126.632 37.9525C126.638 38.9319 126.632 39.911 126.627 40.8904C126.628 41.5995 126.631 42.3085 126.634 43.0176C126.641 44.9664 126.637 46.9152 126.633 48.864C126.629 50.9656 126.634 53.0672 126.639 55.1688C126.646 59.2859 126.644 63.403 126.64 67.5202C126.636 70.8657 126.636 74.2113 126.637 77.5568C126.638 78.0326 126.638 78.5085 126.638 78.9987C126.639 79.9653 126.639 80.9318 126.64 81.8984C126.644 90.9658 126.639 100.033 126.63 109.1C126.623 116.884 126.625 124.667 126.632 132.451C126.641 141.485 126.644 150.52 126.639 159.554C126.638 160.517 126.638 161.48 126.637 162.443C126.637 162.917 126.637 163.391 126.637 163.879C126.635 167.221 126.638 170.564 126.641 173.906C126.646 177.978 126.645 182.05 126.636 186.122C126.632 188.2 126.63 190.279 126.636 192.357C126.64 194.259 126.638 196.16 126.629 198.062C126.627 198.751 126.628 199.44 126.632 200.128C126.637 201.063 126.632 201.998 126.625 202.933C126.624 203.453 126.624 203.972 126.624 204.508C126.321 206.611 125.326 207.831 123.813 209.268C121.74 210.23 119.839 210.223 117.591 209.92C115.594 208.993 114.65 207.802 113.577 205.906C113.376 204.508 113.376 204.508 113.375 202.933C113.372 202.641 113.37 202.349 113.368 202.048C113.362 201.068 113.367 200.089 113.373 199.11C113.371 198.401 113.369 197.692 113.365 196.983C113.359 195.034 113.362 193.085 113.367 191.136C113.371 189.034 113.365 186.933 113.361 184.831C113.353 180.714 113.355 176.597 113.36 172.48C113.363 169.134 113.364 165.789 113.362 162.443C113.362 161.967 113.362 161.492 113.361 161.001C113.361 160.035 113.36 159.068 113.36 158.102C113.355 149.034 113.36 139.967 113.369 130.9C113.376 123.116 113.375 115.333 113.368 107.55C113.359 98.515 113.356 89.4805 113.361 80.4459C113.361 79.4829 113.362 78.5199 113.362 77.5568C113.362 76.846 113.362 76.846 113.363 76.1209C113.364 72.7787 113.362 69.4364 113.358 66.0942C113.354 62.0221 113.355 57.9501 113.363 53.8781C113.368 51.7997 113.369 49.7214 113.364 47.643C113.359 45.7413 113.362 43.8398 113.37 41.9381C113.372 41.2493 113.371 40.5605 113.367 39.8717C113.362 38.9367 113.367 38.0022 113.375 37.0672C113.375 36.5475 113.375 36.0278 113.376 35.4924C113.678 33.3891 114.673 32.1696 116.186 30.7324C118.26 29.7698 120.16 29.7775 122.408 30.0801Z" fill="white"/>
<path d="M173.791 55.7713C175.657 56.6374 177.014 57.8668 177.805 59.7856C178.044 61.4813 178.022 63.1647 178.009 64.8748C178.012 65.3931 178.014 65.9115 178.017 66.4456C178.024 67.8818 178.02 69.3179 178.015 70.7542C178.012 72.3041 178.017 73.854 178.022 75.4039C178.029 78.4392 178.027 81.4744 178.023 84.5097C178.019 86.9764 178.019 89.4432 178.02 91.9099C178.021 92.261 178.021 92.612 178.021 92.9737C178.022 93.6868 178.022 94.3999 178.023 95.113C178.027 101.8 178.022 108.488 178.013 115.175C178.006 120.914 178.007 126.652 178.015 132.391C178.023 139.054 178.027 145.718 178.022 152.381C178.021 153.092 178.021 153.802 178.02 154.513C178.02 154.862 178.02 155.212 178.02 155.572C178.018 158.036 178.02 160.5 178.024 162.964C178.029 165.966 178.028 168.969 178.019 171.971C178.015 173.503 178.013 175.035 178.018 176.567C178.024 178.227 178.017 179.887 178.009 181.548C178.013 182.033 178.016 182.518 178.02 183.017C177.996 185.551 177.925 187.132 176.2 189.046C174.667 190.502 173.437 190.776 171.383 190.852C169.328 190.776 168.099 190.502 166.565 189.046C164.518 186.775 164.734 184.499 164.756 181.548C164.753 181.029 164.751 180.511 164.748 179.977C164.742 178.541 164.745 177.105 164.75 175.668C164.753 174.118 164.748 172.569 164.743 171.019C164.736 167.983 164.738 164.948 164.742 161.913C164.746 159.446 164.747 156.979 164.745 154.513C164.745 154.162 164.744 153.811 164.744 153.449C164.744 152.736 164.743 152.023 164.743 151.31C164.738 144.622 164.743 137.935 164.752 131.247C164.759 125.509 164.758 119.77 164.75 114.032C164.742 107.368 164.738 100.705 164.743 94.0414C164.744 93.3309 164.744 92.6204 164.745 91.9099C164.745 91.5604 164.745 91.2108 164.746 90.8506C164.747 88.3867 164.745 85.9228 164.741 83.459C164.736 80.4564 164.738 77.454 164.746 74.4515C164.75 72.9194 164.752 71.3875 164.747 69.8554C164.741 68.1951 164.748 66.5351 164.756 64.8748C164.752 64.3899 164.749 63.9049 164.745 63.4053C164.769 60.872 164.84 59.2905 166.565 57.377C168.681 55.3667 171.025 55.3988 173.791 55.7713Z" fill="white"/>
<path d="M71.0255 55.7713C72.8911 56.6374 74.2485 57.8668 75.0398 59.7856C75.2786 61.4813 75.2563 63.1647 75.2437 64.8748C75.2462 65.3931 75.2487 65.9115 75.2513 66.4456C75.258 67.8818 75.2547 69.3179 75.2497 70.7542C75.2461 72.3041 75.2517 73.854 75.2561 75.4039C75.2632 78.4392 75.2617 81.4744 75.257 84.5097C75.2534 86.9764 75.2529 89.4432 75.2547 91.9099C75.2549 92.261 75.2552 92.612 75.2554 92.9737C75.2559 93.6868 75.2564 94.3999 75.257 95.113C75.2615 101.8 75.2563 108.488 75.2477 115.175C75.2405 120.914 75.2417 126.652 75.2491 132.391C75.2577 139.054 75.2611 145.718 75.2562 152.381C75.2557 153.092 75.2552 153.802 75.2547 154.513C75.2544 154.862 75.2542 155.212 75.2539 155.572C75.2525 158.036 75.2549 160.5 75.2586 162.964C75.2631 165.966 75.2619 168.969 75.2534 171.971C75.2492 173.503 75.2475 175.035 75.2528 176.567C75.2585 178.227 75.2517 179.887 75.2437 181.548C75.2473 182.033 75.2509 182.518 75.2545 183.017C75.2307 185.551 75.1595 187.132 73.4341 189.046C71.9009 190.502 70.6711 190.776 68.6169 190.852C66.5627 190.776 65.333 190.502 63.7998 189.046C61.752 186.775 61.9684 184.499 61.9902 181.548C61.9877 181.029 61.9852 180.511 61.9826 179.977C61.9759 178.541 61.9792 177.105 61.9842 175.668C61.9878 174.118 61.9822 172.569 61.9778 171.019C61.9706 167.983 61.9722 164.948 61.9768 161.913C61.9805 159.446 61.981 156.979 61.9792 154.513C61.979 154.162 61.9787 153.811 61.9785 153.449C61.9779 152.736 61.9774 152.023 61.9769 151.31C61.9723 144.622 61.9776 137.935 61.9862 131.247C61.9934 125.509 61.9921 119.77 61.9847 114.032C61.9761 107.368 61.9728 100.705 61.9777 94.0414C61.9782 93.3309 61.9787 92.6204 61.9792 91.9099C61.9795 91.5604 61.9797 91.2108 61.98 90.8506C61.9813 88.3867 61.979 85.9228 61.9752 83.459C61.9707 80.4564 61.9719 77.454 61.9805 74.4515C61.9847 72.9194 61.9864 71.3875 61.9811 69.8554C61.9754 68.1951 61.9822 66.5351 61.9902 64.8748C61.9866 64.3899 61.983 63.9049 61.9793 63.4053C62.0031 60.872 62.0744 59.2905 63.7998 57.377C65.9159 55.3667 68.2589 55.3988 71.0255 55.7713Z" fill="white"/>
<path d="M148.099 75.0403C150.093 75.9661 151.065 77.1442 152.114 79.0546C152.338 80.266 152.331 81.4514 152.317 82.6808C152.32 83.0418 152.322 83.4028 152.325 83.7747C152.331 84.9822 152.326 86.1893 152.321 87.3968C152.323 88.2633 152.326 89.1298 152.33 89.9964C152.337 92.3485 152.334 94.7006 152.329 97.0527C152.325 99.5139 152.329 101.975 152.331 104.436C152.334 108.57 152.331 112.703 152.323 116.836C152.314 121.615 152.317 126.394 152.326 131.173C152.333 135.275 152.334 139.378 152.33 143.481C152.327 145.931 152.327 148.382 152.332 150.832C152.337 153.136 152.334 155.44 152.325 157.744C152.322 158.589 152.323 159.435 152.327 160.281C152.331 161.435 152.325 162.589 152.317 163.743C152.321 164.078 152.325 164.413 152.328 164.758C152.3 166.888 151.904 168.079 150.508 169.777C148.975 171.234 147.745 171.508 145.691 171.584C143.636 171.508 142.407 171.234 140.874 169.777C139.197 167.739 139.037 166.27 139.064 163.743C139.06 163.201 139.06 163.201 139.056 162.649C139.05 161.441 139.055 160.234 139.06 159.027C139.058 158.16 139.055 157.294 139.052 156.427C139.044 154.075 139.047 151.723 139.052 149.371C139.056 146.91 139.052 144.448 139.05 141.987C139.047 137.854 139.051 133.721 139.058 129.588C139.067 124.809 139.064 120.03 139.056 115.251C139.048 111.148 139.047 107.045 139.051 102.943C139.054 100.492 139.054 98.0416 139.049 95.5911C139.044 93.2872 139.048 90.9836 139.057 88.6797C139.059 87.834 139.058 86.9883 139.055 86.1427C139.05 84.9885 139.056 83.8349 139.064 82.6808C139.059 82.1783 139.059 82.1783 139.053 81.6657C139.082 79.5359 139.477 78.3443 140.874 76.646C142.99 74.6358 145.333 74.6679 148.099 75.0403Z" fill="white"/>
<path d="M96.7164 75.0403C98.7105 75.9661 99.6819 77.1442 100.731 79.0546C100.955 80.266 100.948 81.4514 100.935 82.6808C100.937 83.0418 100.94 83.4028 100.942 83.7747C100.949 84.9822 100.944 86.1893 100.938 87.3968C100.941 88.2633 100.944 89.1298 100.947 89.9964C100.954 92.3485 100.952 94.7006 100.946 97.0527C100.942 99.5139 100.946 101.975 100.949 104.436C100.952 108.57 100.948 112.703 100.94 116.836C100.931 121.615 100.934 126.394 100.943 131.173C100.95 135.275 100.951 139.378 100.947 143.481C100.945 145.931 100.944 148.382 100.95 150.832C100.954 153.136 100.951 155.44 100.942 157.744C100.94 158.589 100.94 159.435 100.944 160.281C100.948 161.435 100.943 162.589 100.935 163.743C100.938 164.078 100.942 164.413 100.945 164.758C100.917 166.888 100.521 168.079 99.125 169.777C97.5918 171.234 96.3621 171.508 94.3079 171.584C92.2537 171.508 91.0239 171.234 89.4907 169.777C87.8143 167.739 87.6541 166.27 87.6811 163.743C87.6774 163.201 87.6774 163.201 87.6735 162.649C87.6671 161.441 87.6722 160.234 87.6772 159.027C87.6751 158.16 87.6722 157.294 87.6687 156.427C87.6614 154.075 87.6642 151.723 87.6693 149.371C87.6734 146.91 87.6696 144.448 87.6671 141.987C87.6642 137.854 87.668 133.721 87.6757 129.588C87.6844 124.809 87.6816 120.03 87.6727 115.251C87.6655 111.148 87.6644 107.045 87.6686 102.943C87.6711 100.492 87.6715 98.0416 87.6662 95.5911C87.6615 93.2872 87.6647 90.9836 87.674 88.6797C87.6761 87.834 87.6755 86.9883 87.672 86.1427C87.6676 84.9885 87.6731 83.8349 87.6811 82.6808C87.6757 82.1783 87.6757 82.1783 87.6703 81.6657C87.6989 79.5359 88.0944 78.3443 89.4907 76.646C91.6068 74.6358 93.9498 74.6679 96.7164 75.0403Z" fill="white"/>
<path d="M199.481 94.3089C201.349 95.176 202.69 96.4104 203.496 98.3232C203.732 99.9245 203.715 101.511 203.703 103.128C203.706 103.61 203.709 104.092 203.712 104.588C203.718 105.905 203.716 107.222 203.711 108.54C203.707 109.921 203.711 111.302 203.713 112.683C203.716 115.002 203.713 117.321 203.705 119.64C203.696 122.317 203.699 124.995 203.708 127.672C203.715 129.975 203.716 132.277 203.712 134.58C203.709 135.954 203.709 137.327 203.714 138.701C203.718 140.233 203.712 141.764 203.703 143.296C203.707 143.749 203.71 144.202 203.713 144.668C203.686 147.147 203.555 148.627 201.89 150.509C200.357 151.965 199.127 152.239 197.073 152.315C195.018 152.239 193.789 151.965 192.256 150.509C190.283 148.28 190.421 146.182 190.442 143.296C190.439 142.814 190.436 142.332 190.434 141.835C190.428 140.518 190.429 139.201 190.434 137.884C190.438 136.503 190.434 135.122 190.432 133.741C190.429 131.422 190.433 129.103 190.44 126.784C190.449 124.106 190.446 121.429 190.438 118.751C190.43 116.449 190.429 114.146 190.433 111.844C190.436 110.47 190.436 109.096 190.431 107.723C190.427 106.191 190.433 104.66 190.442 103.128C190.439 102.675 190.436 102.222 190.432 101.755C190.459 99.2768 190.591 97.796 192.256 95.9146C194.372 93.9043 196.715 93.9364 199.481 94.3089Z" fill="white"/>
<path d="M45.3328 94.3089C47.2006 95.176 48.5411 96.4104 49.3471 98.3232C49.5837 99.9245 49.5665 101.511 49.5549 103.128C49.5577 103.61 49.5605 104.092 49.5634 104.588C49.5692 105.905 49.5679 107.222 49.5628 108.54C49.5587 109.921 49.5625 111.302 49.565 112.683C49.5679 115.002 49.5641 117.321 49.5564 119.64C49.5477 122.317 49.5505 124.995 49.5594 127.672C49.5667 129.975 49.5677 132.277 49.5635 134.58C49.561 135.954 49.5606 137.327 49.5659 138.701C49.57 140.233 49.5638 141.764 49.5549 143.296C49.5581 143.749 49.5614 144.202 49.5647 144.668C49.5379 147.147 49.4061 148.627 47.7414 150.509C46.2082 151.965 44.9784 152.239 42.9242 152.315C40.87 152.239 39.6403 151.965 38.1071 150.509C36.1345 148.28 36.2729 146.182 36.2936 143.296C36.2908 142.814 36.288 142.332 36.2851 141.835C36.2792 140.518 36.2806 139.201 36.2857 137.884C36.2898 136.503 36.286 135.122 36.2835 133.741C36.2805 131.422 36.2844 129.103 36.292 126.784C36.3008 124.106 36.2979 121.429 36.2891 118.751C36.2818 116.449 36.2808 114.146 36.285 111.844C36.2875 110.47 36.2878 109.096 36.2825 107.723C36.2785 106.191 36.2847 104.66 36.2936 103.128C36.2904 102.675 36.2871 102.222 36.2838 101.755C36.3106 99.2768 36.4424 97.796 38.1071 95.9146C40.2232 93.9043 42.5662 93.9364 45.3328 94.3089Z" fill="white"/>
</svg>
