<svg viewBox="0 0 2850 1400" fill="none" xmlns="http://www.w3.org/2000/svg">
<path d="M1474.12 222.039C1474.94 221.911 1475.75 221.803 1476.57 221.714C1748.21 191.336 1995.98 320.319 2020.91 614.089C2046.65 917.413 1923.35 1125.86 1604.55 1159.24C1601.76 1159.53 1598.96 1159.78 1596.16 1160C1308.62 1182.41 1079.9 1053.68 1057.11 747.231C1035.34 454.539 1170.95 245.082 1474.12 222.039Z" fill="black"/>
<path d="M1484.16 417.493C1552 408.456 1684.68 419.054 1741.54 461.539C1850.63 543.055 1852.66 776.801 1778.44 881.01C1737.1 939.072 1662.87 955.251 1595.09 964.243C1512.31 969.632 1399.68 968.175 1332.94 913.954C1283.91 874.133 1258.74 814.087 1253.76 752.229C1246.75 665.057 1247.7 563.922 1305.24 492.715C1352.86 433.776 1412.58 425.01 1484.16 417.493Z" fill="white"/>
<path d="M1909.95 228.479C1981.36 230.93 2058.19 229.699 2130.05 229.599C2150.22 264.637 2211.96 343.356 2239.72 380.437C2317.58 482.729 2394.19 585.969 2469.53 690.134C2393.54 801.45 2299.61 913.595 2221.17 1024.71C2192.71 1065.03 2156.51 1106.94 2130.62 1148.33C2067.88 1152.08 1975.47 1149.16 1910.54 1149.05C1928.96 1115.4 2001.52 1022.97 2027.75 987.883L2247.4 689.797L2033.44 400.719C2002.48 358.999 1933.28 271.088 1909.95 228.479Z" fill="#FCA934"/>
<path d="M106.676 227.91C169.43 231.27 251.261 229.059 315.524 228.933C390.612 460.083 463.42 691.969 533.933 924.558C553.049 988.804 592.061 1086.86 602.487 1149.58L393.681 1150.34C303.992 843.8 200.403 534.201 106.676 227.91Z" fill="black"/>
<path d="M896.117 228.202C965.496 228.633 1034.88 228.546 1104.25 227.94C1091.08 280.403 1066.61 345.008 1050.39 398.272L895.944 888.533C878.916 941.27 834.199 1106.12 811.699 1149.81C744.008 1148.5 676.299 1148.66 608.615 1150.29C615.68 1095.23 641.655 1039.33 657.448 985.953C712.752 799.037 771.799 612.09 831.783 426.612C838.551 405.691 888.363 234.801 896.117 228.202Z" fill="#FEAC40"/>
<path d="M2550.27 796.947C2565.88 810.486 2640.5 915.707 2656.24 939.337C2701.36 1007.03 2768.35 1081.1 2808.55 1149.57L2704.24 1149.9L2588.25 1150.2C2577.22 1129.19 2547.49 1092.07 2531.99 1071.61L2436.89 945.842C2452.71 921.976 2532.43 816.354 2550.27 796.947Z" fill="black"/>
<path d="M2588.03 230.392C2659.99 228.67 2737.03 229.966 2809.37 229.93C2786.19 266.555 2753.04 308.649 2726.68 344.334C2683.31 403.654 2639.55 462.684 2595.39 521.415C2581.34 539.706 2565.09 564.957 2551.8 584.39C2522.2 551.199 2465.02 470.286 2437.68 432.638C2482.59 366.037 2544.27 299.664 2588.03 230.392Z" fill="black"/>
</svg>
