<svg width="6453" height="1400" viewBox="0 0 6453 1400" fill="none" xmlns="http://www.w3.org/2000/svg">
<path d="M2367.73 346.392C2368.42 346.284 2369.12 346.192 2369.82 346.116C2600.44 320.338 2810.8 429.79 2831.96 679.077C2853.82 936.472 2749.14 1113.36 2478.47 1141.68C2476.1 1141.93 2473.73 1142.14 2471.35 1142.33C2227.22 1161.34 2033.03 1052.1 2013.68 792.059C1995.2 543.687 2110.34 365.946 2367.73 346.392Z" fill="black"/>
<path d="M2376.37 511.966C2433.82 504.301 2546.15 513.289 2594.29 549.322C2686.65 618.457 2688.37 816.702 2625.53 905.083C2590.53 954.326 2527.69 968.048 2470.3 975.675C2400.21 980.245 2304.86 979.01 2248.34 933.023C2206.84 899.25 2185.52 848.325 2181.31 795.861C2175.38 721.929 2176.18 636.155 2224.9 575.762C2265.22 525.775 2315.77 518.341 2376.37 511.966Z" fill="white"/>
<path d="M3564.77 352.26C3710.16 354.766 3865.61 345.811 4009.02 358.123C4154.1 370.581 4207.87 522.085 4169.1 646.123C4160.86 672.435 4149.86 692.562 4136.23 717.04C4255.49 768.434 4272.85 949.088 4206.04 1047.74C4129.09 1154.95 3993.24 1134.96 3876.29 1134.96L3564.78 1134.81L3564.77 352.26Z" fill="black"/>
<path d="M3733.3 810.192L3907.22 810.005C3938.37 809.987 3973.95 807.975 4004.54 811.62C4082.17 820.871 4089.76 897.705 4054.92 953.137C4020.44 986.025 3947.11 977.446 3901.48 977.376L3732.77 977.07L3733.3 810.192Z" fill="white"/>
<path d="M3732.95 497.418C3786.69 497.887 3940 487.265 3978.96 510.87C3994.11 520.053 4004.26 534.766 4008.38 551.863C4016.25 584.275 4010.15 615.169 3992.72 643.149C3972.75 662.919 3942.49 663.554 3916.07 663.423C3854.97 663.119 3793.87 663.042 3732.77 662.978L3732.95 497.418Z" fill="white"/>
<path d="M5733.77 351.93L5899.54 352.034C5899.52 456.158 5897.96 564.722 5900.59 668.501C5912.08 657.551 5922.74 645.691 5933.48 634.009C6020.8 539.111 6112.32 448.163 6199.4 353.072C6261.62 350.03 6338.55 352.219 6402.35 351.908L6210.81 552.642C6169.11 596.702 6127.56 642.554 6084.12 684.802C6109.72 713.758 6137.77 750.555 6162.38 781.094L6312.46 967.474C6350.92 1018.25 6411.83 1084.88 6445.77 1135.19C6376.16 1134.53 6306.11 1136.38 6236.5 1134.72C6226.03 1123.69 6216.68 1112.48 6207.11 1100.69C6127.91 1003 6052.4 901.491 5972.02 804.802C5954.24 822.963 5912.1 864.167 5900.4 883.657C5896.78 959.643 5899.57 1056.98 5899.57 1134.56C5845.49 1135.8 5788.33 1135.11 5734.01 1135.29L5733.77 351.93Z" fill="black"/>
<path d="M4829.6 352.601L4997.77 352.435C4996.86 399.29 4997.53 448.149 4997.5 495.156L4997.58 692.237C4997.58 816.22 5003.94 953.727 4907.74 1049.54C4749.47 1206.05 4384.11 1172.68 4315.73 936.873C4287.43 839.304 4294.54 723.422 4294.62 621.421L4294.89 352.565L4460.14 352.886L4460.08 673.928C4460.06 825.079 4434.34 995.671 4642.07 997.787C4859.96 1000.01 4829.6 824.614 4829.57 662.295L4829.6 352.601Z" fill="black"/>
<path d="M5056.82 352.435C5112.07 352.784 5167.35 352.823 5222.6 352.55C5225.97 562.919 5218.63 779.544 5223.94 989.001C5371.45 991.139 5523.83 989.242 5671.74 988.95L5671.77 1133.93C5469.33 1136.97 5259.48 1134.5 5056.77 1134.24L5056.82 352.435Z" fill="black"/>
<path d="M2738.77 351.435C2799.38 353.52 2864.61 352.473 2925.6 352.388C2942.72 382.189 2995.13 449.144 3018.7 480.683C3084.79 567.687 3149.82 655.498 3213.77 744.095C3149.27 838.775 3069.53 934.16 3002.94 1028.67C2978.78 1062.96 2948.06 1098.61 2926.09 1133.81C2872.83 1137 2794.38 1134.52 2739.26 1134.43C2754.9 1105.8 2816.5 1027.19 2838.76 997.346L3025.21 743.808L2843.6 497.933C2817.32 462.449 2758.58 387.676 2738.77 351.435Z" fill="#FCA934"/>
<path d="M1205.77 351.435C1259.05 354.291 1328.54 352.412 1383.11 352.304C1446.86 548.765 1508.69 745.851 1568.56 943.534C1584.79 998.138 1617.92 1081.48 1626.77 1134.79L1449.47 1135.43C1373.31 874.896 1285.35 611.76 1205.77 351.435Z" fill="black"/>
<path d="M1876.4 351.657C1935.19 352.023 1993.98 351.949 2052.77 351.435C2041.61 396.028 2020.87 450.943 2007.13 496.216L1876.25 912.939C1861.82 957.765 1823.93 1097.89 1804.86 1135.03C1747.5 1133.91 1690.12 1134.05 1632.77 1135.43C1638.76 1088.63 1660.77 1041.12 1674.15 995.746C1721.01 836.867 1771.05 677.962 1821.88 520.306C1827.61 502.523 1869.82 357.266 1876.4 351.657Z" fill="#FEAC40"/>
<path d="M3282.17 835.435C3295.44 846.933 3358.89 936.291 3372.27 956.358C3410.63 1013.85 3467.59 1076.75 3501.77 1134.89L3413.08 1135.17L3314.47 1135.43C3305.08 1117.59 3279.81 1086.06 3266.63 1068.69L3185.77 961.882C3199.22 941.614 3267 851.916 3282.17 835.435Z" fill="black"/>
<path d="M3314.59 353.197C3375.77 351.732 3441.26 352.835 3502.77 352.804C3483.06 383.97 3454.87 419.79 3432.47 450.157C3395.6 500.636 3358.39 550.868 3320.84 600.846C3308.9 616.411 3295.08 637.898 3283.78 654.435C3258.62 626.191 3210.01 557.337 3186.77 525.3C3224.95 468.625 3277.39 412.145 3314.59 353.197Z" fill="black"/>
<path d="M605.427 216.938C616.142 221.913 621.211 228.302 626.97 238.48C628.05 245.983 628.05 245.983 628.054 254.435C628.073 256.786 628.073 256.786 628.092 259.186C628.123 264.442 628.093 269.696 628.064 274.952C628.074 278.757 628.087 282.562 628.105 286.368C628.141 296.826 628.123 307.284 628.096 317.743C628.077 329.021 628.107 340.3 628.13 351.578C628.169 373.673 628.16 395.768 628.135 417.863C628.116 435.817 628.113 453.771 628.123 471.725C628.124 474.279 628.125 476.832 628.127 479.463C628.129 484.65 628.132 489.837 628.135 495.024C628.16 543.685 628.131 592.346 628.085 641.007C628.047 682.777 628.053 724.547 628.093 766.317C628.139 814.801 628.157 863.286 628.131 911.77C628.128 916.938 628.125 922.107 628.123 927.275C628.121 929.818 628.12 932.361 628.119 934.981C628.111 952.917 628.124 970.854 628.144 988.79C628.168 1010.64 628.162 1032.5 628.116 1054.35C628.093 1065.5 628.084 1076.66 628.113 1087.81C628.138 1098.02 628.124 1108.22 628.078 1118.43C628.069 1122.12 628.074 1125.82 628.095 1129.52C628.121 1134.53 628.094 1139.55 628.054 1144.57C628.053 1147.35 628.051 1150.14 628.05 1153.02C626.425 1164.3 621.085 1170.85 612.967 1178.56C601.84 1183.73 591.639 1183.69 579.575 1182.06C568.86 1177.09 563.791 1170.7 558.032 1160.52C556.952 1153.02 556.952 1153.02 556.948 1144.57C556.935 1143 556.923 1141.43 556.91 1139.81C556.878 1134.56 556.908 1129.3 556.938 1124.05C556.928 1120.24 556.914 1116.44 556.897 1112.63C556.861 1102.17 556.879 1091.72 556.906 1081.26C556.925 1069.98 556.895 1058.7 556.871 1047.42C556.833 1025.33 556.841 1003.23 556.866 981.137C556.886 963.183 556.888 945.229 556.879 927.275C556.878 924.721 556.876 922.168 556.875 919.537C556.872 914.35 556.869 909.163 556.867 903.976C556.842 855.315 556.87 806.654 556.916 757.993C556.955 716.223 556.948 674.453 556.909 632.683C556.862 584.199 556.844 535.714 556.871 487.23C556.874 482.062 556.876 476.893 556.879 471.725C556.881 467.911 556.881 467.911 556.883 464.019C556.89 446.083 556.878 428.146 556.858 410.21C556.833 388.357 556.84 366.504 556.886 344.651C556.908 333.498 556.917 322.344 556.889 311.191C556.863 300.985 556.877 290.78 556.923 280.575C556.933 276.878 556.928 273.181 556.907 269.485C556.881 264.467 556.908 259.452 556.948 254.435C556.949 251.646 556.95 248.857 556.952 245.983C558.577 234.695 563.916 228.151 572.035 220.438C583.162 215.272 593.363 215.314 605.427 216.938Z" fill="black"/>
<path d="M881.177 354.813C891.188 359.461 898.473 366.058 902.72 376.356C904.001 385.456 903.882 394.49 903.814 403.667C903.827 406.449 903.841 409.231 903.854 412.097C903.89 419.805 903.873 427.512 903.846 435.22C903.826 443.537 903.857 451.855 903.88 460.173C903.919 476.462 903.91 492.75 903.885 509.039C903.866 522.278 903.863 535.515 903.873 548.753C903.874 550.637 903.875 552.521 903.877 554.462C903.879 558.289 903.882 562.116 903.885 565.943C903.91 601.832 903.881 637.72 903.835 673.609C903.797 704.405 903.803 735.201 903.843 765.997C903.889 801.757 903.907 837.517 903.881 873.277C903.878 877.09 903.875 880.902 903.873 884.715C903.871 886.591 903.87 888.468 903.869 890.4C903.861 903.623 903.874 916.846 903.894 930.068C903.918 946.182 903.912 962.294 903.866 978.408C903.843 986.63 903.834 994.851 903.863 1003.07C903.893 1011.98 903.857 1020.89 903.814 1029.8C903.833 1032.4 903.852 1035.01 903.872 1037.69C903.744 1051.28 903.362 1059.77 894.102 1070.04C885.874 1077.86 879.275 1079.32 868.251 1079.73C857.227 1079.32 850.627 1077.86 842.399 1070.04C831.409 1057.85 832.571 1045.64 832.688 1029.8C832.674 1027.02 832.661 1024.24 832.647 1021.37C832.611 1013.66 832.629 1005.96 832.656 998.249C832.675 989.931 832.645 981.614 832.621 973.296C832.583 957.007 832.591 940.718 832.616 924.429C832.636 911.191 832.638 897.953 832.629 884.715C832.628 882.832 832.626 880.948 832.625 879.007C832.622 875.18 832.619 871.353 832.617 867.526C832.592 831.637 832.62 795.749 832.666 759.86C832.705 729.064 832.698 698.268 832.659 667.472C832.612 631.712 832.594 595.952 832.621 560.192C832.624 556.379 832.626 552.566 832.629 548.753C832.63 546.877 832.632 545.001 832.633 543.068C832.64 529.846 832.628 516.623 832.608 503.401C832.583 487.287 832.59 471.174 832.636 455.061C832.658 446.839 832.667 438.618 832.639 430.396C832.608 421.486 832.645 412.577 832.688 403.667C832.669 401.065 832.649 398.462 832.63 395.781C832.757 382.186 833.14 373.699 842.399 363.43C853.755 352.642 866.329 352.814 881.177 354.813Z" fill="black"/>
<path d="M329.677 354.813C339.688 359.461 346.973 366.058 351.22 376.356C352.501 385.456 352.382 394.49 352.314 403.667C352.327 406.449 352.341 409.231 352.354 412.097C352.39 419.805 352.373 427.512 352.346 435.22C352.326 443.537 352.357 451.855 352.38 460.173C352.419 476.462 352.41 492.75 352.385 509.039C352.366 522.278 352.363 535.515 352.373 548.753C352.374 550.637 352.375 552.521 352.377 554.462C352.379 558.289 352.382 562.116 352.385 565.943C352.41 601.832 352.381 637.72 352.335 673.609C352.297 704.405 352.303 735.201 352.343 765.997C352.389 801.757 352.407 837.517 352.381 873.277C352.378 877.09 352.375 880.902 352.373 884.715C352.371 886.591 352.37 888.468 352.369 890.4C352.361 903.623 352.374 916.846 352.394 930.068C352.418 946.181 352.412 962.294 352.366 978.408C352.343 986.63 352.334 994.851 352.363 1003.07C352.393 1011.98 352.357 1020.89 352.314 1029.8C352.333 1032.4 352.352 1035.01 352.372 1037.69C352.244 1051.28 351.862 1059.77 342.602 1070.04C334.374 1077.86 327.775 1079.32 316.751 1079.73C305.727 1079.32 299.127 1077.86 290.899 1070.04C279.909 1057.85 281.071 1045.64 281.188 1029.8C281.174 1027.02 281.161 1024.24 281.147 1021.37C281.111 1013.66 281.129 1005.96 281.156 998.249C281.175 989.931 281.145 981.614 281.121 973.296C281.083 957.007 281.091 940.718 281.116 924.429C281.136 911.191 281.138 897.953 281.129 884.715C281.128 882.832 281.126 880.948 281.125 879.007C281.122 875.18 281.119 871.353 281.117 867.526C281.092 831.637 281.12 795.749 281.166 759.86C281.205 729.064 281.198 698.268 281.159 667.472C281.112 631.712 281.094 595.952 281.121 560.192C281.124 556.379 281.126 552.566 281.129 548.753C281.13 546.877 281.132 545.001 281.133 543.068C281.14 529.846 281.128 516.623 281.108 503.401C281.083 487.287 281.09 471.174 281.136 455.061C281.158 446.839 281.167 438.618 281.139 430.396C281.108 421.486 281.145 412.577 281.188 403.667C281.169 401.065 281.149 398.462 281.13 395.781C281.257 382.186 281.64 373.699 290.899 363.43C302.255 352.642 314.829 352.814 329.677 354.813Z" fill="black"/>
<path d="M743.301 458.219C754.002 463.187 759.215 469.509 764.844 479.762C766.05 486.263 766.009 492.624 765.938 499.222C765.952 501.159 765.965 503.097 765.979 505.093C766.013 511.573 765.986 518.051 765.959 524.531C765.971 529.181 765.986 533.831 766.005 538.482C766.044 551.105 766.029 563.727 766.001 576.35C765.98 589.558 766 602.767 766.013 615.975C766.029 638.156 766.008 660.337 765.967 682.518C765.921 708.165 765.936 733.811 765.983 759.458C766.022 781.475 766.028 803.493 766.005 825.51C765.992 838.661 765.99 851.812 766.018 864.963C766.043 877.326 766.026 889.689 765.976 902.053C765.965 906.591 765.968 911.13 765.987 915.668C766.011 921.862 765.981 928.053 765.938 934.247C765.957 936.044 765.977 937.842 765.996 939.694C765.843 951.124 763.72 957.519 756.227 966.633C747.999 974.449 741.399 975.918 730.375 976.327C719.351 975.918 712.752 974.449 704.524 966.633C695.527 955.691 694.667 947.807 694.812 934.247C694.792 931.341 694.792 931.341 694.771 928.376C694.737 921.896 694.764 915.418 694.791 908.938C694.78 904.288 694.764 899.637 694.746 894.987C694.706 882.364 694.722 869.742 694.749 857.119C694.771 843.911 694.751 830.702 694.737 817.494C694.721 795.313 694.742 773.132 694.783 750.951C694.83 725.304 694.815 699.657 694.767 674.01C694.728 651.993 694.723 629.976 694.745 607.959C694.759 594.808 694.76 581.657 694.732 568.506C694.707 556.142 694.724 543.779 694.774 531.416C694.786 526.877 694.782 522.339 694.763 517.8C694.74 511.607 694.769 505.415 694.812 499.222C694.783 496.526 694.783 496.526 694.754 493.775C694.908 482.345 697.03 475.95 704.524 466.836C715.88 456.048 728.454 456.22 743.301 458.219Z" fill="black"/>
<path d="M467.551 458.219C478.252 463.187 483.465 469.509 489.094 479.762C490.3 486.263 490.259 492.624 490.188 499.222C490.202 501.159 490.215 503.097 490.229 505.093C490.263 511.573 490.236 518.051 490.209 524.531C490.221 529.181 490.236 533.831 490.255 538.482C490.294 551.105 490.279 563.727 490.251 576.35C490.23 589.558 490.25 602.767 490.263 615.975C490.279 638.156 490.258 660.337 490.217 682.518C490.171 708.165 490.186 733.811 490.233 759.458C490.272 781.476 490.278 803.493 490.255 825.51C490.242 838.661 490.24 851.812 490.268 864.963C490.293 877.326 490.276 889.689 490.226 902.053C490.215 906.591 490.218 911.13 490.237 915.668C490.261 921.862 490.231 928.053 490.188 934.247C490.207 936.044 490.227 937.842 490.246 939.694C490.093 951.124 487.97 957.519 480.477 966.633C472.249 974.449 465.649 975.918 454.625 976.327C443.601 975.918 437.002 974.449 428.774 966.633C419.777 955.691 418.917 947.807 419.062 934.247C419.042 931.341 419.042 931.341 419.021 928.376C418.987 921.896 419.014 915.418 419.041 908.938C419.03 904.288 419.014 899.637 418.996 894.987C418.956 882.364 418.972 869.742 418.999 857.119C419.021 843.911 419.001 830.702 418.987 817.494C418.971 795.313 418.992 773.132 419.033 750.951C419.08 725.304 419.065 699.657 419.017 674.01C418.978 651.993 418.973 629.976 418.995 607.959C419.009 594.808 419.01 581.657 418.982 568.506C418.957 556.142 418.974 543.779 419.024 531.416C419.036 526.877 419.032 522.339 419.013 517.8C418.99 511.607 419.019 505.415 419.062 499.222C419.033 496.526 419.033 496.526 419.004 493.775C419.158 482.345 421.28 475.95 428.774 466.836C440.13 456.048 452.704 456.22 467.551 458.219Z" fill="black"/>
<path d="M1019.05 561.625C1029.07 566.279 1036.27 572.903 1040.59 583.168C1041.86 591.762 1041.77 600.278 1041.71 608.952C1041.72 611.539 1041.74 614.126 1041.75 616.791C1041.79 623.859 1041.78 630.926 1041.75 637.995C1041.73 645.407 1041.75 652.819 1041.76 660.23C1041.78 672.675 1041.76 685.12 1041.72 697.565C1041.67 711.934 1041.69 726.302 1041.73 740.671C1041.77 753.029 1041.78 765.386 1041.75 777.743C1041.74 785.115 1041.74 792.486 1041.77 799.857C1041.79 808.078 1041.76 816.296 1041.71 824.517C1041.73 826.948 1041.74 829.379 1041.76 831.884C1041.62 845.183 1040.91 853.13 1031.98 863.227C1023.75 871.043 1017.15 872.512 1006.12 872.921C995.101 872.512 988.501 871.043 980.273 863.227C969.687 851.263 970.43 840.008 970.541 824.517C970.526 821.93 970.511 819.343 970.495 816.678C970.464 809.61 970.471 802.543 970.498 795.474C970.52 788.062 970.5 780.65 970.486 773.238C970.471 760.794 970.491 748.349 970.533 735.904C970.579 721.535 970.564 707.167 970.517 692.797C970.478 680.44 970.472 668.083 970.495 655.726C970.508 648.354 970.51 640.983 970.481 633.612C970.46 625.391 970.493 617.173 970.541 608.952C970.523 606.521 970.506 604.09 970.488 601.585C970.632 588.286 971.339 580.339 980.273 570.242C991.629 559.454 1004.2 559.626 1019.05 561.625Z" fill="black"/>
<path d="M191.8 561.625C201.824 566.279 209.018 572.903 213.343 583.168C214.613 591.762 214.521 600.278 214.458 608.952C214.474 611.539 214.489 614.126 214.504 616.791C214.536 623.859 214.528 630.926 214.501 637.995C214.479 645.407 214.499 652.819 214.513 660.23C214.529 672.675 214.508 685.12 214.467 697.565C214.42 711.934 214.435 726.302 214.483 740.671C214.522 753.029 214.527 765.386 214.505 777.743C214.491 785.115 214.489 792.486 214.518 799.857C214.54 808.078 214.506 816.296 214.458 824.517C214.476 826.948 214.493 829.379 214.511 831.884C214.368 845.183 213.66 853.13 204.726 863.227C196.498 871.043 189.899 872.512 178.875 872.921C167.851 872.512 161.251 871.043 153.023 863.227C142.437 851.263 143.18 840.007 143.291 824.517C143.276 821.93 143.261 819.343 143.245 816.678C143.214 809.61 143.221 802.543 143.248 795.474C143.27 788.062 143.25 780.65 143.236 773.238C143.221 760.794 143.241 748.349 143.283 735.904C143.329 721.535 143.314 707.167 143.267 692.797C143.228 680.44 143.222 668.083 143.245 655.726C143.258 648.354 143.26 640.983 143.231 633.612C143.21 625.391 143.243 617.173 143.291 608.952C143.273 606.521 143.256 604.09 143.238 601.585C143.382 588.286 144.089 580.339 153.023 570.242C164.379 559.454 176.953 559.626 191.8 561.625Z" fill="black"/>
</svg>
