<svg width="4542" height="1040" viewBox="0 0 4542 1040" fill="none" xmlns="http://www.w3.org/2000/svg">
<path d="M475.276 171.285C485.453 178.228 485.453 178.228 492.415 188.375C492.415 196.835 492.415 205.295 492.415 214.011C589.978 214.011 687.541 214.011 788.06 214.011C788.06 205.551 788.06 197.091 788.06 188.375C792.612 178.228 792.612 178.228 800.914 171.285C815.674 169.445 825.958 168.579 839.209 175.825C846.043 188.252 844.036 200.082 843.761 214.011C847.953 213.812 852.145 213.614 856.465 213.41C904.752 212.084 936.936 218.827 973.189 252.164C996.096 278.538 1007.15 309.559 1007 343.974C1006.98 349.33 1006.97 354.686 1006.96 360.205C1006.92 365.803 1006.88 371.402 1006.85 377.17C1006.83 382.875 1006.81 388.58 1006.79 394.285C1006.74 408.252 1006.67 422.218 1006.58 436.185C1005.17 436.185 1003.75 436.185 1002.3 436.185C1002.13 431.468 1002.13 431.468 1001.96 426.655C1000.48 400.3 1000.48 400.3 990.78 376.102C979.375 366.573 969.519 362.857 955.164 359.278C954.744 356.183 954.324 353.088 953.891 349.899C949.042 318.635 942.537 299.02 919.011 276.764C896.137 265.959 873.084 266.023 848.046 265.282C848.283 268.553 848.521 271.825 848.766 275.195C848.046 286.645 848.046 286.645 836.531 298.928C822.338 308.007 822.338 308.007 810.822 308.275C798.717 302.728 794.274 298.384 788.06 286.645C788.06 279.595 788.06 272.545 788.06 265.282C690.497 265.282 592.934 265.282 492.415 265.282C491.001 275.151 489.587 285.021 488.131 295.19C480.9 303.735 480.9 303.735 470.992 308.007C457.602 307.473 457.602 307.473 445.284 303.735C435.471 289.058 435.95 282.435 436.714 265.282C392.512 265.518 392.512 265.518 355.305 286.645C340.014 303.541 333.382 315.96 333.251 338.681C333.22 342.317 333.189 345.952 333.158 349.697C333.146 353.672 333.135 357.648 333.123 361.743C333.081 368.04 333.081 368.04 333.037 374.463C332.953 388.378 332.903 402.292 332.86 416.207C332.843 420.961 332.825 425.714 332.807 430.612C332.718 455.778 332.657 480.944 332.616 506.11C332.569 532.081 332.422 558.05 332.252 584.02C332.139 604.008 332.104 623.995 332.088 643.983C332.067 653.554 332.018 663.126 331.938 672.697C331.834 686.115 331.838 699.528 331.867 712.946C331.813 716.878 331.758 720.81 331.701 724.861C331.906 750.338 336.588 769.515 351.02 790.809C371.086 810.305 390.47 817.479 418.24 817.634C423.101 817.682 427.961 817.73 432.969 817.779C438.261 817.788 443.552 817.797 449.004 817.807C454.608 817.85 460.211 817.893 465.984 817.937C481.315 818.053 496.646 818.118 511.977 818.174C528.012 818.241 544.046 818.355 560.081 818.464C590.429 818.664 620.778 818.821 651.127 818.963C685.684 819.126 720.241 819.337 754.798 819.552C825.871 819.994 896.944 820.375 968.018 820.717C961.566 834.476 956.769 841.054 943.648 849.023C940.892 850.752 938.136 852.482 935.297 854.264C905.65 868.63 877.828 869.025 845.39 869.092C837.985 869.156 837.985 869.156 830.43 869.221C814.148 869.345 797.866 869.404 781.583 869.451C773.095 869.488 764.607 869.525 756.12 869.562C732.473 869.663 708.827 869.727 685.18 869.757C654.733 869.795 624.289 869.945 593.842 870.193C570.214 870.378 546.587 870.464 522.958 870.475C508.888 870.484 494.823 870.546 480.754 870.687C465.024 870.834 449.303 870.817 433.573 870.761C428.997 870.84 424.421 870.919 419.707 871C381.005 870.577 347.945 858.45 318.848 832.491C283.488 795.914 277.566 755.574 277.422 706.655C277.393 702.505 277.365 698.354 277.336 694.078C277.252 680.369 277.202 666.661 277.159 652.952C277.142 648.258 277.124 643.565 277.106 638.729C277.017 613.891 276.956 589.053 276.915 564.214C276.868 538.608 276.72 513.003 276.55 487.398C276.438 467.663 276.402 447.928 276.387 428.193C276.366 418.756 276.317 409.32 276.237 399.883C276.132 386.651 276.137 373.424 276.166 360.192C276.111 356.329 276.057 352.466 276 348.485C276.318 309.47 290.61 279.915 317.06 251.563C351.799 219.382 386.147 212.533 432.429 214.011C432.871 209.34 433.313 204.67 433.768 199.858C436.714 184.103 436.714 184.103 441.802 175.825C453.664 168.891 461.803 169.366 475.276 171.285Z" fill="#2563EB"/>
<path d="M475.276 155.285C485.453 162.228 485.453 162.228 492.415 172.375C492.415 180.835 492.415 189.295 492.415 198.011C589.978 198.011 687.541 198.011 788.06 198.011C788.06 189.551 788.06 181.091 788.06 172.375C792.612 162.228 792.612 162.228 800.914 155.285C815.674 153.445 825.958 152.579 839.209 159.825C846.043 172.252 844.036 184.082 843.761 198.011C847.953 197.812 852.145 197.614 856.465 197.41C904.752 196.084 936.936 202.827 973.189 236.164C996.096 262.538 1007.15 293.559 1007 327.974C1006.98 333.33 1006.97 338.686 1006.96 344.205C1006.92 349.803 1006.88 355.402 1006.85 361.17C1006.83 366.875 1006.81 372.58 1006.79 378.285C1006.74 392.252 1006.67 406.218 1006.58 420.185C1005.17 420.185 1003.75 420.185 1002.3 420.185C1002.13 415.468 1002.13 415.468 1001.96 410.655C1000.48 384.3 1000.48 384.3 990.78 360.102C979.375 350.573 969.519 346.857 955.164 343.278C954.744 340.183 954.324 337.088 953.891 333.899C949.042 302.635 942.537 283.02 919.011 260.764C896.137 249.959 873.084 250.023 848.046 249.282C848.283 252.553 848.521 255.825 848.766 259.195C848.046 270.645 848.046 270.645 836.531 282.928C822.338 292.007 822.338 292.007 810.822 292.275C798.717 286.728 794.274 282.384 788.06 270.645C788.06 263.595 788.06 256.545 788.06 249.282C690.497 249.282 592.934 249.282 492.415 249.282C491.001 259.151 489.587 269.021 488.131 279.19C480.9 287.735 480.9 287.735 470.992 292.007C457.602 291.473 457.602 291.473 445.284 287.735C435.471 273.058 435.95 266.435 436.714 249.282C392.512 249.518 392.512 249.518 355.305 270.645C340.014 287.541 333.382 299.96 333.251 322.681C333.22 326.317 333.189 329.952 333.158 333.697C333.146 337.672 333.135 341.648 333.123 345.743C333.081 352.04 333.081 352.04 333.037 358.463C332.953 372.378 332.903 386.292 332.86 400.207C332.843 404.961 332.825 409.714 332.807 414.612C332.718 439.778 332.657 464.944 332.616 490.11C332.569 516.081 332.422 542.05 332.252 568.02C332.139 588.008 332.104 607.995 332.088 627.983C332.067 637.554 332.018 647.126 331.938 656.697C331.834 670.115 331.838 683.528 331.867 696.946C331.813 700.878 331.758 704.81 331.701 708.861C331.906 734.338 336.588 753.515 351.02 774.809C371.086 794.305 390.47 801.479 418.24 801.634C423.101 801.682 427.961 801.73 432.969 801.779C438.261 801.788 443.552 801.797 449.004 801.807C454.608 801.85 460.211 801.893 465.984 801.937C481.315 802.053 496.646 802.118 511.977 802.174C528.012 802.241 544.046 802.355 560.081 802.464C590.429 802.664 620.778 802.821 651.127 802.963C685.684 803.126 720.241 803.337 754.798 803.552C825.871 803.994 896.944 804.375 968.018 804.717C961.566 818.476 956.769 825.054 943.648 833.023C940.892 834.752 938.136 836.482 935.297 838.264C905.65 852.63 877.828 853.025 845.39 853.092C837.985 853.156 837.985 853.156 830.43 853.221C814.148 853.345 797.866 853.404 781.583 853.451C773.095 853.488 764.607 853.525 756.12 853.562C732.473 853.663 708.827 853.727 685.18 853.757C654.733 853.795 624.289 853.945 593.842 854.193C570.214 854.378 546.587 854.464 522.958 854.475C508.888 854.484 494.823 854.546 480.754 854.687C465.024 854.834 449.303 854.817 433.573 854.761C428.997 854.84 424.421 854.919 419.707 855C381.005 854.577 347.945 842.45 318.848 816.491C283.488 779.914 277.566 739.574 277.422 690.655C277.393 686.505 277.365 682.354 277.336 678.078C277.252 664.369 277.202 650.661 277.159 636.952C277.142 632.258 277.124 627.565 277.106 622.729C277.017 597.891 276.956 573.053 276.915 548.214C276.868 522.608 276.72 497.003 276.55 471.398C276.438 451.663 276.402 431.928 276.387 412.193C276.366 402.756 276.317 393.32 276.237 383.883C276.132 370.651 276.137 357.424 276.166 344.192C276.111 340.329 276.057 336.466 276 332.485C276.318 293.47 290.61 263.915 317.06 235.563C351.799 203.382 386.147 196.533 432.429 198.011C432.871 193.34 433.313 188.67 433.768 183.858C436.714 168.103 436.714 168.103 441.802 159.825C453.664 152.891 461.803 153.366 475.276 155.285Z" fill="#2563EB"/>
<path d="M635.351 409.392C640.267 409.317 640.267 409.317 645.283 409.241C669.255 409.367 669.255 409.367 678.738 416.518C688.236 429.502 685.809 445.313 685.492 460.839C685.512 465.885 685.512 465.885 685.533 471.033C685.299 496.051 685.299 496.051 675.676 505.822C667.443 506.937 667.443 506.937 657.503 506.966C653.93 506.977 650.357 506.989 646.676 507C642.938 506.967 639.201 506.933 635.351 506.899C629.745 506.949 629.745 506.949 624.026 507C620.453 506.989 616.88 506.978 613.198 506.966C609.918 506.957 606.638 506.947 603.258 506.937C595.025 505.822 595.025 505.822 586.536 497.202C585.579 484.895 585.159 473.143 585.209 460.839C585.141 457.492 585.073 454.145 585.002 450.696C584.981 426.062 584.981 426.062 591.963 416.518C604.709 406.907 620.103 409.159 635.351 409.392Z" fill="#D0E0FC"/>
<path d="M635.351 393.392C640.267 393.317 640.267 393.317 645.283 393.241C669.255 393.367 669.255 393.367 678.738 400.518C688.236 413.502 685.809 429.313 685.492 444.839C685.512 449.885 685.512 449.885 685.533 455.033C685.299 480.051 685.299 480.051 675.676 489.822C667.443 490.937 667.443 490.937 657.503 490.966C653.93 490.977 650.357 490.989 646.676 491C642.938 490.967 639.201 490.933 635.351 490.899C629.745 490.949 629.745 490.949 624.026 491C620.453 490.989 616.88 490.978 613.198 490.966C609.918 490.957 606.638 490.947 603.258 490.937C595.025 489.822 595.025 489.822 586.536 481.202C585.579 468.895 585.159 457.143 585.209 444.839C585.141 441.492 585.073 438.145 585.002 434.696C584.981 410.062 584.981 410.062 591.963 400.518C604.709 390.907 620.103 393.159 635.351 393.392Z" fill="#D0E0FC"/>
<path d="M447.66 409.5C450.976 409.486 454.292 409.473 457.709 409.459C482.371 409.69 482.371 409.69 492.003 419.188C493.035 427.381 493.035 427.381 492.982 437.273C492.974 440.818 492.966 444.364 492.957 448.017C492.879 453.579 492.879 453.579 492.8 459.252C492.797 462.976 492.794 466.7 492.791 470.537C492.599 498.205 492.599 498.205 487.755 502.982C474.422 504.028 461.03 503.758 447.66 503.768C443.9 503.819 440.141 503.87 436.267 503.923C432.672 503.931 429.076 503.939 425.372 503.948C422.062 503.965 418.752 503.982 415.341 504C407.034 502.982 407.034 502.982 398.537 494.603C397.579 482.639 397.159 471.214 397.21 459.252C397.141 455.998 397.073 452.744 397.002 449.392C396.981 425.45 396.981 425.45 403.96 416.157C416.772 406.8 432.352 409.187 447.66 409.5Z" fill="#CFE0FC"/>
<path d="M447.66 393.5C450.976 393.486 454.292 393.473 457.709 393.459C482.371 393.69 482.371 393.69 492.003 403.188C493.035 411.381 493.035 411.381 492.982 421.273C492.974 424.818 492.966 428.364 492.957 432.017C492.879 437.579 492.879 437.579 492.8 443.252C492.797 446.976 492.794 450.7 492.791 454.537C492.599 482.205 492.599 482.205 487.755 486.982C474.422 488.028 461.03 487.758 447.66 487.768C443.9 487.819 440.141 487.87 436.267 487.923C432.672 487.931 429.076 487.939 425.372 487.948C422.062 487.965 418.752 487.982 415.341 488C407.034 486.982 407.034 486.982 398.537 478.603C397.579 466.639 397.159 455.214 397.21 443.252C397.141 439.998 397.073 436.744 397.002 433.392C396.981 409.45 396.981 409.45 403.96 400.157C416.772 390.8 432.352 393.187 447.66 393.5Z" fill="#CFE0FC"/>
<path d="M447.659 554.132C450.976 554.098 454.292 554.065 457.708 554.031C482.43 554.117 482.43 554.117 492.003 563.749C493.035 571.714 493.035 571.714 492.982 581.264C492.974 584.688 492.966 588.113 492.957 591.641C492.879 597.009 492.879 597.009 492.8 602.485C492.797 606.08 492.794 609.676 492.791 613.38C492.599 640.088 492.599 640.088 487.755 644.962C474.422 646.029 461.029 645.753 447.659 645.763C443.9 645.815 440.14 645.868 436.266 645.922C432.671 645.93 429.076 645.938 425.371 645.947C422.061 645.964 418.751 645.982 415.34 646C407.033 644.962 407.033 644.962 398.536 636.413C397.58 624.119 397.158 612.372 397.209 600.081C397.14 596.725 397.072 593.37 397.001 589.913C396.993 580.178 396.993 580.178 398.536 563.749C414.948 552.741 428.656 553.941 447.659 554.132Z" fill="#CDDFFC"/>
<path d="M447.659 538.132C450.976 538.098 454.292 538.065 457.708 538.031C482.43 538.117 482.43 538.117 492.003 547.749C493.035 555.714 493.035 555.714 492.982 565.264C492.974 568.688 492.966 572.113 492.957 575.641C492.879 581.009 492.879 581.009 492.8 586.485C492.797 590.08 492.794 593.676 492.791 597.38C492.599 624.088 492.599 624.088 487.755 628.962C474.422 630.029 461.029 629.753 447.659 629.763C443.9 629.815 440.14 629.868 436.266 629.922C432.671 629.93 429.076 629.938 425.371 629.947C422.061 629.964 418.751 629.982 415.34 630C407.033 628.962 407.033 628.962 398.536 620.413C397.58 608.119 397.158 596.372 397.209 584.081C397.14 580.725 397.072 577.37 397.001 573.913C396.993 564.178 396.993 564.178 398.536 547.749C414.948 536.741 428.656 537.941 447.659 538.132Z" fill="#CDDFFC"/>
<path d="M636.014 554.305C641.004 554.23 641.004 554.23 646.094 554.154C670.546 554.28 670.546 554.28 679.997 561.669C685.56 568.783 685.56 568.783 688 581.351C685.56 594.522 685.56 594.522 674.368 603.939C666.979 608.037 666.979 608.037 659.44 612.217C656.878 613.666 654.316 615.114 651.676 616.607C644.334 620.745 636.944 624.795 629.551 628.841C623.621 632.495 617.695 636.156 611.779 639.833C607.691 641.868 603.604 643.903 599.392 646C595.127 644.584 590.862 643.169 586.467 641.71C586.119 629.821 585.862 617.942 585.66 606.051C585.497 600.995 585.497 600.995 585.331 595.837C585.29 592.588 585.248 589.34 585.205 585.992C585.137 583.005 585.07 580.017 585 576.938C589.731 550.643 614.369 553.981 636.014 554.305Z" fill="#CEE0FD"/>
<path d="M636.014 538.305C641.004 538.23 641.004 538.23 646.094 538.154C670.546 538.28 670.546 538.28 679.997 545.669C685.56 552.783 685.56 552.783 688 565.351C685.56 578.522 685.56 578.522 674.368 587.939C666.979 592.037 666.979 592.037 659.44 596.217C656.878 597.666 654.316 599.114 651.676 600.607C644.334 604.745 636.944 608.795 629.551 612.841C623.621 616.495 617.695 620.156 611.779 623.833C607.691 625.868 603.604 627.903 599.392 630C595.127 628.584 590.862 627.169 586.467 625.71C586.119 613.821 585.862 601.942 585.66 590.051C585.497 584.995 585.497 584.995 585.331 579.837C585.29 576.588 585.248 573.34 585.205 569.992C585.137 567.005 585.07 564.017 585 560.938C589.731 534.643 614.369 537.981 636.014 538.305Z" fill="#CEE0FD"/>
<path d="M764.506 409.274C769.703 409.449 769.703 409.449 775.005 409.628C777.641 409.778 780.277 409.928 782.992 410.083C782.639 415.329 782.285 420.576 781.921 425.982C781.896 440.287 782.708 444.133 790.762 456.704C793.857 459.817 796.951 462.929 800.14 466.136C804.426 470.448 808.713 474.76 813 479.072C794.055 503.792 794.055 503.792 775.373 506.964C763.29 507.092 752.042 506.98 740.125 504.943C728.934 493.687 730.314 485.491 730.17 470.137C730.183 466.771 730.197 463.406 730.211 459.938C730.142 456.589 730.073 453.24 730.002 449.79C729.981 424.994 729.981 424.994 737.473 415.567C746.829 408.172 752.768 408.761 764.506 409.274Z" fill="#CEDFFC"/>
<path d="M764.506 393.274C769.703 393.449 769.703 393.449 775.005 393.628C777.641 393.778 780.277 393.928 782.992 394.083C782.639 399.329 782.285 404.576 781.921 409.982C781.896 424.287 782.708 428.133 790.762 440.704C793.857 443.817 796.951 446.929 800.14 450.136C804.426 454.448 808.713 458.76 813 463.072C794.055 487.792 794.055 487.792 775.373 490.964C763.29 491.092 752.042 490.98 740.125 488.943C728.934 477.687 730.314 469.491 730.17 454.137C730.183 450.771 730.197 447.406 730.211 443.938C730.142 440.589 730.073 437.24 730.002 433.79C729.981 408.994 729.981 408.994 737.473 399.567C746.829 392.172 752.768 392.761 764.506 393.274Z" fill="#CEDFFC"/>
<path d="M689.166 711C689.397 718.458 689.562 725.918 689.7 733.378C689.799 737.532 689.898 741.686 690 745.966C689.166 756.798 689.166 756.798 680.63 765.125C672.217 766.07 672.217 766.07 662.057 765.938C658.426 765.911 654.795 765.884 651.054 765.857C645.359 765.752 645.359 765.752 639.55 765.645C633.806 765.589 633.806 765.589 627.946 765.531C618.475 765.433 609.006 765.296 599.536 765.125C596.719 759.629 593.902 754.133 591 748.471C609.929 738.753 629.245 730.888 649.186 723.344C659.261 719.529 659.261 719.529 668.326 714.659C676.362 711 676.362 711 689.166 711Z" fill="#CBDDFC"/>
<path d="M689.166 695C689.397 702.458 689.562 709.918 689.7 717.378C689.799 721.532 689.898 725.686 690 729.966C689.166 740.798 689.166 740.798 680.63 749.125C672.217 750.07 672.217 750.07 662.057 749.938C658.426 749.911 654.795 749.884 651.054 749.857C645.359 749.752 645.359 749.752 639.55 749.645C633.806 749.589 633.806 749.589 627.946 749.531C618.475 749.433 609.006 749.296 599.536 749.125C596.719 743.629 593.902 738.133 591 732.471C609.929 722.753 629.245 714.888 649.186 707.344C659.261 703.529 659.261 703.529 668.326 698.659C676.362 695 676.362 695 689.166 695Z" fill="#CBDDFC"/>
<mask id="path-15-outside-1_18_806" maskUnits="userSpaceOnUse" x="384" y="366" width="609" height="392" fill="black">
<rect fill="white" x="384" y="366" width="609" height="392"/>
<path d="M893.552 389.42C952.702 382.79 952.702 382.789 971.222 395.168C972.521 406.245 973.015 416.284 972.922 427.369L972.959 437.023C972.968 443.766 972.944 450.509 972.891 457.252C972.822 467.572 972.89 477.885 972.972 488.205C972.963 494.753 972.947 501.301 972.922 507.849C972.948 510.937 972.973 514.025 973 517.207C972.824 529.753 972.606 538.546 965.531 549.134C958.421 553.452 958.42 553.451 945.354 552.649C932.82 549.174 932.82 549.174 924.286 540.618C923.453 528.553 923.453 528.553 923.753 514.416C923.83 509.729 923.907 505.041 923.986 500.212C924.085 496.605 924.184 492.999 924.286 489.283H915.753C914.668 491.756 913.583 494.228 912.466 496.775C850.847 609.737 686.38 689.774 569.289 724.319C542.54 731.427 516.59 735.034 490 736.702V737.576C480.633 737.67 471.267 737.745 461.9 737.807C458.179 737.875 454.436 737.918 450.668 737.938C447.447 737.959 444.225 737.979 440.906 738C440.083 737.997 439.29 737.994 438.523 737.991C419.735 738.054 417.3 737.802 410.547 734.388C409.768 734.008 408.928 733.591 408 733.126C408.005 733.112 408.009 733.098 408.014 733.084C408.009 733.082 408.005 733.079 408 733.077C409.424 728.623 410.848 724.168 412.315 719.578C424.254 717.586 435.827 716.123 447.556 715.436C569.143 695.093 676.41 638.958 766.414 553.452C772.169 548.435 777.946 543.443 783.748 538.479C814.525 511.542 842.424 482.008 868.817 450.781C865.886 450.621 862.954 450.462 859.934 450.297C856.089 450.016 852.244 449.734 848.283 449.444C844.472 449.196 840.66 448.948 836.733 448.692C824.695 446.202 820.608 443.461 813.349 433.67C811.575 421.813 811.133 415.358 818.232 405.495C829.178 397.132 838.431 396.42 852.017 394.634C856.967 393.972 861.917 393.31 867.018 392.628C874.245 391.768 874.245 391.767 881.618 390.89C885.556 390.404 889.494 389.92 893.552 389.42Z"/>
</mask>
<path d="M893.552 389.42C952.702 382.79 952.702 382.789 971.222 395.168C972.521 406.245 973.015 416.284 972.922 427.369L972.959 437.023C972.968 443.766 972.944 450.509 972.891 457.252C972.822 467.572 972.89 477.885 972.972 488.205C972.963 494.753 972.947 501.301 972.922 507.849C972.948 510.937 972.973 514.025 973 517.207C972.824 529.753 972.606 538.546 965.531 549.134C958.421 553.452 958.42 553.451 945.354 552.649C932.82 549.174 932.82 549.174 924.286 540.618C923.453 528.553 923.453 528.553 923.753 514.416C923.83 509.729 923.907 505.041 923.986 500.212C924.085 496.605 924.184 492.999 924.286 489.283H915.753C914.668 491.756 913.583 494.228 912.466 496.775C850.847 609.737 686.38 689.774 569.289 724.319C542.54 731.427 516.59 735.034 490 736.702V737.576C480.633 737.67 471.267 737.745 461.9 737.807C458.179 737.875 454.436 737.918 450.668 737.938C447.447 737.959 444.225 737.979 440.906 738C440.083 737.997 439.29 737.994 438.523 737.991C419.735 738.054 417.3 737.802 410.547 734.388C409.768 734.008 408.928 733.591 408 733.126C408.005 733.112 408.009 733.098 408.014 733.084C408.009 733.082 408.005 733.079 408 733.077C409.424 728.623 410.848 724.168 412.315 719.578C424.254 717.586 435.827 716.123 447.556 715.436C569.143 695.093 676.41 638.958 766.414 553.452C772.169 548.435 777.946 543.443 783.748 538.479C814.525 511.542 842.424 482.008 868.817 450.781C865.886 450.621 862.954 450.462 859.934 450.297C856.089 450.016 852.244 449.734 848.283 449.444C844.472 449.196 840.66 448.948 836.733 448.692C824.695 446.202 820.608 443.461 813.349 433.67C811.575 421.813 811.133 415.358 818.232 405.495C829.178 397.132 838.431 396.42 852.017 394.634C856.967 393.972 861.917 393.31 867.018 392.628C874.245 391.768 874.245 391.767 881.618 390.89C885.556 390.404 889.494 389.92 893.552 389.42Z" fill="#FCA934"/>
<path d="M893.552 389.42L891.435 370.538L891.332 370.55L891.228 370.562L893.552 389.42ZM971.222 395.168L990.092 392.954L989.071 384.245L981.78 379.372L971.222 395.168ZM972.922 427.369L953.923 427.21L953.922 427.326L953.922 427.442L972.922 427.369ZM972.959 437.023L991.959 436.999L991.959 436.975L991.959 436.95L972.959 437.023ZM972.891 457.252L953.891 457.101L953.891 457.114L953.891 457.126L972.891 457.252ZM972.972 488.205L991.972 488.23L991.972 488.142L991.971 488.054L972.972 488.205ZM972.922 507.849L953.922 507.776L953.922 507.892L953.923 508.008L972.922 507.849ZM973 517.207L991.998 517.473L992.001 517.26L991.999 517.048L973 517.207ZM965.531 549.134L975.394 565.373L978.991 563.189L981.329 559.69L965.531 549.134ZM945.354 552.649L940.276 570.958L942.198 571.491L944.189 571.614L945.354 552.649ZM924.286 540.618L905.331 541.927L905.82 549.009L910.834 554.036L924.286 540.618ZM923.753 514.416L942.749 514.819L942.75 514.774L942.75 514.728L923.753 514.416ZM923.986 500.212L904.993 499.69L904.991 499.795L904.989 499.9L923.986 500.212ZM924.286 489.283L943.279 489.805L943.815 470.283H924.286V489.283ZM915.753 489.283V470.283H903.34L898.353 481.651L915.753 489.283ZM912.466 496.775L929.146 505.874L929.537 505.156L929.866 504.408L912.466 496.775ZM569.289 724.319L574.169 742.682L574.418 742.616L574.665 742.543L569.289 724.319ZM490 736.702L488.811 717.739L471 718.856V736.702H490ZM490 737.576L490.191 756.575L509 756.386V737.576H490ZM461.9 737.807L461.775 718.807L461.663 718.808L461.55 718.81L461.9 737.807ZM450.668 737.938L450.567 718.939L450.557 718.939L450.548 718.939L450.668 737.938ZM440.906 738L440.848 757L440.937 757L441.026 757L440.906 738ZM438.523 737.991L438.587 718.991L438.523 718.991L438.459 718.991L438.523 737.991ZM410.547 734.388L419.12 717.432L418.999 717.37L418.876 717.31L410.547 734.388ZM408 733.126L389.97 727.132L384.781 742.74L399.485 750.111L408 733.126ZM408.014 733.084L426.043 739.078L431.15 723.718L416.797 716.236L408.014 733.084ZM408 733.077L389.902 727.291L385.03 742.53L399.217 749.925L408 733.077ZM412.315 719.578L409.189 700.837L397.75 702.745L394.218 713.792L412.315 719.578ZM447.556 715.436L448.666 734.404L449.685 734.344L450.691 734.176L447.556 715.436ZM766.414 553.452L753.928 539.131L753.622 539.398L753.328 539.677L766.414 553.452ZM783.748 538.479L796.099 552.917L796.181 552.847L796.262 552.777L783.748 538.479ZM868.817 450.781L883.328 463.046L907.972 433.889L869.852 431.809L868.817 450.781ZM859.934 450.297L858.547 469.246L858.723 469.259L858.899 469.269L859.934 450.297ZM848.283 449.444L849.669 430.495L849.594 430.489L849.518 430.484L848.283 449.444ZM836.733 448.692L832.885 467.298L834.18 467.566L835.499 467.652L836.733 448.692ZM813.349 433.67L794.558 436.481L795.26 441.174L798.086 444.986L813.349 433.67ZM818.232 405.495L806.697 390.398L804.458 392.108L802.812 394.395L818.232 405.495ZM852.017 394.634L854.493 413.472L854.513 413.469L854.534 413.466L852.017 394.634ZM867.018 392.628L864.772 373.761L864.636 373.777L864.5 373.795L867.018 392.628ZM881.618 390.89L883.864 409.756L883.903 409.752L883.942 409.747L881.618 390.89ZM893.552 389.42L895.668 408.302C926.367 404.86 938.769 403.562 946.221 404.114C950.498 404.43 951.459 404.812 960.663 410.964L971.222 395.168L981.78 379.372C972.465 373.145 964.166 367.338 949.025 366.217C937.059 365.332 919.886 367.349 891.435 370.538L893.552 389.42ZM971.222 395.168L952.351 397.382C953.551 407.614 954.009 416.858 953.923 427.21L972.922 427.369L991.921 427.528C992.02 415.71 991.491 404.876 990.092 392.954L971.222 395.168ZM972.922 427.369L953.922 427.442L953.959 437.096L972.959 437.023L991.959 436.95L991.922 427.296L972.922 427.369ZM972.959 437.023L953.959 437.048C953.968 443.73 953.944 450.415 953.891 457.101L972.891 457.252L991.89 457.402C991.944 450.604 991.968 443.802 991.959 436.999L972.959 437.023ZM972.891 457.252L953.891 457.126C953.822 467.598 953.89 478.033 953.972 488.356L972.972 488.205L991.971 488.054C991.889 477.737 991.823 467.546 991.89 457.378L972.891 457.252ZM972.972 488.205L953.972 488.18C953.963 494.713 953.947 501.245 953.922 507.776L972.922 507.849L991.922 507.921C991.947 501.356 991.963 494.792 991.972 488.23L972.972 488.205ZM972.922 507.849L953.923 508.008C953.935 509.551 953.948 511.095 953.961 512.651C953.974 514.207 953.987 515.775 954.001 517.366L973 517.207L991.999 517.048C991.986 515.457 991.973 513.89 991.96 512.334C991.947 510.779 991.934 509.234 991.921 507.689L972.922 507.849ZM973 517.207L954.002 516.941C953.827 529.439 953.415 533.069 949.733 538.578L965.531 549.134L981.329 559.69C991.797 544.024 991.822 530.067 991.998 517.473L973 517.207ZM965.531 549.134L955.668 532.894C953.642 534.125 953.101 534.435 952.803 534.582C952.78 534.593 952.98 534.493 953.336 534.372C953.711 534.244 954.088 534.151 954.416 534.094C954.952 534 954.936 534.085 953.461 534.051C951.959 534.016 949.931 533.895 946.518 533.685L945.354 552.649L944.189 571.614C949.523 571.941 955.64 572.453 960.937 571.53C967.654 570.36 972.582 567.081 975.394 565.373L965.531 549.134ZM945.354 552.649L950.431 534.34C947.132 533.426 945.278 532.906 943.901 532.454C942.677 532.053 942.544 531.926 942.742 532.04C942.98 532.175 942.899 532.193 942.132 531.502C941.199 530.661 940.007 529.475 937.739 527.201L924.286 540.618L910.834 554.036C914.415 557.627 918.538 561.977 923.898 565.038C929.082 567.998 934.987 569.492 940.276 570.958L945.354 552.649ZM924.286 540.618L943.241 539.309C942.453 527.899 942.459 528.478 942.749 514.819L923.753 514.416L904.757 514.013C904.447 528.628 904.453 529.207 905.331 541.927L924.286 540.618ZM923.753 514.416L942.75 514.728C942.831 509.844 942.901 505.55 942.984 500.524L923.986 500.212L904.989 499.9C904.913 504.532 904.829 509.613 904.755 514.104L923.753 514.416ZM923.986 500.212L942.979 500.733C943.029 498.93 943.078 497.126 943.128 495.309C943.178 493.492 943.228 491.662 943.279 489.805L924.286 489.283L905.293 488.762C905.242 490.62 905.192 492.451 905.142 494.268C905.092 496.085 905.043 497.888 904.993 499.69L923.986 500.212ZM924.286 489.283V470.283H915.753V489.283V508.283H924.286V489.283ZM915.753 489.283L898.353 481.651C897.812 482.886 897.27 484.121 896.723 485.367C896.176 486.612 895.625 487.868 895.066 489.143L912.466 496.775L929.866 504.408C930.424 503.135 930.974 501.881 931.52 500.635C932.067 499.39 932.61 498.153 933.153 496.915L915.753 489.283ZM912.466 496.775L895.786 487.677C867.277 539.94 813.984 586.047 751.834 623.704C689.98 661.181 621.135 689.214 563.913 706.096L569.289 724.319L574.665 742.543C634.534 724.88 706.468 695.622 771.525 656.203C836.286 616.965 896.036 566.572 929.146 505.874L912.466 496.775ZM569.289 724.319L564.409 705.957C539.11 712.679 514.432 716.132 488.811 717.739L490 736.702L491.189 755.665C518.748 753.936 545.97 750.175 574.169 742.682L569.289 724.319ZM490 736.702H471V737.576H490H509V736.702H490ZM490 737.576L489.809 718.577C480.469 718.671 471.125 718.745 461.775 718.807L461.9 737.807L462.026 756.806C471.409 756.744 480.798 756.669 490.191 756.575L490 737.576ZM461.9 737.807L461.55 718.81C457.917 718.877 454.257 718.919 450.567 718.939L450.668 737.938L450.769 756.938C454.615 756.918 458.441 756.874 462.25 756.803L461.9 737.807ZM450.668 737.938L450.548 718.939C445.979 718.968 445.454 718.971 440.786 719L440.906 738L441.026 757C442.997 756.987 448.914 756.95 450.788 756.938L450.668 737.938ZM440.906 738L440.965 719C440.114 718.997 439.418 718.994 438.587 718.991L438.523 737.991L438.46 756.991C439.162 756.993 440.053 756.997 440.848 757L440.906 738ZM438.523 737.991L438.459 718.991C428.619 719.024 424.718 718.937 422.412 718.645C421.616 718.544 421.367 718.454 421.269 718.421C421.041 718.343 420.541 718.15 419.12 717.432L410.547 734.388L401.973 751.343C406.482 753.623 410.933 755.493 417.632 756.343C422.929 757.014 429.64 757.021 438.587 756.991L438.523 737.991ZM410.547 734.388L418.876 717.31C418.177 716.97 417.402 716.585 416.515 716.141L408 733.126L399.485 750.111C400.455 750.597 401.36 751.046 402.218 751.465L410.547 734.388ZM408 733.126L426.03 739.12C426.049 739.062 426.065 739.014 426.075 738.984C426.079 738.968 426.084 738.956 426.086 738.947C426.089 738.939 426.091 738.932 426.091 738.932C426.092 738.929 426.091 738.932 426.09 738.937C426.088 738.942 426.085 738.951 426.081 738.963C426.074 738.986 426.061 739.027 426.043 739.078L408.014 733.084L389.984 727.09C389.965 727.148 389.949 727.196 389.939 727.226C389.934 727.241 389.93 727.254 389.927 727.263C389.925 727.27 389.923 727.277 389.922 727.278C389.921 727.281 389.923 727.277 389.924 727.273C389.926 727.268 389.929 727.259 389.932 727.247C389.94 727.224 389.953 727.183 389.97 727.132L408 733.126ZM408.014 733.084L416.797 716.236C416.725 716.199 416.661 716.166 416.608 716.139C416.554 716.111 416.507 716.088 416.471 716.07C416.453 716.061 416.437 716.053 416.423 716.046C416.41 716.04 416.398 716.034 416.389 716.029C416.38 716.025 416.372 716.021 416.368 716.019C416.365 716.018 416.363 716.017 416.362 716.016C416.362 716.016 416.361 716.016 416.361 716.016C416.36 716.015 416.36 716.015 416.36 716.015C416.359 716.015 416.362 716.016 416.366 716.018C416.37 716.02 416.377 716.023 416.385 716.028C416.394 716.032 416.405 716.037 416.418 716.044C416.431 716.05 416.447 716.058 416.465 716.067C416.5 716.084 416.545 716.107 416.597 716.133C416.65 716.16 416.713 716.192 416.783 716.229L408 733.077L399.217 749.925C399.288 749.962 399.352 749.995 399.406 750.022C399.46 750.05 399.506 750.073 399.542 750.091C399.56 750.1 399.577 750.108 399.59 750.115C399.604 750.121 399.616 750.127 399.625 750.132C399.634 750.136 399.641 750.14 399.646 750.142C399.648 750.143 399.65 750.144 399.651 750.145C399.653 750.145 399.654 750.146 399.654 750.146C399.654 750.146 399.651 750.145 399.648 750.143C399.644 750.141 399.637 750.138 399.628 750.133C399.62 750.129 399.609 750.124 399.596 750.117C399.582 750.111 399.567 750.103 399.549 750.094C399.514 750.077 399.469 750.054 399.416 750.028C399.364 750.001 399.301 749.969 399.231 749.932L408.014 733.084ZM408 733.077L426.098 738.863C426.81 736.635 427.522 734.408 428.239 732.164C428.957 729.919 429.679 727.658 430.413 725.364L412.315 719.578L394.218 713.792C393.484 716.087 392.761 718.349 392.044 720.593C391.326 722.837 390.614 725.064 389.902 727.291L408 733.077ZM412.315 719.578L415.442 738.319C426.908 736.406 437.784 735.041 448.666 734.404L447.556 715.436L446.445 696.469C433.869 697.205 421.601 698.766 409.189 700.837L412.315 719.578ZM447.556 715.436L450.691 734.176C576.282 713.163 686.951 655.152 779.5 567.227L766.414 553.452L753.328 539.677C665.87 622.764 562.005 677.023 444.42 696.697L447.556 715.436ZM766.414 553.452L778.9 567.773C784.613 562.793 790.345 557.839 796.099 552.917L783.748 538.479L771.397 524.041C765.548 529.046 759.725 534.077 753.928 539.131L766.414 553.452ZM783.748 538.479L796.262 552.777C827.931 525.058 856.494 494.795 883.328 463.046L868.817 450.781L854.306 438.516C828.354 469.221 801.119 498.025 771.234 524.182L783.748 538.479ZM868.817 450.781L869.852 431.809C868.386 431.729 866.92 431.649 865.443 431.569C863.966 431.488 862.478 431.407 860.969 431.325L859.934 450.297L858.899 469.269C860.409 469.351 861.898 469.432 863.375 469.513C864.852 469.593 866.317 469.673 867.782 469.753L868.817 450.781ZM859.934 450.297L861.32 431.347C859.398 431.207 857.476 431.066 855.539 430.924C853.602 430.783 851.65 430.64 849.669 430.495L848.283 449.444L846.897 468.394C848.877 468.538 850.828 468.681 852.765 468.823C854.702 468.965 856.625 469.106 858.547 469.246L859.934 450.297ZM848.283 449.444L849.518 430.484C845.699 430.236 841.901 429.989 837.968 429.732L836.733 448.692L835.499 467.652C839.419 467.907 843.244 468.156 847.049 468.404L848.283 449.444ZM836.733 448.692L840.582 430.086C835.279 428.989 834.014 428.254 833.566 427.964C833.079 427.649 831.889 426.774 828.611 422.354L813.349 433.67L798.086 444.986C802.068 450.356 806.551 455.748 812.932 459.874C819.352 464.025 826.15 465.905 832.885 467.298L836.733 448.692ZM813.349 433.67L832.139 430.859C831.216 424.688 831.136 422.601 831.309 421.252C831.375 420.734 831.504 419.58 833.653 416.595L818.232 405.495L802.812 394.395C797.861 401.274 794.661 408.278 793.617 416.418C792.68 423.726 793.707 430.795 794.558 436.481L813.349 433.67ZM818.232 405.495L829.768 420.592C836.043 415.798 840.053 415.37 854.493 413.472L852.017 394.634L849.54 375.796C836.808 377.469 822.313 378.465 806.697 390.398L818.232 405.495ZM852.017 394.634L854.534 413.466C857.01 413.135 859.485 412.804 861.979 412.471C864.473 412.137 866.986 411.801 869.535 411.46L867.018 392.628L864.5 373.795C861.949 374.136 859.436 374.472 856.942 374.806C854.448 375.139 851.974 375.47 849.499 375.801L852.017 394.634ZM867.018 392.628L869.263 411.495C872.877 411.064 874.684 410.849 876.51 410.632C878.335 410.415 880.178 410.195 883.864 409.756L881.618 390.89L879.372 372.023C875.685 372.462 873.842 372.681 872.016 372.899C870.191 373.116 868.385 373.331 864.772 373.761L867.018 392.628ZM881.618 390.89L883.942 409.747C885.91 409.504 887.878 409.262 889.862 409.018C891.846 408.774 893.846 408.527 895.875 408.277L893.552 389.42L891.228 370.562C889.2 370.812 887.202 371.058 885.218 371.303C883.235 371.547 881.265 371.789 879.294 372.032L881.618 390.89Z" fill="white" mask="url(#path-15-outside-1_18_806)"/>
<mask id="path-17-outside-2_18_806" maskUnits="userSpaceOnUse" x="384" y="350" width="609" height="392" fill="black">
<rect fill="white" x="384" y="350" width="609" height="392"/>
<path d="M893.552 373.42C952.702 366.79 952.702 366.789 971.222 379.168C972.521 390.245 973.015 400.284 972.922 411.369L972.959 421.023C972.968 427.766 972.944 434.509 972.891 441.252C972.822 451.572 972.89 461.885 972.972 472.205C972.963 478.753 972.947 485.301 972.922 491.849C972.948 494.937 972.973 498.025 973 501.207C972.824 513.753 972.606 522.546 965.531 533.134C958.421 537.452 958.42 537.451 945.354 536.649C932.82 533.174 932.82 533.174 924.286 524.618C923.453 512.553 923.453 512.553 923.753 498.416C923.83 493.729 923.907 489.041 923.986 484.212C924.085 480.605 924.184 476.999 924.286 473.283H915.753C914.668 475.756 913.583 478.228 912.466 480.775C850.847 593.737 686.38 673.774 569.289 708.319C542.54 715.427 516.59 719.034 490 720.702V721.576C480.633 721.67 471.267 721.745 461.9 721.807C458.179 721.875 454.436 721.918 450.668 721.938C447.447 721.959 444.225 721.979 440.906 722C440.083 721.997 439.29 721.994 438.523 721.991C419.735 722.054 417.3 721.802 410.547 718.388C409.768 718.008 408.928 717.591 408 717.126C408.005 717.112 408.009 717.098 408.014 717.084C408.009 717.082 408.005 717.079 408 717.077C409.424 712.623 410.848 708.168 412.315 703.578C424.254 701.586 435.827 700.123 447.556 699.436C569.143 679.093 676.41 622.958 766.414 537.452C772.169 532.435 777.946 527.442 783.748 522.479C814.525 495.542 842.424 466.008 868.817 434.781C865.886 434.621 862.954 434.462 859.934 434.297C856.089 434.016 852.244 433.734 848.283 433.444C844.472 433.196 840.66 432.948 836.733 432.692C824.695 430.202 820.608 427.461 813.349 417.67C811.575 405.813 811.133 399.358 818.232 389.495C829.178 381.132 838.431 380.42 852.017 378.634C856.967 377.972 861.917 377.31 867.018 376.628C874.245 375.768 874.245 375.767 881.618 374.89C885.556 374.404 889.494 373.92 893.552 373.42Z"/>
</mask>
<path d="M893.552 373.42C952.702 366.79 952.702 366.789 971.222 379.168C972.521 390.245 973.015 400.284 972.922 411.369L972.959 421.023C972.968 427.766 972.944 434.509 972.891 441.252C972.822 451.572 972.89 461.885 972.972 472.205C972.963 478.753 972.947 485.301 972.922 491.849C972.948 494.937 972.973 498.025 973 501.207C972.824 513.753 972.606 522.546 965.531 533.134C958.421 537.452 958.42 537.451 945.354 536.649C932.82 533.174 932.82 533.174 924.286 524.618C923.453 512.553 923.453 512.553 923.753 498.416C923.83 493.729 923.907 489.041 923.986 484.212C924.085 480.605 924.184 476.999 924.286 473.283H915.753C914.668 475.756 913.583 478.228 912.466 480.775C850.847 593.737 686.38 673.774 569.289 708.319C542.54 715.427 516.59 719.034 490 720.702V721.576C480.633 721.67 471.267 721.745 461.9 721.807C458.179 721.875 454.436 721.918 450.668 721.938C447.447 721.959 444.225 721.979 440.906 722C440.083 721.997 439.29 721.994 438.523 721.991C419.735 722.054 417.3 721.802 410.547 718.388C409.768 718.008 408.928 717.591 408 717.126C408.005 717.112 408.009 717.098 408.014 717.084C408.009 717.082 408.005 717.079 408 717.077C409.424 712.623 410.848 708.168 412.315 703.578C424.254 701.586 435.827 700.123 447.556 699.436C569.143 679.093 676.41 622.958 766.414 537.452C772.169 532.435 777.946 527.442 783.748 522.479C814.525 495.542 842.424 466.008 868.817 434.781C865.886 434.621 862.954 434.462 859.934 434.297C856.089 434.016 852.244 433.734 848.283 433.444C844.472 433.196 840.66 432.948 836.733 432.692C824.695 430.202 820.608 427.461 813.349 417.67C811.575 405.813 811.133 399.358 818.232 389.495C829.178 381.132 838.431 380.42 852.017 378.634C856.967 377.972 861.917 377.31 867.018 376.628C874.245 375.768 874.245 375.767 881.618 374.89C885.556 374.404 889.494 373.92 893.552 373.42Z" fill="#FCA934"/>
<path d="M893.552 373.42L891.435 354.538L891.332 354.55L891.228 354.562L893.552 373.42ZM971.222 379.168L990.092 376.954L989.071 368.245L981.78 363.372L971.222 379.168ZM972.922 411.369L953.923 411.21L953.922 411.326L953.922 411.442L972.922 411.369ZM972.959 421.023L991.959 420.999L991.959 420.975L991.959 420.95L972.959 421.023ZM972.891 441.252L953.891 441.101L953.891 441.114L953.891 441.126L972.891 441.252ZM972.972 472.205L991.972 472.23L991.972 472.142L991.971 472.054L972.972 472.205ZM972.922 491.849L953.922 491.776L953.922 491.892L953.923 492.008L972.922 491.849ZM973 501.207L991.998 501.473L992.001 501.26L991.999 501.048L973 501.207ZM965.531 533.134L975.394 549.373L978.991 547.189L981.329 543.69L965.531 533.134ZM945.354 536.649L940.276 554.958L942.198 555.491L944.189 555.614L945.354 536.649ZM924.286 524.618L905.331 525.927L905.82 533.009L910.834 538.036L924.286 524.618ZM923.753 498.416L942.749 498.819L942.75 498.774L942.75 498.728L923.753 498.416ZM923.986 484.212L904.993 483.69L904.991 483.795L904.989 483.9L923.986 484.212ZM924.286 473.283L943.279 473.805L943.815 454.283H924.286V473.283ZM915.753 473.283V454.283H903.34L898.353 465.651L915.753 473.283ZM912.466 480.775L929.146 489.874L929.537 489.156L929.866 488.408L912.466 480.775ZM569.289 708.319L574.169 726.682L574.418 726.616L574.665 726.543L569.289 708.319ZM490 720.702L488.811 701.739L471 702.856V720.702H490ZM490 721.576L490.191 740.575L509 740.386V721.576H490ZM461.9 721.807L461.775 702.807L461.663 702.808L461.55 702.81L461.9 721.807ZM450.668 721.938L450.567 702.939L450.557 702.939L450.548 702.939L450.668 721.938ZM440.906 722L440.848 741L440.937 741L441.026 741L440.906 722ZM438.523 721.991L438.587 702.991L438.523 702.991L438.459 702.991L438.523 721.991ZM410.547 718.388L419.12 701.432L418.999 701.37L418.876 701.31L410.547 718.388ZM408 717.126L389.97 711.132L384.781 726.74L399.485 734.111L408 717.126ZM408.014 717.084L426.043 723.078L431.15 707.718L416.797 700.236L408.014 717.084ZM408 717.077L389.902 711.291L385.03 726.53L399.217 733.925L408 717.077ZM412.315 703.578L409.189 684.837L397.75 686.745L394.218 697.792L412.315 703.578ZM447.556 699.436L448.666 718.404L449.685 718.344L450.691 718.176L447.556 699.436ZM766.414 537.452L753.928 523.131L753.622 523.398L753.328 523.677L766.414 537.452ZM783.748 522.479L796.099 536.917L796.181 536.847L796.262 536.777L783.748 522.479ZM868.817 434.781L883.328 447.046L907.972 417.889L869.852 415.809L868.817 434.781ZM859.934 434.297L858.547 453.246L858.723 453.259L858.899 453.269L859.934 434.297ZM848.283 433.444L849.669 414.495L849.594 414.489L849.518 414.484L848.283 433.444ZM836.733 432.692L832.885 451.298L834.18 451.566L835.499 451.652L836.733 432.692ZM813.349 417.67L794.558 420.481L795.26 425.174L798.086 428.986L813.349 417.67ZM818.232 389.495L806.697 374.398L804.458 376.108L802.812 378.395L818.232 389.495ZM852.017 378.634L854.493 397.472L854.513 397.469L854.534 397.466L852.017 378.634ZM867.018 376.628L864.772 357.761L864.636 357.777L864.5 357.795L867.018 376.628ZM881.618 374.89L883.864 393.756L883.903 393.752L883.942 393.747L881.618 374.89ZM893.552 373.42L895.668 392.302C926.367 388.86 938.769 387.562 946.221 388.114C950.498 388.43 951.459 388.812 960.663 394.964L971.222 379.168L981.78 363.372C972.465 357.145 964.166 351.338 949.025 350.217C937.059 349.332 919.886 351.349 891.435 354.538L893.552 373.42ZM971.222 379.168L952.351 381.382C953.551 391.614 954.009 400.858 953.923 411.21L972.922 411.369L991.921 411.528C992.02 399.71 991.491 388.876 990.092 376.954L971.222 379.168ZM972.922 411.369L953.922 411.442L953.959 421.096L972.959 421.023L991.959 420.95L991.922 411.296L972.922 411.369ZM972.959 421.023L953.959 421.048C953.968 427.73 953.944 434.415 953.891 441.101L972.891 441.252L991.89 441.402C991.944 434.604 991.968 427.802 991.959 420.999L972.959 421.023ZM972.891 441.252L953.891 441.126C953.822 451.598 953.89 462.033 953.972 472.356L972.972 472.205L991.971 472.054C991.889 461.737 991.823 451.546 991.89 441.378L972.891 441.252ZM972.972 472.205L953.972 472.18C953.963 478.713 953.947 485.245 953.922 491.776L972.922 491.849L991.922 491.921C991.947 485.356 991.963 478.792 991.972 472.23L972.972 472.205ZM972.922 491.849L953.923 492.008C953.935 493.551 953.948 495.095 953.961 496.651C953.974 498.207 953.987 499.775 954.001 501.366L973 501.207L991.999 501.048C991.986 499.457 991.973 497.89 991.96 496.334C991.947 494.779 991.934 493.234 991.921 491.689L972.922 491.849ZM973 501.207L954.002 500.941C953.827 513.439 953.415 517.069 949.733 522.578L965.531 533.134L981.329 543.69C991.797 528.024 991.822 514.067 991.998 501.473L973 501.207ZM965.531 533.134L955.668 516.894C953.642 518.125 953.101 518.435 952.803 518.582C952.78 518.593 952.98 518.493 953.336 518.372C953.711 518.244 954.088 518.151 954.416 518.094C954.952 518 954.936 518.085 953.461 518.051C951.959 518.016 949.931 517.895 946.518 517.685L945.354 536.649L944.189 555.614C949.523 555.941 955.64 556.453 960.937 555.53C967.654 554.36 972.582 551.081 975.394 549.373L965.531 533.134ZM945.354 536.649L950.431 518.34C947.132 517.426 945.278 516.906 943.901 516.454C942.677 516.053 942.544 515.926 942.742 516.04C942.98 516.175 942.899 516.193 942.132 515.502C941.199 514.661 940.007 513.475 937.739 511.201L924.286 524.618L910.834 538.036C914.415 541.627 918.538 545.977 923.898 549.038C929.082 551.998 934.987 553.492 940.276 554.958L945.354 536.649ZM924.286 524.618L943.241 523.309C942.453 511.899 942.459 512.478 942.749 498.819L923.753 498.416L904.757 498.013C904.447 512.628 904.453 513.207 905.331 525.927L924.286 524.618ZM923.753 498.416L942.75 498.728C942.831 493.844 942.901 489.55 942.984 484.524L923.986 484.212L904.989 483.9C904.913 488.532 904.829 493.613 904.755 498.104L923.753 498.416ZM923.986 484.212L942.979 484.733C943.029 482.93 943.078 481.126 943.128 479.309C943.178 477.492 943.228 475.662 943.279 473.805L924.286 473.283L905.293 472.762C905.242 474.62 905.192 476.451 905.142 478.268C905.092 480.085 905.043 481.888 904.993 483.69L923.986 484.212ZM924.286 473.283V454.283H915.753V473.283V492.283H924.286V473.283ZM915.753 473.283L898.353 465.651C897.812 466.886 897.27 468.121 896.723 469.367C896.176 470.612 895.625 471.868 895.066 473.143L912.466 480.775L929.866 488.408C930.424 487.135 930.974 485.881 931.52 484.635C932.067 483.39 932.61 482.153 933.153 480.915L915.753 473.283ZM912.466 480.775L895.786 471.677C867.277 523.94 813.984 570.047 751.834 607.704C689.98 645.181 621.135 673.214 563.913 690.096L569.289 708.319L574.665 726.543C634.534 708.88 706.468 679.622 771.525 640.203C836.286 600.965 896.036 550.572 929.146 489.874L912.466 480.775ZM569.289 708.319L564.409 689.957C539.11 696.679 514.432 700.132 488.811 701.739L490 720.702L491.189 739.665C518.748 737.936 545.97 734.175 574.169 726.682L569.289 708.319ZM490 720.702H471V721.576H490H509V720.702H490ZM490 721.576L489.809 702.577C480.469 702.671 471.125 702.745 461.775 702.807L461.9 721.807L462.026 740.806C471.409 740.744 480.798 740.669 490.191 740.575L490 721.576ZM461.9 721.807L461.55 702.81C457.917 702.877 454.257 702.919 450.567 702.939L450.668 721.938L450.769 740.938C454.615 740.918 458.441 740.874 462.25 740.803L461.9 721.807ZM450.668 721.938L450.548 702.939C445.979 702.968 445.454 702.971 440.786 703L440.906 722L441.026 741C442.997 740.987 448.914 740.95 450.788 740.938L450.668 721.938ZM440.906 722L440.965 703C440.114 702.997 439.418 702.994 438.587 702.991L438.523 721.991L438.46 740.991C439.162 740.993 440.053 740.997 440.848 741L440.906 722ZM438.523 721.991L438.459 702.991C428.619 703.024 424.718 702.937 422.412 702.645C421.616 702.544 421.367 702.454 421.269 702.421C421.041 702.343 420.541 702.15 419.12 701.432L410.547 718.388L401.973 735.343C406.482 737.623 410.933 739.493 417.632 740.343C422.929 741.014 429.64 741.021 438.587 740.991L438.523 721.991ZM410.547 718.388L418.876 701.31C418.177 700.97 417.402 700.585 416.515 700.141L408 717.126L399.485 734.111C400.455 734.597 401.36 735.046 402.218 735.465L410.547 718.388ZM408 717.126L426.03 723.12C426.049 723.062 426.065 723.014 426.075 722.984C426.079 722.968 426.084 722.956 426.086 722.947C426.089 722.939 426.091 722.932 426.091 722.932C426.092 722.929 426.091 722.932 426.09 722.937C426.088 722.942 426.085 722.951 426.081 722.963C426.074 722.986 426.061 723.027 426.043 723.078L408.014 717.084L389.984 711.09C389.965 711.148 389.949 711.196 389.939 711.226C389.934 711.241 389.93 711.254 389.927 711.263C389.925 711.27 389.923 711.277 389.922 711.278C389.921 711.281 389.923 711.277 389.924 711.273C389.926 711.268 389.929 711.259 389.932 711.247C389.94 711.224 389.953 711.183 389.97 711.132L408 717.126ZM408.014 717.084L416.797 700.236C416.725 700.199 416.661 700.166 416.608 700.139C416.554 700.111 416.507 700.088 416.471 700.07C416.453 700.061 416.437 700.053 416.423 700.046C416.41 700.04 416.398 700.034 416.389 700.029C416.38 700.025 416.372 700.021 416.368 700.019C416.365 700.018 416.363 700.017 416.362 700.016C416.362 700.016 416.361 700.016 416.361 700.016C416.36 700.015 416.36 700.015 416.36 700.015C416.359 700.015 416.362 700.016 416.366 700.018C416.37 700.02 416.377 700.023 416.385 700.028C416.394 700.032 416.405 700.037 416.418 700.044C416.431 700.05 416.447 700.058 416.465 700.067C416.5 700.084 416.545 700.107 416.597 700.133C416.65 700.16 416.713 700.192 416.783 700.229L408 717.077L399.217 733.925C399.288 733.962 399.352 733.995 399.406 734.022C399.46 734.05 399.506 734.073 399.542 734.091C399.56 734.1 399.577 734.108 399.59 734.115C399.604 734.121 399.616 734.127 399.625 734.132C399.634 734.136 399.641 734.14 399.646 734.142C399.648 734.143 399.65 734.144 399.651 734.145C399.653 734.145 399.654 734.146 399.654 734.146C399.654 734.146 399.651 734.145 399.648 734.143C399.644 734.141 399.637 734.138 399.628 734.133C399.62 734.129 399.609 734.124 399.596 734.117C399.582 734.111 399.567 734.103 399.549 734.094C399.514 734.077 399.469 734.054 399.416 734.028C399.364 734.001 399.301 733.969 399.231 733.932L408.014 717.084ZM408 717.077L426.098 722.863C426.81 720.635 427.522 718.408 428.239 716.164C428.957 713.919 429.679 711.658 430.413 709.364L412.315 703.578L394.218 697.792C393.484 700.087 392.761 702.349 392.044 704.593C391.326 706.837 390.614 709.064 389.902 711.291L408 717.077ZM412.315 703.578L415.442 722.319C426.908 720.406 437.784 719.041 448.666 718.404L447.556 699.436L446.445 680.469C433.869 681.205 421.601 682.766 409.189 684.837L412.315 703.578ZM447.556 699.436L450.691 718.176C576.282 697.163 686.951 639.152 779.5 551.227L766.414 537.452L753.328 523.677C665.87 606.764 562.005 661.023 444.42 680.697L447.556 699.436ZM766.414 537.452L778.9 551.773C784.613 546.793 790.345 541.839 796.099 536.917L783.748 522.479L771.397 508.041C765.548 513.046 759.725 518.077 753.928 523.131L766.414 537.452ZM783.748 522.479L796.262 536.777C827.931 509.058 856.494 478.795 883.328 447.046L868.817 434.781L854.306 422.516C828.354 453.221 801.119 482.025 771.234 508.182L783.748 522.479ZM868.817 434.781L869.852 415.809C868.386 415.729 866.92 415.649 865.443 415.569C863.966 415.488 862.478 415.407 860.969 415.325L859.934 434.297L858.899 453.269C860.409 453.351 861.898 453.432 863.375 453.513C864.852 453.593 866.317 453.673 867.782 453.753L868.817 434.781ZM859.934 434.297L861.32 415.347C859.398 415.207 857.476 415.066 855.539 414.924C853.602 414.783 851.65 414.64 849.669 414.495L848.283 433.444L846.897 452.394C848.877 452.538 850.828 452.681 852.765 452.823C854.702 452.965 856.625 453.106 858.547 453.246L859.934 434.297ZM848.283 433.444L849.518 414.484C845.699 414.236 841.901 413.989 837.968 413.732L836.733 432.692L835.499 451.652C839.419 451.907 843.244 452.156 847.049 452.404L848.283 433.444ZM836.733 432.692L840.582 414.086C835.279 412.989 834.014 412.254 833.566 411.964C833.079 411.649 831.889 410.774 828.611 406.354L813.349 417.67L798.086 428.986C802.068 434.356 806.551 439.748 812.932 443.874C819.352 448.025 826.15 449.905 832.885 451.298L836.733 432.692ZM813.349 417.67L832.139 414.859C831.216 408.688 831.136 406.601 831.309 405.252C831.375 404.734 831.504 403.58 833.653 400.595L818.232 389.495L802.812 378.395C797.861 385.274 794.661 392.278 793.617 400.418C792.68 407.726 793.707 414.795 794.558 420.481L813.349 417.67ZM818.232 389.495L829.768 404.592C836.043 399.798 840.053 399.37 854.493 397.472L852.017 378.634L849.54 359.796C836.808 361.469 822.313 362.465 806.697 374.398L818.232 389.495ZM852.017 378.634L854.534 397.466C857.01 397.135 859.485 396.804 861.979 396.471C864.473 396.137 866.986 395.801 869.535 395.46L867.018 376.628L864.5 357.795C861.949 358.136 859.436 358.472 856.942 358.806C854.448 359.139 851.974 359.47 849.499 359.801L852.017 378.634ZM867.018 376.628L869.263 395.495C872.877 395.064 874.684 394.849 876.51 394.632C878.335 394.415 880.178 394.195 883.864 393.756L881.618 374.89L879.372 356.023C875.685 356.462 873.842 356.681 872.016 356.899C870.191 357.116 868.385 357.331 864.772 357.761L867.018 376.628ZM881.618 374.89L883.942 393.747C885.91 393.504 887.878 393.262 889.862 393.018C891.846 392.774 893.846 392.527 895.875 392.277L893.552 373.42L891.228 354.562C889.2 354.812 887.202 355.058 885.218 355.303C883.235 355.547 881.265 355.789 879.294 356.032L881.618 374.89Z" fill="white" mask="url(#path-17-outside-2_18_806)"/>
<rect x="820.5" y="664.5" width="119" height="117" rx="28.5" fill="#FCA934" stroke="white" stroke-width="17"/>
<rect x="820.5" y="648.5" width="119" height="117" rx="28.5" fill="#FCA934" stroke="white" stroke-width="17"/>
<path d="M1186.6 793V412.9H1293V463.3H1295.8C1315.4 422.7 1361.6 403.8 1423.2 403.8L1416.2 527.7C1326.6 524.2 1295.1 559.9 1295.1 648.1V793H1186.6ZM1788.06 785.3C1754.46 797.2 1716.66 802.1 1675.36 802.1C1538.16 802.1 1450.66 732.1 1450.66 601.2C1450.66 487.8 1524.86 403.8 1638.96 403.8C1755.16 403.8 1813.26 494.8 1813.26 597.7C1813.26 613.1 1812.56 629.9 1809.76 642.5H1571.76C1585.76 690.8 1629.16 712.5 1694.96 712.5C1727.16 712.5 1753.76 708.3 1778.96 699.2L1788.06 785.3ZM1640.36 504.6C1605.36 504.6 1573.86 524.9 1566.16 576H1711.06C1708.96 536.1 1680.96 504.6 1640.36 504.6ZM2099.73 793L1981.43 634.8V793H1872.93V261H1981.43V566.2L2086.43 412.9H2216.63L2080.83 596.3L2232.03 793H2099.73ZM2226.54 602.6C2226.54 487.1 2308.44 403.8 2426.04 403.8C2544.34 403.8 2625.54 487.1 2625.54 602.6C2625.54 717.4 2544.34 802.1 2426.04 802.1C2309.14 802.1 2226.54 717.4 2226.54 602.6ZM2426.04 702C2475.74 702 2512.14 665.6 2512.14 608.9C2512.14 554.3 2475.04 515.1 2426.04 515.1C2376.34 515.1 2340.64 554.3 2340.64 608.9C2340.64 665.6 2377.04 702 2426.04 702ZM2905.18 793H2777.78L2635.68 412.9H2762.38L2844.98 689.4L2923.38 412.9H3043.78L2905.18 793ZM3059.84 602.6C3059.84 487.1 3141.74 403.8 3259.34 403.8C3377.64 403.8 3458.84 487.1 3458.84 602.6C3458.84 717.4 3377.64 802.1 3259.34 802.1C3142.44 802.1 3059.84 717.4 3059.84 602.6ZM3259.34 702C3309.04 702 3345.44 665.6 3345.44 608.9C3345.44 554.3 3308.34 515.1 3259.34 515.1C3209.64 515.1 3173.94 554.3 3173.94 608.9C3173.94 665.6 3210.34 702 3259.34 702Z" fill="black"/>
<path d="M3561.28 802.1C3522.78 802.1 3491.98 771.3 3491.98 733.5C3491.98 695 3522.78 663.5 3561.28 663.5C3599.08 663.5 3629.88 695 3629.88 733.5C3629.88 771.3 3599.08 802.1 3561.28 802.1Z" fill="#FC9707"/>
<path d="M3896.31 551.5C3896.31 529.1 3873.91 515.1 3827.01 515.1C3781.51 515.1 3738.81 528.4 3705.21 543.8L3697.51 435.3C3730.41 417.8 3780.11 403.8 3838.21 403.8C3957.21 403.8 4008.31 459.1 4008.31 561.3V793H3897.71V746.8C3869.71 780.4 3837.51 802.1 3781.51 802.1C3718.51 802.1 3673.01 769.2 3673.01 705.5C3673.01 624.3 3738.11 600.5 3819.31 587.2C3850.11 581.6 3866.91 577.4 3881.61 571.8C3893.51 566.9 3896.31 561.3 3896.31 551.5ZM3897.71 627.8C3886.51 633.4 3868.31 640.4 3845.21 645.3C3808.81 653.7 3786.41 662.8 3786.41 694.3C3786.41 719.5 3807.41 731.4 3834.01 731.4C3864.81 731.4 3887.21 712.5 3897.71 689.4V627.8ZM4139.62 376.5C4101.82 376.5 4073.12 351.3 4073.12 312.1C4073.12 272.9 4101.12 247.7 4139.62 247.7C4178.82 247.7 4206.12 272.9 4206.12 312.1C4206.12 351.3 4177.42 376.5 4139.62 376.5ZM4085.72 793V412.9H4194.22V793H4085.72Z" fill="#2563EB"/>
</svg>
