<svg width="5378" height="1167" viewBox="0 0 5378 1167" fill="none" xmlns="http://www.w3.org/2000/svg">
<path d="M2636.39 189.815C2642.34 189.815 2648.3 189.808 2654.26 189.794C2705.3 189.683 2756.37 190.127 2807.31 193.64C2810.89 193.885 2814.48 194.105 2818.06 194.324C2868.61 197.583 2911.85 210.623 2949 246C2950.06 246.98 2950.06 246.98 2951.14 247.98C2989.55 284.592 3006.05 341.542 3007.93 393.108C3009.13 447.257 2994 498.213 2966.36 544.516C2964.84 546.82 2964.84 546.82 2965 549C2965.97 549.45 2966.94 549.9 2967.94 550.363C2984.69 558.325 2998.52 568.501 3011.61 581.609C3013 583 3014.41 584.375 3015.85 585.711C3053.43 620.976 3068.4 680.314 3070 730C3070.02 730.668 3070.04 731.336 3070.07 732.025C3071.43 780.537 3060.48 835.398 3031 875C3030.26 876.031 3029.53 877.062 3028.77 878.125C3016.57 894.731 3001.17 909.613 2984 921C2983.4 921.397 2982.81 921.794 2982.2 922.203C2929.22 956.936 2864.02 961.155 2802.5 961.187C2801.46 961.189 2800.41 961.19 2799.33 961.191C2774.22 961.188 2749.11 960.502 2724 960C2565.1 959.505 2565.1 959.505 2403 959C2403 705.56 2403 452.12 2403 191C2591.66 189.813 2591.66 189.813 2636.39 189.815ZM2607.77 333.449C2606.96 333.468 2606.16 333.488 2605.32 333.508C2592.87 333.813 2580.45 334.407 2568 335C2568 388.46 2568 441.92 2568 497C2603.97 497.087 2603.97 497.087 2639.94 497.146C2654.62 497.164 2669.3 497.185 2683.98 497.226C2694.67 497.256 2705.37 497.276 2716.06 497.282C2721.72 497.286 2727.37 497.295 2733.03 497.317C2738.36 497.338 2743.7 497.344 2749.04 497.339C2750.98 497.34 2752.93 497.346 2754.87 497.358C2776.02 497.478 2796.71 495.553 2815 484C2815.71 483.557 2816.42 483.113 2817.15 482.656C2831.42 472.05 2837.3 448.419 2839.88 431.75C2842.99 408.96 2840.9 383.177 2827 364C2811.62 344.391 2789.89 339.074 2766.23 336.036C2738.12 332.715 2710.02 332.713 2681.76 332.804C2677.61 332.815 2673.46 332.815 2669.31 332.814C2648.79 332.815 2628.28 332.95 2607.77 333.449ZM2647.62 641.5C2608.21 641.747 2608.21 641.747 2568 642C2568 695.79 2568 749.58 2568 805C2599.04 805.179 2599.04 805.179 2630.07 805.355C2642.79 805.427 2655.5 805.499 2668.21 805.573C2690.36 805.701 2712.51 805.821 2734.66 805.92C2744.11 805.963 2753.57 806.015 2763.02 806.088C2769.37 806.136 2775.73 806.17 2782.08 806.198C2784.56 806.211 2787.03 806.23 2789.5 806.255C2820.38 806.56 2853 804.358 2879 786C2880.24 785.17 2880.24 785.17 2881.51 784.324C2884.94 781.122 2886.81 777.526 2888.94 773.375C2889.59 772.114 2889.59 772.114 2890.25 770.829C2903.01 745.414 2907.17 717.137 2899 689.645C2892.8 671.676 2880.61 659.637 2864.06 650.812C2855.87 646.961 2847.53 644.742 2838.62 643.312C2837.88 643.193 2837.14 643.074 2836.38 642.951C2824.21 641.146 2811.99 640.851 2799.71 640.885C2798.23 640.885 2796.75 640.885 2795.27 640.885C2791.26 640.885 2787.25 640.893 2783.24 640.901C2780.68 640.906 2778.13 640.909 2775.58 640.912C2732.93 640.953 2690.28 641.226 2647.62 641.5Z" fill="#FEFEFE"/>
<path d="M1276.73 180.797C1278 180.79 1279.26 180.783 1280.57 180.775C1284.63 180.758 1288.69 180.751 1292.75 180.75C1293.44 180.75 1294.14 180.749 1294.85 180.749C1316.38 180.748 1337.64 181.071 1359 184C1360.07 184.142 1360.07 184.142 1361.15 184.287C1441.13 194.975 1518.13 224.775 1578 280C1579.41 281.257 1579.41 281.257 1580.85 282.539C1654.41 348.208 1682.07 445.35 1687.56 540.644C1691.87 629.136 1680.28 720.937 1608 839C1607.52 839.591 1607.05 840.182 1606.56 840.791C1600 848.93 1592.8 856.396 1585.44 863.812C1584.58 864.684 1583.71 865.556 1582.82 866.454C1576.86 872.391 1570.59 877.768 1564 883C1562.83 883.953 1561.66 884.907 1560.5 885.863C1546.28 897.249 1531.05 906.9 1515.16 915.788C1513.25 916.859 1511.35 917.949 1509.45 919.043C1489.78 930.033 1468.4 938.089 1447 945C1446.1 945.297 1445.19 945.594 1444.26 945.9C1368.08 970.788 1284.23 975.799 1068.63 925.937C1066.71 924.96 1064.8 923.973 1062.9 922.98C1060.97 921.986 1059.03 921.025 1057.09 920.066C1039.25 911.135 1022.41 899.639 1007 887C1006.22 886.362 1006.22 886.362 1005.42 885.71C991.371 874.166 977.782 861.88 966 848C965.285 847.174 964.569 846.347 963.832 845.496C949.638 828.847 937.86 810.975 927 792C926.329 790.837 926.329 790.837 925.645 789.65C892.447 731.537 878.982 659.822 878.797 593.637C878.794 592.932 878.791 592.227 878.788 591.5C878.774 587.752 878.764 584.004 878.76 580.256C878.756 577.244 878.742 574.233 878.719 571.221C878.596 554.682 878.883 538.292 880.375 521.812C880.437 521.131 880.499 520.449 880.562 519.747C887.233 447.731 908.787 372.965 955 316C955.761 315.047 956.521 314.095 957.305 313.113C962.33 306.879 967.599 300.908 973 295C974.282 293.561 974.282 293.561 975.59 292.094C998.666 266.302 1027.55 246.138 1058 230C1058.98 229.481 1058.98 229.481 1059.98 228.951C1064.6 226.521 1069.28 224.224 1074 222C1074.81 221.619 1075.62 221.237 1076.45 220.845C1127.56 197.078 1182.33 188.194 1237.96 182.98C1239.32 182.853 1239.32 182.853 1240.71 182.722C1252.72 181.624 1264.67 180.842 1276.73 180.797ZM1102 396C1101.04 396.895 1100.08 397.789 1099.09 398.711C1058.2 437.615 1044.42 498.741 1042.94 553.244C1042.82 558.954 1042.81 564.664 1042.81 570.375C1042.81 571.259 1042.81 572.143 1042.81 573.054C1042.91 639.035 1052.03 702.879 1100 752C1136.54 788.162 1189.22 800.346 1239 804C1240.16 804.088 1241.31 804.177 1242.51 804.268C1254.18 805.093 1265.84 805.153 1277.55 805.13C1280.8 805.125 1284.05 805.13 1287.3 805.137C1304.95 805.144 1322.5 804.832 1340 802.312C1341.22 802.14 1342.43 801.968 1343.68 801.79C1388.2 795.207 1433.19 783.07 1467 752C1467.75 751.336 1468.49 750.672 1469.26 749.988C1480.27 739.692 1488.11 726.256 1495 713C1495.33 712.381 1495.66 711.761 1496 711.123C1512.38 680.161 1519.11 644.44 1523 610C1523.1 609.102 1523.21 608.204 1523.32 607.279C1524.38 596.726 1524.24 586.095 1524.25 575.5C1524.25 574.453 1524.25 573.407 1524.25 572.328C1524.24 555.697 1523.61 539.455 1521 523C1520.83 521.889 1520.66 520.778 1520.48 519.633C1513.38 474.921 1498.12 430.902 1466 398C1465.28 397.214 1464.55 396.427 1463.8 395.617C1428.26 357.971 1364.19 350.498 1315 347C1314.27 346.944 1313.54 346.887 1312.79 346.829C1244.26 341.668 1154.46 346.226 1102 396Z" fill="#FDFDFD"/>
<path d="M5186 191C5186 191.66 5186 192.32 5186 193C5185.32 193.536 5184.64 194.073 5183.94 194.625C5181.6 196.513 5179.96 198.117 5178.06 200.375C5174.58 204.466 5170.82 208.226 5167 212C5161.58 217.345 5161.58 217.345 5156.5 223C5152.65 227.56 5148.35 231.673 5144.11 235.867C5141.13 238.83 5138.21 241.787 5135.5 245C5132.22 248.887 5128.61 252.424 5125 256C5119.61 261.312 5119.61 261.312 5114.56 266.938C5110.5 271.749 5105.94 276.082 5101.47 280.509C5097.79 284.168 5094.28 287.877 5090.93 291.848C5087.49 295.68 5083.77 299.245 5080.11 302.868C5077.13 305.83 5074.21 308.787 5071.5 312C5068.22 315.887 5064.61 319.424 5061 323C5055.61 328.312 5055.61 328.312 5050.56 333.938C5046.5 338.749 5041.94 343.082 5037.47 347.509C5033.79 351.168 5030.28 354.877 5026.93 358.848C5023.49 362.679 5019.77 366.244 5016.12 369.865C5012.54 373.415 5009.15 377.032 5005.9 380.879C5002.68 384.474 4999.2 387.818 4995.77 391.212C4992.22 394.741 4988.85 398.357 4985.61 402.176C4983.19 404.918 4980.57 407.438 4977.97 410C4976.06 411.939 4974.27 413.937 4972.5 416C4969.48 419.512 4966.27 422.753 4962.97 426C4961.06 427.939 4959.27 429.937 4957.5 432C4955.1 434.789 4952.62 437.42 4950 440C4947.44 442.52 4945.02 445.081 4942.69 447.813C4938.97 452.143 4934.92 456.11 4930.84 460.094C4928.77 462.157 4926.86 464.307 4924.97 466.531C4919.12 473.29 4912.61 479.447 4906.25 485.728C4900.45 491.463 4894.72 497.162 4889.43 503.377C4887.38 505.707 4885.1 507.725 4882.75 509.75C4879.77 512.324 4877.25 514.759 4875 518C4875.62 518.667 4876.23 519.333 4876.87 520.02C4882.82 526.498 4888.48 533.146 4894 540C4895.42 541.731 4896.83 543.46 4898.25 545.188C4899.83 547.125 4901.42 549.062 4903 551C4903.74 551.9 4903.74 551.9 4904.49 552.818C4912.55 562.693 4920.49 572.658 4928.33 582.709C4934.2 590.219 4940.14 597.659 4946.17 605.041C4949.64 609.303 4953.06 613.601 4956.44 617.938C4961.12 623.943 4965.95 629.819 4970.81 635.684C4974.89 640.626 4978.88 645.632 4982.82 650.692C4986.46 655.361 4990.22 659.937 4994 664.5C4998.69 670.166 5003.3 675.886 5007.82 681.692C5011.46 686.361 5015.22 690.937 5019 695.5C5023.69 701.166 5028.3 706.886 5032.82 712.692C5036.46 717.361 5040.22 721.937 5044 726.5C5048.81 732.308 5053.53 738.172 5058.17 744.118C5061.58 748.475 5065.05 752.765 5068.56 757.035C5077.97 768.478 5087.22 780.033 5096.33 791.709C5102.8 799.992 5109.37 808.186 5116.02 816.332C5118.34 819.186 5120.65 822.055 5122.94 824.938C5131.17 835.257 5139.61 845.411 5148.17 855.468C5151.73 859.662 5155.21 863.916 5158.68 868.184C5161.28 871.338 5163.92 874.452 5166.56 877.563C5170.38 882.057 5174.12 886.6 5177.79 891.223C5180.05 894.06 5182.34 896.874 5184.63 899.685C5229 954.099 5229 954.099 5229 959C5214.45 959.133 5199.91 959.263 5185.36 959.391C5178.6 959.451 5171.84 959.511 5165.08 959.573C5138.17 959.819 5111.27 960.061 5084.36 959.996C5076.24 959.98 5068.13 960.027 5060.01 960.207C5055.91 960.291 5051.8 960.323 5047.69 960.342C5045.68 960.365 5043.67 960.413 5041.66 960.484C5023.9 961.07 5023.9 961.07 5017.85 955.977C5014.98 953.116 5012.53 950.038 5010.21 946.719C5008.47 944.252 5006.52 941.984 5004.56 939.688C5003.86 938.811 5003.16 937.935 5002.43 937.031C4999.97 933.959 4997.46 930.922 4994.95 927.888C4989.6 921.432 4984.33 914.927 4979.19 908.312C4975.52 903.617 4971.74 899.023 4967.94 894.438C4962.99 888.461 4958.18 882.404 4953.48 876.227C4950.78 872.686 4947.98 869.219 4945.19 865.75C4940.89 860.417 4936.7 855.017 4932.56 849.563C4927.72 843.184 4922.74 836.938 4917.67 830.743C4913.49 825.634 4909.45 820.437 4905.45 815.192C4902.91 811.874 4900.33 808.591 4897.75 805.313C4893.48 799.892 4889.23 794.451 4885 789C4879.47 781.877 4873.91 774.773 4868.33 767.686C4866.05 764.792 4863.77 761.896 4861.5 759C4860.58 757.834 4859.67 756.667 4858.75 755.5C4853.25 748.5 4853.25 748.5 4851.88 746.751C4850.96 745.582 4850.04 744.414 4849.12 743.246C4846.85 740.357 4844.58 737.466 4842.32 734.57C4836.9 727.638 4831.4 720.779 4825.84 713.962C4822.34 709.676 4818.9 705.357 4815.5 701C4810.42 694.494 4805.22 688.089 4800 681.692C4797.57 678.704 4795.15 675.702 4792.75 672.688C4787.79 666.466 4782.73 660.321 4777.68 654.176C4773.03 648.517 4768.46 642.808 4764 637C4757.68 642.179 4751.94 647.911 4746.18 653.695C4744.51 655.368 4742.83 657.036 4741.16 658.703C4736.06 663.803 4731.06 668.923 4726.37 674.413C4724.67 676.378 4722.87 678.198 4721 680C4714.57 686.367 4708.9 693.306 4703.19 700.313C4702.32 701.372 4702.32 701.372 4701.44 702.453C4700.9 703.125 4700.35 703.797 4699.79 704.488C4699.3 705.092 4698.81 705.696 4698.31 706.318C4692.04 714.369 4693.71 726.33 4693.44 736.136C4693.42 736.881 4693.4 737.627 4693.38 738.394C4692.81 759.106 4692.87 779.822 4692.9 800.541C4692.9 806.136 4692.91 811.732 4692.91 817.328C4692.91 827.863 4692.92 838.398 4692.93 848.934C4692.94 863.213 4692.95 877.493 4692.95 891.772C4692.96 914.181 4692.98 936.591 4693 959C4638.88 959 4584.76 959 4529 959C4529 705.56 4529 452.12 4529 191C4583.12 191 4637.24 191 4693 191C4693.06 211.307 4693.12 231.613 4693.18 252.535C4693.22 265.419 4693.26 278.302 4693.31 291.186C4693.33 297.958 4693.35 304.73 4693.37 311.502C4693.38 312.775 4693.38 312.775 4693.38 314.073C4693.42 327.729 4693.47 341.385 4693.5 355.04C4693.55 369.081 4693.59 383.121 4693.64 397.162C4693.67 405.808 4693.69 414.454 4693.72 423.1C4693.73 429.05 4693.75 434.999 4693.77 440.948C4693.79 444.368 4693.8 447.787 4693.8 451.206C4693.84 467.163 4694.15 483.065 4695 499C4695.8 498.207 4696.61 497.413 4697.43 496.595C4698.82 495.222 4700.22 493.85 4701.61 492.481C4704.96 489.149 4708.07 485.656 4711.17 482.084C4714.27 478.554 4717.51 475.159 4720.75 471.75C4726.3 465.881 4731.8 459.973 4737.24 454.008C4742.78 447.957 4748.4 441.986 4754 436C4754.6 435.355 4755.21 434.71 4755.83 434.046C4759.56 430.058 4763.3 426.073 4767.04 422.09C4769.08 419.916 4771.12 417.739 4773.15 415.563C4779.65 408.633 4786.17 401.772 4792.93 395.102C4794.77 393.23 4796.49 391.317 4798.19 389.313C4802.31 384.479 4806.87 380.076 4811.41 375.63C4814.54 372.536 4817.56 369.404 4820.44 366.063C4824.91 360.879 4829.8 356.148 4834.68 351.356C4838.06 348.017 4841.34 344.665 4844.44 341.063C4849.29 335.417 4854.67 330.287 4859.97 325.067C4864.24 320.835 4868.33 316.54 4872.24 311.979C4876.17 307.559 4880.47 303.494 4884.68 299.356C4888.73 295.355 4892.56 291.263 4896.27 286.951C4899.2 283.65 4902.35 280.587 4905.5 277.5C4909.93 273.115 4914.24 268.722 4918.27 263.953C4921.02 260.852 4924 257.979 4926.95 255.068C4930.2 251.846 4933.22 248.506 4936.19 245.028C4939.17 241.687 4942.4 238.595 4945.58 235.449C4948.31 232.69 4950.84 229.808 4953.36 226.863C4955.51 224.417 4957.83 222.155 4960.16 219.871C4961.92 218.083 4963.56 216.242 4965.2 214.34C4969.14 209.803 4973.24 205.428 4977.38 201.063C4978.1 200.296 4978.82 199.53 4979.57 198.74C4987.36 190.489 4993.46 191.109 5004.75 190.753C5009.23 190.628 5013.71 190.529 5018.19 190.438C5019.18 190.417 5020.18 190.396 5021.2 190.374C5076.13 189.256 5131.08 190.267 5186 191Z" fill="#FCFCFC"/>
<path d="M3118 191C3171.79 191 3225.58 191 3281 191C3280.98 210.392 3280.98 210.392 3280.97 230.177C3280.94 271.667 3280.91 313.157 3280.9 354.647C3280.9 361.104 3280.89 367.562 3280.89 374.02C3280.89 375.306 3280.89 376.591 3280.89 377.915C3280.88 398.658 3280.86 419.401 3280.85 440.144C3280.83 461.47 3280.82 482.796 3280.81 504.122C3280.81 517.253 3280.8 530.384 3280.78 543.515C3280.77 552.552 3280.77 561.589 3280.77 570.625C3280.77 575.819 3280.77 581.012 3280.76 586.205C3280.63 653.708 3280.58 730.637 3330.19 782.562C3336.26 788.504 3342.88 793.378 3350 798C3351.08 798.7 3352.16 799.4 3353.27 800.121C3385.48 819.701 3425.07 824.235 3462 824.188C3462.86 824.187 3463.73 824.186 3464.62 824.186C3477.51 824.161 3490.22 823.874 3503 822C3503.89 821.876 3504.79 821.753 3505.71 821.625C3533.36 817.71 3560.75 809.434 3583 792C3583.8 791.38 3583.8 791.38 3584.62 790.748C3597.49 780.726 3607.13 769.066 3615 754.807C3615.91 753.156 3616.85 751.52 3617.8 749.887C3640.08 708.839 3642.2 657.666 3642.12 611.891C3642.12 610.059 3642.12 608.226 3642.12 606.394C3642.13 601.423 3642.12 596.451 3642.12 591.48C3642.11 586.095 3642.11 580.71 3642.11 575.325C3642.11 566.017 3642.11 556.708 3642.11 547.399C3642.1 533.941 3642.09 520.482 3642.09 507.024C3642.09 485.183 3642.08 463.343 3642.08 441.503C3642.07 420.299 3642.06 399.094 3642.05 377.89C3642.05 376.581 3642.05 375.272 3642.05 373.923C3642.05 367.355 3642.05 360.788 3642.05 354.22C3642.04 299.813 3642.02 245.407 3642 191C3696.78 191 3751.56 191 3808 191C3808.02 239.816 3808.04 288.631 3808.05 337.447C3808.05 343.239 3808.05 349.032 3808.05 354.824C3808.06 355.977 3808.06 357.13 3808.06 358.318C3808.06 376.869 3808.07 395.419 3808.08 413.969C3808.09 433.072 3808.09 452.176 3808.09 471.279C3808.1 481.98 3808.1 492.68 3808.11 503.381C3808.16 580.776 3808.16 580.776 3807.58 610.69C3807.56 611.66 3807.54 612.631 3807.52 613.63C3805.76 703.311 3791.92 798.01 3729.13 866.648C3727.32 868.645 3725.6 870.681 3723.87 872.75C3713.91 884.109 3702.14 893.613 3690 902.529C3688.17 903.875 3686.36 905.241 3684.55 906.613C3675.39 913.473 3665.55 919.079 3655.54 924.601C3653.26 925.859 3650.99 927.133 3648.72 928.41C3618.56 945.153 3583.8 956.487 3550 963C3548.87 963.222 3547.73 963.445 3546.56 963.674C3538.07 965.313 3529.56 966.725 3521 968C3519.37 968.25 3519.37 968.25 3517.71 968.505C3480.88 973.909 3440.79 973.521 3404 968C3402.22 967.751 3402.22 967.751 3400.4 967.496C3319.16 955.996 3233.24 920.12 3182.5 852.842C3181.32 851.237 3180.16 849.618 3179 848C3178.15 846.854 3177.3 845.71 3176.45 844.566C3166.81 831.52 3158.93 817.648 3152 803C3151.7 802.381 3151.41 801.762 3151.1 801.125C3127.13 750.567 3120.84 690.585 3118.11 635.257C3118.04 633.748 3117.96 632.24 3117.88 630.731C3116.63 607.46 3116.87 584.163 3116.9 560.867C3116.91 555.865 3116.91 550.863 3116.91 545.861C3116.96 480.251 3117.21 414.64 3117.45 349.03C3117.49 336.954 3117.53 324.878 3117.57 312.802C3117.58 311.928 3117.58 311.053 3117.58 310.153C3117.61 303.304 3117.63 296.455 3117.65 289.606C3117.77 256.737 3117.88 223.869 3118 191Z" fill="#FDFDFD"/>
<path d="M3866 191C3919.79 191 3973.58 191 4029 191C4030.1 195.416 4030.14 199.485 4030.12 203.997C4030.12 204.921 4030.12 205.845 4030.12 206.797C4030.12 209.918 4030.12 213.038 4030.11 216.158C4030.11 218.409 4030.11 220.661 4030.11 222.912C4030.11 229.119 4030.11 235.325 4030.1 241.532C4030.1 247.535 4030.09 253.538 4030.09 259.541C4030.09 271.839 4030.08 284.137 4030.08 296.436C4030.06 313.294 4030.06 330.152 4030.05 347.01C4030.05 354.879 4030.05 362.748 4030.05 370.617C4030.05 371.405 4030.05 372.193 4030.04 373.005C4030.04 391.782 4030.03 410.558 4030.02 429.335C4030.02 430.567 4030.02 430.567 4030.02 431.825C4030.01 446.785 4030 461.746 4030 476.706C4029.99 487.419 4029.98 498.131 4029.98 508.843C4029.98 509.655 4029.98 510.467 4029.98 511.304C4029.97 529.927 4029.96 548.551 4029.95 567.175C4029.95 568.358 4029.95 568.358 4029.95 569.564C4029.95 577.449 4029.95 585.334 4029.95 593.219C4029.94 610.02 4029.94 626.822 4029.92 643.623C4029.91 655.923 4029.91 668.224 4029.91 680.524C4029.9 687.151 4029.9 693.777 4029.89 700.404C4029.89 702.274 4029.89 702.274 4029.89 704.181C4029.89 706.431 4029.89 708.682 4029.88 710.932C4029.85 745.637 4030.46 780.289 4031 815C4175.87 815 4320.74 815 4470 815C4470 862.52 4470 910.04 4470 959C4396.18 960.154 4396.17 960.154 4367.62 960.131C4363.15 960.128 4358.69 960.132 4354.23 960.135C4345.56 960.139 4336.9 960.138 4328.24 960.135C4321.12 960.133 4314 960.133 4306.87 960.134C4305.84 960.134 4304.8 960.134 4303.73 960.134C4301.62 960.135 4299.51 960.135 4297.4 960.135C4277.79 960.138 4258.17 960.135 4238.55 960.129C4222.1 960.125 4205.65 960.126 4189.21 960.13C4169.76 960.136 4150.32 960.138 4130.88 960.135C4128.75 960.134 4126.63 960.134 4124.5 960.134C4123.46 960.134 4122.41 960.134 4121.34 960.133C4114.36 960.133 4107.38 960.134 4100.39 960.136C4021.93 960.161 3943.46 959.583 3865 959C3864.98 894.866 3864.97 830.731 3864.96 766.597C3864.96 765.643 3864.96 764.689 3864.96 763.706C3864.95 742.952 3864.95 722.198 3864.95 701.444C3864.95 691.261 3864.95 681.078 3864.95 670.896C3864.94 669.883 3864.94 668.87 3864.94 667.826C3864.94 635.182 3864.93 602.539 3864.92 569.895C3864.91 536.257 3864.91 502.619 3864.91 468.981C3864.91 464.194 3864.91 459.407 3864.91 454.619C3864.91 453.678 3864.91 452.736 3864.9 451.765C3864.9 437.722 3864.9 423.678 3864.89 409.635C3864.89 388.524 3864.88 367.414 3864.89 346.303C3864.89 345.479 3864.89 344.655 3864.89 343.805C3864.9 278.444 3864.9 278.444 3865.23 245.772C3865.24 244.799 3865.25 243.825 3865.26 242.823C3865.44 225.547 3865.73 208.274 3866 191Z" fill="#FCFCFC"/>
<path d="M1591 190C1614.81 189.498 1638.62 189.153 1662.43 188.992C1673.49 188.913 1684.54 188.785 1695.6 188.536C1705.25 188.318 1714.89 188.198 1724.54 188.19C1729.64 188.183 1734.73 188.129 1739.84 187.96C1771.74 186.946 1771.74 186.946 1779.46 193.667C1785.39 199.768 1789.14 207.197 1792.57 214.908C1794.39 218.853 1796.62 222.049 1799.25 225.5C1800.01 226.54 1800.76 227.58 1801.54 228.652C1802.36 229.768 1803.18 230.884 1804 232C1805.05 233.438 1806.1 234.877 1807.15 236.316C1814.7 246.646 1822.42 256.845 1830.2 267.011C1833.49 271.322 1836.75 275.654 1840 280C1845.38 287.203 1850.83 294.355 1856.29 301.504C1860.4 306.894 1864.49 312.303 1868.54 317.734C1871.94 322.261 1875.38 326.752 1878.81 331.25C1884.05 338.112 1889.26 344.993 1894.43 351.908C1898.54 357.404 1902.71 362.859 1906.88 368.312C1912.57 375.761 1918.17 383.269 1923.71 390.833C1928.09 396.799 1932.56 402.688 1937.06 408.562C1942.52 415.685 1947.84 422.883 1953.06 430.183C1957.32 436.125 1961.74 441.946 1966.19 447.75C1970.99 454.018 1975.73 460.313 1980.28 466.766C1985.47 474.108 1990.84 481.316 1996.19 488.544C1999.13 492.526 2002.06 496.513 2005 500.5C2008.51 505.264 2012.02 510.026 2015.54 514.785C2024.01 526.261 2032.39 537.803 2040.72 549.39C2041.87 550.997 2043.03 552.602 2044.18 554.208C2045.29 555.755 2046.41 557.304 2047.51 558.854C2050.84 563.485 2054.29 567.939 2058.12 572.176C2059 574 2059 574 2058.26 576.308C2056.97 579.063 2055.51 581.398 2053.76 583.886C2053.11 584.816 2052.46 585.745 2051.8 586.702C2051.1 587.687 2050.4 588.672 2049.69 589.687C2048.97 590.712 2048.25 591.736 2047.51 592.791C2041.6 601.196 2035.61 609.537 2029.56 617.843C2027.99 620.014 2026.43 622.193 2024.87 624.375C2018.4 633.406 2011.77 642.291 2005.02 651.106C2000.57 656.917 1996.2 662.779 1991.88 668.687C1986.67 675.794 1981.33 682.778 1975.91 689.712C1971.91 694.816 1968 699.967 1964.12 705.164C1961.45 708.735 1958.73 712.27 1956 715.803C1952.55 720.277 1949.12 724.761 1945.69 729.25C1945.14 729.969 1944.59 730.688 1944.02 731.429C1942.9 732.895 1941.78 734.362 1940.66 735.828C1939.06 737.927 1937.45 740.026 1935.84 742.125C1929.27 750.713 1922.71 759.309 1916.16 767.914C1912.74 772.405 1909.32 776.892 1905.88 781.371C1898.51 790.992 1891.27 800.687 1884.21 810.539C1880.85 815.224 1877.43 819.863 1874 824.5C1869.38 830.748 1864.8 837.014 1860.25 843.312C1859.71 844.063 1859.17 844.814 1858.61 845.588C1856.23 848.882 1853.87 852.181 1851.53 855.5C1845.94 863.416 1840.13 871.14 1834.24 878.832C1828.95 885.747 1823.72 892.708 1818.51 899.688C1814.94 904.452 1811.32 909.162 1807.63 913.834C1802.26 920.651 1797.13 927.566 1792.25 934.75C1791.71 935.537 1791.17 936.325 1790.62 937.136C1788.12 940.811 1785.67 944.504 1783.32 948.273C1782.48 949.557 1781.65 950.841 1780.81 952.125C1780.12 953.241 1779.42 954.357 1778.71 955.508C1774.67 959.224 1771.34 958.914 1766 959C1764.66 959.048 1763.32 959.1 1761.98 959.153C1757.94 959.305 1753.91 959.41 1749.87 959.502C1747.42 959.56 1744.97 959.626 1742.51 959.693C1708.27 960.563 1673.99 959.931 1639.75 959.536C1634.33 959.474 1628.92 959.415 1623.51 959.355C1613.01 959.239 1602.5 959.12 1592 959C1592.88 955.011 1594.65 951.842 1596.75 948.375C1597.14 947.725 1597.53 947.074 1597.94 946.404C1602.69 938.673 1608.08 931.405 1613.46 924.104C1615.65 921.113 1617.79 918.088 1619.94 915.062C1628.49 903.056 1637.24 891.195 1646.26 879.543C1655.82 867.204 1665.22 854.743 1674.56 842.244C1678.54 836.923 1682.57 831.64 1686.62 826.375C1691.61 819.891 1696.43 813.303 1701.2 806.657C1704.72 801.749 1708.3 796.887 1711.94 792.062C1718.09 783.895 1724.16 775.663 1730.22 767.423C1733.14 763.447 1736.07 759.473 1739 755.5C1740.17 753.916 1741.33 752.333 1742.5 750.75C1833.5 627.25 1833.5 627.25 1835.25 624.874C1836.42 623.292 1837.58 621.71 1838.75 620.127C1842.26 615.355 1845.78 610.587 1849.3 605.821C1851.04 603.464 1852.77 601.101 1854.5 598.738C1856.91 595.455 1859.36 592.211 1861.84 588.98C1863.06 587.362 1864.28 585.743 1865.5 584.125C1866.08 583.382 1866.67 582.638 1867.27 581.873C1868.7 579.953 1869.97 578.161 1871 576C1870.37 571.722 1867.41 568.71 1864.75 565.375C1863.84 564.22 1862.94 563.064 1862.03 561.906C1861.54 561.281 1861.05 560.656 1860.55 560.011C1857.72 556.344 1854.99 552.608 1852.25 548.875C1851.66 548.069 1851.07 547.263 1850.46 546.433C1849.24 544.779 1848.03 543.125 1846.81 541.471C1843.88 537.477 1840.94 533.488 1838 529.5C1834.47 524.716 1830.95 519.932 1827.43 515.144C1821.98 507.74 1816.53 500.345 1811 493C1804.87 484.85 1798.82 476.639 1792.78 468.423C1789.27 463.654 1785.76 458.889 1782.25 454.123C1779.34 450.179 1776.44 446.233 1773.54 442.285C1767.56 434.16 1761.56 426.06 1755.5 418C1748.86 409.16 1742.28 400.27 1735.73 391.359C1732.83 387.403 1729.91 383.452 1727 379.5C1723.47 374.716 1719.95 369.932 1716.43 365.144C1709.49 355.702 1702.5 346.295 1695.45 336.929C1694.01 335.018 1692.58 333.103 1691.15 331.187C1684.72 322.591 1678.23 314.042 1671.72 305.508C1667.52 299.997 1663.33 294.474 1659.18 288.922C1657.55 286.742 1655.92 284.565 1654.29 282.39C1647.03 272.748 1639.84 263.061 1632.71 253.327C1631.12 251.163 1629.52 249.005 1627.93 246.847C1620.88 237.271 1614.22 227.455 1607.62 217.562C1607.2 216.922 1606.77 216.281 1606.33 215.622C1603.54 211.425 1600.76 207.217 1598 203C1597.29 201.915 1596.58 200.831 1595.84 199.714C1595.2 198.724 1594.56 197.734 1593.9 196.715C1593.05 195.415 1593.05 195.415 1592.19 194.089C1591 192 1591 192 1591 190Z" fill="#F9A733"/>
<path d="M921 189C917.472 220.882 902.51 253.708 892.332 283.914C883.787 309.291 875.687 334.792 867.738 360.361C867.523 361.053 867.308 361.745 867.086 362.458C866.647 363.871 866.208 365.284 865.769 366.697C860.547 383.494 855.25 400.267 849.946 417.039C848.677 421.053 847.408 425.067 846.139 429.081C845.63 430.693 845.121 432.304 844.611 433.916C844.233 435.113 844.233 435.113 843.847 436.335C843.082 438.754 842.317 441.174 841.552 443.594C836.15 460.685 830.761 477.779 825.375 494.875C824.896 496.396 824.417 497.916 823.938 499.437C818.79 515.777 813.646 532.12 808.512 548.465C808.287 549.181 808.062 549.898 807.83 550.636C806.014 556.416 804.198 562.197 802.382 567.978C795.699 589.256 788.997 610.528 782.277 631.795C780.509 637.388 778.743 642.981 776.977 648.575C776.728 649.363 776.479 650.151 776.222 650.963C775.22 654.14 774.217 657.316 773.214 660.492C770.503 669.077 767.792 677.661 765.075 686.244C753.418 723.072 742 759.95 731.066 797.001C710.834 865.558 710.834 865.558 700.695 896.852C699.985 899.045 699.278 901.239 698.572 903.434C686.86 939.733 686.86 939.733 680 954C679.622 954.856 679.245 955.712 678.856 956.595C677 959 677 959 674.029 959.595C672.19 959.573 672.19 959.573 670.313 959.552C669.63 959.551 668.947 959.55 668.243 959.549C665.946 959.541 663.652 959.497 661.355 959.453C659.71 959.441 658.065 959.431 656.419 959.423C652.871 959.403 649.323 959.367 645.775 959.32C637.269 959.208 628.762 959.172 620.256 959.126C617.28 959.109 614.304 959.089 611.328 959.069C590.092 958.936 568.863 959.178 547.629 959.462C543.792 959.513 539.956 959.561 536.12 959.61C526.413 959.733 516.707 959.864 507 960C507.14 957.957 507.285 955.914 507.432 953.871C507.512 952.733 507.592 951.596 507.674 950.424C508.174 945.172 509.276 940.124 510.5 935C510.767 933.875 511.034 932.749 511.31 931.589C517.268 907.167 525.828 883.514 534.177 859.831C543.949 832.014 552.322 803.764 560.751 775.519C563.374 766.733 566.007 757.95 568.641 749.168C568.908 748.276 569.176 747.383 569.452 746.464C586 691.295 603.063 636.286 620.273 581.321C621.226 578.279 622.177 575.237 623.129 572.195C640.008 518.246 657.182 464.393 674.493 410.581C677.021 402.722 679.547 394.861 682.072 387.001C683.287 383.219 684.503 379.437 685.721 375.655C692.579 354.351 699.145 332.966 705.578 311.531C712.134 289.688 718.779 267.878 725.625 246.125C725.985 244.976 726.344 243.828 726.715 242.644C730.548 230.414 734.532 218.253 738.836 206.18C739.208 205.13 739.58 204.08 739.963 202.998C740.316 202.021 740.669 201.045 741.033 200.039C741.341 199.184 741.649 198.329 741.966 197.448C743.148 194.65 744.128 192.414 746 190C748.955 189.369 748.955 189.369 752.647 189.361C753.326 189.352 754.005 189.344 754.704 189.336C756.984 189.314 759.263 189.327 761.544 189.341C763.176 189.332 764.809 189.322 766.442 189.309C770.882 189.281 775.322 189.283 779.763 189.291C784.41 189.294 789.058 189.269 793.705 189.247C802.518 189.21 811.33 189.198 820.143 189.195C830.141 189.19 840.139 189.157 850.138 189.122C873.758 189.039 897.379 188.998 921 189Z" fill="#FAA733"/>
<path d="M88 189C88.7262 189.03 89.4524 189.06 90.2006 189.09C110.317 189.892 130.393 190.139 150.523 190.101C154.535 190.095 158.547 190.095 162.559 190.093C170.101 190.09 177.644 190.082 185.186 190.072C193.796 190.061 202.406 190.055 211.016 190.05C228.678 190.04 246.339 190.022 264 190C281.097 242.266 281.097 242.266 287.875 263.562C289.207 267.74 290.541 271.917 291.875 276.094C292.211 277.145 292.546 278.196 292.892 279.279C295.375 287.055 297.872 294.825 300.375 302.594C308.698 328.427 316.957 354.279 325.113 380.166C329.019 392.563 332.935 404.957 336.875 417.344C337.079 417.987 337.284 418.629 337.495 419.292C338.326 421.905 339.158 424.519 339.989 427.133C350.33 459.641 360.539 492.19 370.68 524.762C371.796 528.345 372.912 531.928 374.028 535.511C381.035 558.002 388.025 580.499 395 603C395.252 603.812 395.503 604.624 395.763 605.46C406.087 638.769 416.395 672.082 426.527 705.449C426.796 706.333 427.064 707.216 427.34 708.126C429.919 716.619 432.494 725.112 435.062 733.607C443.851 762.679 452.769 791.707 462.438 820.5C463.077 822.416 463.717 824.332 464.357 826.248C467.248 834.892 470.166 843.526 473.168 852.133C498.996 926.208 498.996 926.208 503 959C486.827 959.133 470.655 959.263 454.482 959.391C446.967 959.451 439.452 959.511 431.937 959.573C397.291 959.857 362.648 960.09 328 960C325.773 954.247 323.864 948.47 322.119 942.555C321.846 941.639 321.573 940.722 321.292 939.778C320.699 937.787 320.108 935.796 319.518 933.804C318.565 930.589 317.609 927.375 316.652 924.162C315.275 919.539 313.9 914.917 312.526 910.294C301.703 873.895 290.8 837.523 279.562 801.25C279.306 800.421 279.049 799.591 278.784 798.737C276.539 791.492 274.291 784.248 272.04 777.006C269.176 767.794 266.325 758.579 263.488 749.359C252.582 713.919 241.441 678.554 230.272 643.195C227.743 635.188 225.218 627.18 222.692 619.171C210.99 582.064 199.234 544.973 187.426 507.899C171.947 459.301 156.556 410.675 141.218 362.032C139.539 356.709 137.859 351.386 136.179 346.064C124.25 308.282 112.477 270.455 100.854 232.579C100.607 231.777 100.361 230.974 100.108 230.148C98.9589 226.405 97.8108 222.662 96.664 218.918C96.2499 217.567 95.8358 216.217 95.4216 214.866C95.2243 214.221 95.027 213.577 94.8236 212.912C93.7582 209.44 92.6779 205.973 91.5804 202.51C91.3478 201.775 91.1153 201.039 90.8757 200.281C90.428 198.867 89.9778 197.454 89.525 196.042C88 191.222 88 191.222 88 189Z" fill="#FCFCFC"/>
<path d="M2125 664C2129.03 665.549 2131.33 668.376 2134 671.625C2134.72 672.487 2134.72 672.487 2135.45 673.367C2140.64 679.666 2145.5 686.208 2150.35 692.771C2152.1 695.133 2153.87 697.484 2155.64 699.832C2163.35 710.063 2170.94 720.375 2178.41 730.787C2180.01 733.016 2181.63 735.237 2183.24 737.457C2189.36 745.867 2195.34 754.356 2201.19 762.958C2205.27 768.954 2209.43 774.888 2213.63 780.802C2216.47 784.812 2219.27 788.846 2222.04 792.911C2232.33 808.034 2243.38 822.611 2254.54 837.101C2255.88 838.838 2257.21 840.577 2258.54 842.316C2262.08 846.925 2265.63 851.525 2269.2 856.102C2275.98 864.774 2282.67 873.502 2289.25 882.324C2292.49 886.661 2295.74 890.98 2299.05 895.266C2307.24 905.892 2315.09 916.659 2322.54 927.816C2323.94 929.916 2325.36 932.008 2326.78 934.098C2341 955.092 2341 955.092 2341 959C2317.24 959.599 2293.47 960.081 2269.7 960.427C2258.66 960.591 2247.63 960.791 2236.59 961.082C2226.97 961.334 2217.35 961.516 2207.73 961.613C2202.63 961.667 2197.54 961.755 2192.45 961.929C2161.46 962.957 2161.46 962.957 2154.05 958.039C2149.55 953.43 2146.98 948.324 2144.86 942.294C2143.74 939.314 2142.09 936.976 2140.12 934.488C2139.6 933.783 2139.08 933.078 2138.54 932.352C2138.03 931.679 2137.52 931.006 2137 930.312C2136.42 929.539 2135.85 928.765 2135.25 927.968C2133.51 925.639 2131.76 923.318 2130 921C2129.46 920.293 2128.93 919.586 2128.38 918.858C2125.18 914.649 2121.96 910.455 2118.74 906.265C2114.86 901.215 2111.01 896.147 2107.16 891.083C2103.75 886.606 2100.34 882.132 2096.92 877.664C2089.9 868.491 2082.97 859.271 2076.15 849.953C2071.63 843.801 2066.96 837.777 2062.25 831.771C2057.45 825.627 2052.81 819.37 2048.21 813.077C2042.26 804.958 2036.14 796.971 2030 789C2035.75 779.385 2042.43 770.502 2049.12 761.53C2051.58 758.215 2054.03 754.884 2056.47 751.553C2061.65 744.489 2066.89 737.477 2072.26 730.551C2075.09 726.894 2077.89 723.212 2080.68 719.53C2111.81 678.586 2111.81 678.586 2125 664Z" fill="#FCFCFC"/>
<path d="M2161.97 190.871C2163.05 190.875 2163.05 190.875 2164.14 190.88C2164.9 190.879 2165.66 190.878 2166.44 190.877C2168.99 190.876 2171.54 190.881 2174.1 190.887C2175.92 190.887 2177.74 190.887 2179.56 190.886C2184.53 190.886 2189.49 190.892 2194.46 190.899C2199.64 190.905 2204.82 190.906 2210.01 190.907C2219.83 190.91 2229.65 190.918 2239.47 190.928C2250.65 190.939 2261.82 190.945 2273 190.95C2296 190.96 2319 190.978 2342 191C2340.34 195.375 2338.12 199.082 2335.5 202.938C2335.06 203.597 2334.61 204.256 2334.15 204.935C2330 211.068 2325.71 217.105 2321.37 223.108C2319.92 225.114 2318.48 227.127 2317.04 229.141C2310.53 238.251 2303.83 247.21 2297.02 256.101C2291.94 262.74 2286.95 269.443 2282.01 276.185C2278.35 281.171 2274.66 286.126 2270.94 291.063C2266.21 297.341 2261.59 303.693 2257 310.074C2248.32 322.134 2239.47 334.073 2230.53 345.949C2226.7 351.049 2222.91 356.175 2219.12 361.313C2218.54 362.109 2217.95 362.906 2217.35 363.727C2214.41 367.712 2211.49 371.7 2208.56 375.692C2201.79 384.92 2194.93 394.064 2187.97 403.153C2182.98 409.685 2178.07 416.272 2173.22 422.906C2170.61 426.464 2168 430.01 2165.33 433.519C2158.44 442.59 2151.89 451.836 2145.54 461.294C2144.04 463.53 2142.54 465.761 2141.03 467.992C2140.05 469.443 2139.07 470.893 2138.1 472.344C2137.66 472.996 2137.22 473.648 2136.77 474.32C2133.75 478.822 2130.85 483.389 2128 488C2124.34 486.304 2122.52 484.503 2120 481.313C2118.82 479.828 2118.82 479.828 2117.61 478.313C2117.19 477.776 2116.77 477.24 2116.33 476.688C2114.96 474.948 2113.57 473.223 2112.17 471.5C2104.88 462.502 2097.88 453.31 2091 444C2090.45 443.258 2089.9 442.515 2089.34 441.75C2085.81 436.981 2082.3 432.205 2078.79 427.428C2077.01 425.018 2075.24 422.61 2073.46 420.203C2065.57 409.521 2057.76 398.779 2050 388C2047.69 384.791 2045.38 381.583 2043.06 378.375C2042.28 377.292 2042.28 377.292 2041.49 376.187C2040.99 375.494 2040.49 374.801 2039.97 374.086C2039.49 373.41 2039.01 372.735 2038.51 372.038C2037.46 370.617 2036.36 369.232 2035.22 367.876C2033.64 365.968 2032.22 364.154 2031 362C2031.3 359.477 2031.3 359.477 2033 357C2033.36 356.449 2033.72 355.899 2034.09 355.331C2035.43 353.31 2036.83 351.343 2038.25 349.375C2038.78 348.637 2039.3 347.9 2039.85 347.139C2041.56 344.754 2043.28 342.376 2045 340C2045.86 338.809 2045.86 338.809 2046.74 337.594C2053.67 328.033 2060.77 318.653 2068.2 309.477C2070.86 306.193 2073.44 302.858 2076 299.5C2079.54 294.863 2083.15 290.293 2086.81 285.75C2091.69 279.687 2096.44 273.531 2101.15 267.333C2104.67 262.703 2108.27 258.147 2111.94 253.625C2126.67 235.356 2140.17 216.001 2153.07 196.403C2156.7 190.887 2156.7 190.887 2161.97 190.871Z" fill="#FCFCFC"/>
<path d="M746 190C801.11 190 856.22 190 913 190C913 190.33 913 190.66 913 191C912.158 191.002 911.315 191.005 910.447 191.007C889.967 191.066 869.487 191.142 849.007 191.236C839.103 191.281 829.199 191.32 819.295 191.346C810.664 191.369 802.034 191.403 793.404 191.449C788.832 191.473 784.261 191.491 779.689 191.498C775.389 191.504 771.089 191.524 766.789 191.554C765.209 191.563 763.628 191.567 762.047 191.565C759.893 191.563 757.741 191.58 755.587 191.601C754.38 191.606 753.174 191.61 751.93 191.615C748.709 192.038 747.998 192.571 746 195C745.34 195 744.68 195 744 195C744.66 193.35 745.32 191.7 746 190Z" fill="#A87022"/>
<path d="M996 272C996.66 272.33 997.32 272.66 998 273C989.42 281.58 980.84 290.16 972 299C971.34 298.67 970.68 298.34 970 298C978.016 289.275 985.987 280.711 995 273C995.33 272.67 995.66 272.34 996 272Z" fill="#A7A7A7"/>
<path d="M746 190C748.64 190 751.28 190 754 190C754 190.33 754 190.66 754 191C752.639 191.433 752.639 191.433 751.25 191.875C748.678 192.765 746.387 193.715 744 195C744.66 193.35 745.32 191.7 746 190Z" fill="#C48629"/>
<path d="M88 189C91.96 189.33 95.92 189.66 100 190C100 190.33 100 190.66 100 191C96.7 191 93.4 191 90 191C89.67 191.99 89.34 192.98 89 194C88.67 192.35 88.34 190.7 88 189Z" fill="#A2A2A2"/>
</svg>
