<svg width="6453" height="1400" viewBox="0 0 6453 1400" fill="none" xmlns="http://www.w3.org/2000/svg">
<path d="M1474.12 222.039C1474.94 221.911 1475.75 221.803 1476.57 221.714C1748.21 191.336 1995.98 320.319 2020.91 614.089C2046.65 917.413 1923.35 1125.86 1604.55 1159.24C1601.76 1159.53 1598.96 1159.78 1596.16 1160C1308.62 1182.41 1079.9 1053.68 1057.11 747.231C1035.34 454.539 1170.95 245.082 1474.12 222.039Z" fill="black"/>
<path d="M1484.16 417.493C1552 408.456 1684.68 419.054 1741.54 461.539C1850.63 543.055 1852.66 776.801 1778.44 881.01C1737.1 939.072 1662.87 955.251 1595.09 964.243C1512.31 969.632 1399.68 968.175 1332.94 913.954C1283.91 874.133 1258.74 814.087 1253.76 752.229C1246.75 665.057 1247.7 563.922 1305.24 492.715C1352.86 433.776 1412.58 425.01 1484.16 417.493Z" fill="white"/>
<path d="M2883.73 229.499C3054.47 232.446 3237.02 221.915 3405.44 236.394C3575.81 251.046 3638.95 429.226 3593.42 575.104C3583.75 606.049 3570.83 629.719 3554.82 658.508C3694.88 718.95 3715.26 931.413 3636.81 1047.44C3546.44 1173.52 3386.91 1150.01 3249.56 1150.01L2883.75 1149.84L2883.73 229.499Z" fill="black"/>
<path d="M3081.1 768.981L3286.24 768.761C3322.98 768.739 3364.95 766.361 3401.03 770.668C3492.59 781.6 3501.54 872.392 3460.45 937.893C3419.78 976.755 3333.28 966.618 3279.47 966.536L3080.47 966.173L3081.1 768.981Z" fill="white"/>
<path d="M3081.01 400.687C3144.25 401.242 3324.68 388.673 3370.53 416.604C3388.36 427.47 3400.3 444.878 3405.15 465.109C3414.42 503.461 3407.23 540.015 3386.72 573.123C3363.22 596.516 3327.61 597.267 3296.51 597.112C3224.61 596.753 3152.71 596.662 3080.8 596.586L3081.01 400.687Z" fill="white"/>
<path d="M5435.2 229.666L5630.21 229.788C5630.18 352.122 5628.35 479.674 5631.44 601.603C5644.96 588.738 5657.5 574.804 5670.13 561.079C5772.85 449.583 5880.52 342.729 5982.95 231.007C6056.15 227.434 6146.64 230.006 6221.69 229.64L5996.37 465.481C5947.32 517.247 5898.45 571.118 5847.34 620.755C5877.46 654.774 5910.45 698.007 5939.41 733.887L6115.95 952.864C6161.2 1012.52 6232.85 1090.8 6272.77 1149.91C6190.88 1149.14 6108.48 1151.31 6026.59 1149.36C6014.27 1136.4 6003.28 1123.23 5992.03 1109.38C5898.85 994.599 5810.03 875.341 5715.47 761.742C5694.55 783.079 5644.99 831.49 5631.22 854.388C5626.97 943.663 5630.24 1058.02 5630.24 1149.18C5566.63 1150.63 5499.39 1149.82 5435.49 1150.03L5435.2 229.666Z" fill="black"/>
<path d="M4370.21 229.82L4567.8 229.624C4566.73 284.859 4567.51 342.455 4567.48 397.868L4567.58 630.192C4567.58 776.347 4575.04 938.445 4462.02 1051.39C4276.06 1235.89 3846.78 1196.56 3766.43 918.577C3733.19 803.559 3741.54 666.955 3741.64 546.713L3741.95 229.778L3936.11 230.156L3936.05 608.609C3936.01 786.791 3905.8 987.889 4149.87 990.383C4405.87 993.004 4370.21 786.242 4370.17 594.896L4370.21 229.82Z" fill="black"/>
<path d="M4638.88 229.529C4703.88 229.941 4768.92 229.986 4833.92 229.665C4837.89 477.233 4829.26 732.162 4835.5 978.657C5009.05 981.173 5188.33 978.941 5362.35 978.597L5362.39 1149.21C5124.21 1152.8 4877.31 1149.89 4638.82 1149.58L4638.88 229.529Z" fill="black"/>
<path d="M1909.95 228.479C1981.36 230.93 2058.19 229.699 2130.05 229.599C2150.22 264.637 2211.96 343.356 2239.72 380.437C2317.58 482.729 2394.19 585.969 2469.53 690.134C2393.54 801.45 2299.61 913.595 2221.17 1024.71C2192.71 1065.03 2156.51 1106.94 2130.62 1148.33C2067.88 1152.08 1975.47 1149.16 1910.54 1149.05C1928.96 1115.4 2001.52 1022.97 2027.75 987.883L2247.4 689.797L2033.44 400.719C2002.48 358.999 1933.28 271.088 1909.95 228.479Z" fill="#FCA934"/>
<path d="M106.676 227.91C169.43 231.27 251.261 229.059 315.524 228.933C390.612 460.083 463.42 691.969 533.933 924.558C553.049 988.804 592.061 1086.86 602.487 1149.58L393.681 1150.34C303.992 843.8 200.403 534.201 106.676 227.91Z" fill="black"/>
<path d="M896.117 228.202C965.496 228.633 1034.88 228.546 1104.25 227.94C1091.08 280.403 1066.61 345.008 1050.39 398.272L895.944 888.533C878.916 941.27 834.199 1106.12 811.699 1149.81C744.008 1148.5 676.299 1148.66 608.615 1150.29C615.68 1095.23 641.655 1039.33 657.448 985.953C712.752 799.037 771.799 612.09 831.783 426.612C838.551 405.691 888.363 234.801 896.117 228.202Z" fill="#FEAC40"/>
<path d="M2550.27 796.947C2565.88 810.486 2640.5 915.707 2656.24 939.337C2701.36 1007.03 2768.35 1081.1 2808.55 1149.57L2704.24 1149.9L2588.25 1150.2C2577.22 1129.19 2547.49 1092.07 2531.99 1071.61L2436.89 945.842C2452.71 921.976 2532.43 816.354 2550.27 796.947Z" fill="black"/>
<path d="M2588.03 230.392C2659.99 228.67 2737.03 229.966 2809.37 229.93C2786.19 266.555 2753.04 308.649 2726.68 344.334C2683.31 403.654 2639.55 462.684 2595.39 521.415C2581.34 539.706 2565.09 564.957 2551.8 584.39C2522.2 551.199 2465.02 470.286 2437.68 432.638C2482.59 366.037 2544.27 299.664 2588.03 230.392Z" fill="black"/>
</svg>
