<svg id="mq1wql4j07p7iia9" viewBox="0 0 4817 1068" xmlns="http://www.w3.org/2000/svg" xmlns:xlink="http://www.w3.org/1999/xlink"><g id="mq1wql4j07p7iia9_translate"><g transform="matrix(1,0,0,1,0,0)"><g id="mq1wql4j07p7iia9" opacity="1" style="mix-blend-mode:normal"><g><defs><clipPath id="mq1wql4j07p7iia9_clipPath" x="-50%" y="-50%" width="200%" height="200%"><path id="mq1wql4j07p7iia9_fill_path" d="M0.01,0h4816.98c0.00552,0 0.01,0.00448 0.01,0.01v1067.98c0,0.00552 -0.00448,0.01 -0.01,0.01h-4816.98c-0.00552,0 -0.01,-0.00448 -0.01,-0.01v-1067.98c0,-0.00552 0.00448,-0.01 0.01,-0.01z" fill="white" clip-rule="nonzero"></path></clipPath></defs><g clip-path="url(#mq1wql4j07p7iia9_clipPath)"><g id="mq1wql4lradogp2s_translate"><g transform="matrix(1,0,0,1,1087,-301.9999)"><g id="mq1wql4lradogp2s" opacity="1" style="mix-blend-mode:normal"><g><g><path id="mq1wql4lradogp2s_fill_path" d="M393,1100h-182l-203,-543h181l118,395l112,-395h172zM613.938,828c0,-55.333 12,-104.333 36,-147c24.666,-42.667 58.333,-76 101,-100c43.333,-24.667 92.666,-37 148,-37c56.666,0 106.332,12.333 149.002,37c42.66,24 76,57.333 100,100c24,42.667 36,91.667 36,147c0,54.667 -12,103.667 -36,147c-24,42.67 -57.34,76.33 -100,101c-42.67,24.67 -92.336,37 -149.002,37c-55.334,0 -104.667,-12.33 -148,-37c-42.667,-24.67 -76.334,-58.33 -101,-101c-24,-43.333 -36,-92.333 -36,-147zM898.938,970c24,0 45.333,-5.333 64,-16c18.666,-11.333 33,-26.667 43.002,-46c10.66,-20 16,-43.667 16,-71c0,-26 -5.34,-49 -16,-69c-10.669,-20 -25.336,-35.667 -44.002,-47c-18.667,-12 -39.667,-18 -63,-18c-23.334,0 -44.334,6 -63,18c-18.667,11.333 -33.334,27 -44,47c-10,20 -15,43 -15,69c0,26.667 5,50 15,70c10.666,20 25.333,35.667 44,47c18.666,10.667 39.666,16 63,16zM1582.64,1100l-118,-164l-106,164h-168l192,-281l-186,-262h190l100,143l90,-143h177l-184,264l193,279zM1865.48,1100v-760h58v365h3c20,-37.333 46,-67 78,-89c32,-22 72.67,-33 122,-33c50,0 93.34,11.333 130,34c36.67,22.667 65,54.333 85,95c20,40 30,85.667 30,137c0,49.333 -11,94 -33,134c-22,39.33 -51.66,70.33 -89,93c-36.66,22.67 -78.33,34 -125,34c-44,0 -83.66,-10 -119,-30c-35.33,-20 -61.66,-48.67 -79,-86h-3v106zM2120.48,1055c36,0 68.34,-8.33 97,-25c29.34,-17.33 52.34,-41 69,-71c16.67,-30.667 25,-65.667 25,-105c0,-40 -8.33,-75.333 -25,-106c-16.66,-31.333 -39.66,-56 -69,-74c-28.66,-18 -61,-27 -97,-27c-36.66,0 -70,9 -100,27c-30,18 -53.66,42.667 -71,74c-16.66,30.667 -25,66 -25,106c0,38.667 8.34,73.333 25,104c17.34,30 41,53.67 71,71c30,17.33 63.34,26 100,26zM2935.85,594v506h-58v-93h-2c-12.67,31.33 -33.33,56.33 -62,75c-28,18.67 -62.67,28 -104,28c-47.33,0 -85.67,-9.67 -115,-29c-28.67,-19.33 -49.67,-45.33 -63,-78c-13.33,-33.333 -20,-70.667 -20,-112v-297h58v288c0,32.667 5,62 15,88c10,26 26,46.67 48,62c22,15.33 51,23 87,23c35.33,0 64.33,-8 87,-24c23.33,-16.67 41,-39 53,-67c12,-28 18,-59.333 18,-94v-276zM3124.27,1100v-760h58v760zM3663.37,1100l-235,-232v232h-58v-760h58v475l208,-221h82l-244,245l266,261z" fill-rule="nonzero" fill="white" fill-opacity="1" style="mix-blend-mode:normal"></path></g></g></g></g></g><g id="mq1wql4t6g777klw_translate"><g transform="matrix(1,0,0,1,261,162)"><g id="mq1wql4t6g777klw" opacity="1" style="mix-blend-mode:normal"><g><defs><clipPath id="mq1wql4t6g777klw_clipPath" x="-50%" y="-50%" width="200%" height="200%"><path id="mq1wql4t6g777klw_fill_path" d="M0.01,0h951.98c0.00552,0 0.01,0.00448 0.01,0.01v849.98c0,0.00552 -0.00448,0.01 -0.01,0.01h-951.98c-0.00552,0 -0.01,-0.00448 -0.01,-0.01v-849.98c0,-0.00552 0.00448,-0.01 0.01,-0.01z" fill="white" clip-rule="nonzero"></path></clipPath></defs><g clip-path="url(#mq1wql4t6g777klw_clipPath)"><g id="mq1wxhvr3djj0k91_translate"><g transform="matrix(1,0,0,1,692.7007,524.4963)"><g id="mq1wxhvr3djj0k91" opacity="1" style="mix-blend-mode:normal"><g><g><path id="mq1wxhvr3djj0k91_fill_path" d="M28.56122,0.7176c5.20812,3.34972 8.35774,5.63779 11.12041,11.20532c0.69686,7.2996 0.7734,14.61506 0.9267,21.94374c0.10034,2.02702 0.20069,4.05405 0.30407,6.1425c0.24869,14.64163 0.24869,14.64163 -3.98101,20.62652c-5.33922,4.78354 -8.9154,7.07655 -16.01546,8.36432c-7.8273,-1.54312 -12.54006,-4.11285 -17.60008,-10.36638c-3.68484,-8.10965 -3.36476,-15.48804 -3.25069,-24.30007c-0.0215,-1.6611 -0.043,-3.3222 -0.06516,-5.03364c0.05019,-11.29398 1.63741,-17.91138 9.44801,-26.36459c6.29443,-3.25695 12.27494,-3.48918 19.11321,-2.21772z" fill-rule="nonzero" fill="white" fill-opacity="1" style="mix-blend-mode:normal"></path></g></g></g></g></g><g id="mq1wxhvg69wswnw0_translate"><g transform="matrix(1,0,0,1,633,468)"><g id="mq1wxhvg69wswnw0" opacity="1" style="mix-blend-mode:normal"><g><g><path id="mq1wxhvg69wswnw0_fill_path" d="M28.46217,0.62816c6.50334,4.04052 10.13494,7.72463 12.81389,14.94765c0.35705,4.81805 0.51909,9.4333 0.50278,14.25018c0.01403,2.13869 0.01403,2.13869 0.02835,4.32058c0.02542,4.7068 0.02369,9.41308 0.01947,14.11994c0.00712,3.27635 0.01505,6.5527 0.02377,9.82904c0.01366,6.86535 0.01313,13.73052 0.00349,20.59587c-0.01061,8.79205 0.02039,17.58337 0.06287,26.3753c0.02698,6.76595 0.02857,13.53172 0.02286,20.29771c0.00094,3.24125 0.01052,6.48252 0.02894,9.72372c0.02262,4.53508 0.01021,9.06873 -0.01099,13.60379c0.02099,2.00237 0.02099,2.00237 0.0424,4.0452c-0.0846,8.1967 -1.47478,13.17683 -6.21561,19.78903c-0.7551,1.07903 -1.51021,2.15807 -2.28819,3.2698c-5.18444,3.77985 -9.74266,3.98318 -16.01736,4.20403c-8.44678,-3.40857 -12.10153,-8.86606 -16.475,-16.81611c-0.69497,-5.07732 -1.00505,-9.38501 -0.94746,-14.44359c-0.01283,-1.40211 -0.02566,-2.80422 -0.03888,-4.24882c-0.03208,-4.60842 -0.01094,-9.21468 0.01385,-13.82312c-0.00494,-3.22017 -0.01205,-6.44033 -0.02123,-9.66049c-0.01078,-6.73959 0.00484,-13.47844 0.0391,-20.21794c0.04169,-8.61595 0.01771,-17.23016 -0.02616,-25.84605c-0.02653,-6.64757 -0.018,-13.29473 0.00094,-19.94232c0.00487,-3.17557 -0.00105,-6.35118 -0.01816,-9.52671c-0.01871,-4.4494 0.00991,-8.89603 0.05053,-13.34523c-0.01482,-1.29814 -0.02964,-2.59628 -0.04491,-3.93375c0.16923,-10.06513 2.85503,-15.72777 8.31459,-23.83081c6.75863,-4.59904 12.28952,-5.01961 20.13611,-3.73691z" fill-rule="nonzero" fill="white" fill-opacity="1" style="mix-blend-mode:normal"></path></g></g></g></g></g><g id="mq1wxhva9ghpy55b_translate"><g transform="matrix(1,0,0,1,563,409)"><g id="mq1wxhva9ghpy55b" opacity="1" style="mix-blend-mode:normal"><g><g><path id="mq1wxhva9ghpy55b_fill_path" d="M27.89048,0.53293c5.58762,3.42609 10.19682,7.40995 13.15347,13.4619c0.19188,3.58425 0.26212,7.17556 0.27654,10.76516c0.01345,2.28916 0.02689,4.57833 0.04074,6.93686c0.00758,3.78691 0.00758,3.78691 0.01531,7.65031c0.01177,2.67542 0.02426,5.35084 0.03742,8.02625c0.03273,7.27945 0.05254,14.55889 0.06803,21.8384c0.00967,4.54682 0.02109,9.09363 0.03291,13.64045c0.0358,14.22258 0.06255,28.44514 0.07819,42.66776c0.01837,16.42392 0.06783,32.84734 0.14375,49.27108c0.05665,12.69032 0.0845,25.3805 0.09072,38.07095c0.00442,7.58148 0.02129,15.16242 0.06851,22.74375c0.04371,7.13339 0.05171,14.2659 0.03239,21.39939c-0.00138,3.86336 0.03452,7.72668 0.07153,11.58986c-0.01305,2.30543 -0.0261,4.61086 -0.03954,6.98616c0.00449,1.99996 0.00897,3.99992 0.0136,6.06048c-1.17228,6.85298 -3.79388,10.07693 -8.44638,15.05293c-4.19425,2.1463 -7.07808,2.55983 -11.74417,2.88469c-1.4049,0.13883 -2.80979,0.27765 -4.25726,0.42068c-6.42529,-1.90248 -9.29783,-5.0624 -13.50346,-10.29661c-5.06075,-9.43486 -3.96149,-20.10951 -3.83845,-30.60789c-0.00914,-2.63584 -0.02312,-5.27167 -0.04157,-7.90746c-0.03522,-7.12877 -0.00006,-14.2555 0.0501,-21.38412c0.04266,-7.47378 0.02707,-14.94746 0.01974,-22.42133c-0.00331,-12.54677 0.03823,-25.09274 0.10752,-37.6393c0.07958,-14.49118 0.09273,-28.98119 0.06929,-43.47255c-0.02142,-13.96191 -0.00015,-27.9234 0.04199,-41.88525c0.01742,-5.93249 0.02076,-11.86473 0.01283,-17.79724c-0.0071,-6.98853 0.02352,-13.97588 0.08291,-20.96414c0.02347,-3.77788 0.01031,-7.55593 -0.00402,-11.33386c0.24554,-20.85797 0.24554,-20.85797 8.57668,-29.91107c7.08175,-4.83187 10.39406,-4.86582 18.79067,-3.84626z" fill-rule="nonzero" fill="white" fill-opacity="1" style="mix-blend-mode:normal"></path></g></g></g></g></g><g id="mq1wxhvmp7yiz40j_translate"><g transform="matrix(1,0,0,1,494,468)"><g id="mq1wxhvmp7yiz40j" opacity="1" style="mix-blend-mode:normal"><g><g><path id="mq1wxhvmp7yiz40j_fill_path" d="M27.75697,0.47168c5.6464,3.31678 10.29617,7.21443 13.27793,13.09646c0.21584,4.80244 0.31832,9.55531 0.33575,14.35942c0.01246,1.48187 0.02493,2.96374 0.03777,4.49052c0.03746,4.91543 0.05956,9.83075 0.07847,14.74628c0.00773,1.67746 0.01546,3.35492 0.02343,5.08321c0.03958,8.87841 0.0667,17.75676 0.08448,26.63523c0.02099,9.17299 0.08624,18.34512 0.16156,27.51781c0.04958,7.05091 0.06548,14.10163 0.07229,21.15269c0.00924,3.38134 0.03131,6.76267 0.06646,10.14385c0.04616,4.73434 0.04446,9.46648 0.03127,14.20097c0.03645,2.09256 0.03645,2.09256 0.07363,4.22739c-0.09293,9.15979 -1.99669,13.75268 -8.55249,20.21291c-5.0918,3.80995 -7.5933,3.74174 -14.10781,3.62491c-7.95809,-2.06561 -10.98117,-5.00426 -16.24176,-11.1086c-0.62596,-0.6174 -1.25192,-1.23481 -1.89685,-1.87092c-0.23074,-4.72165 -0.33878,-9.39303 -0.36585,-14.11734c-0.01551,-1.47859 -0.03102,-2.95718 -0.047,-4.48058c-0.04725,-4.91659 -0.0785,-9.83308 -0.10582,-14.74982c-0.0101,-1.67684 -0.0202,-3.35368 -0.0306,-5.08133c-0.05076,-8.88054 -0.08749,-17.76104 -0.11481,-26.64169c-0.03154,-9.17096 -0.11643,-18.34065 -0.21315,-27.51113c-0.06388,-7.05099 -0.08575,-14.10168 -0.09647,-21.15292c-0.01274,-3.37984 -0.04162,-6.75966 -0.08705,-10.13922c-0.06005,-4.739 -0.06011,-9.4746 -0.04606,-14.21387c-0.04668,-2.08688 -0.04668,-2.08688 -0.0943,-4.21591c0.13005,-10.74397 3.22106,-15.08342 10.68534,-22.33739c5.97339,-2.94588 10.47077,-2.52199 17.07163,-1.87092z" fill-rule="nonzero" fill="white" fill-opacity="1" style="mix-blend-mode:normal"></path></g></g></g></g></g><g id="mq1wxhvwiusaex0f_translate"><g transform="matrix(1,0,0,1,439,525)"><g id="mq1wxhvwiusaex0f" opacity="1" style="mix-blend-mode:normal"><g><g><path id="mq1wxhvwiusaex0f_fill_path" d="M28.5996,1.00738c6.6389,4.84946 10.30217,7.82059 12.06906,16.04765c0.39262,5.63724 0.38687,11.13825 0.2363,16.78698c0.02728,1.91313 0.05455,3.82626 0.08266,5.79737c-0.09416,8.68622 -0.19913,15.59694 -5.57407,22.62512c-5.84457,5.1845 -8.56257,6.31856 -16.02139,6.7355c-6.33005,-0.77051 -10.02806,-3.7435 -14.71323,-7.95214c-5.16947,-8.53004 -4.42622,-17.22668 -4.48513,-26.97131c-0.06048,-1.75108 -0.12097,-3.50217 -0.18329,-5.30631c-0.06508,-8.51802 0.00496,-14.6026 5.40875,-21.38649c6.87701,-6.47456 13.92843,-8.96259 23.18035,-6.37637z" fill-rule="nonzero" fill="rgb(212, 169, 58)" fill-opacity="1" style="mix-blend-mode:normal"></path></g></g></g></g></g><g id="mq1xnin6qfoftt60_translate"><g transform="matrix(1,0,0,1,130,70)"><g id="mq1xnin6qfoftt60" opacity="1" style="mix-blend-mode:normal"><g><g><path id="mq1xnin6qfoftt60_fill_path" d="M328.2633,2.50798c7.31137,3.81844 12.6833,9.46717 15.3811,16.61034c0.08544,2.60436 0.1159,5.18731 0.09772,7.79127c-0.00212,1.14085 -0.00211,1.14085 -0.00427,2.30475c-0.0056,2.429 -0.01819,4.85792 -0.03091,7.28689c-0.00502,1.64689 -0.00958,3.29379 -0.01367,4.94068c-0.01103,4.03707 -0.02831,8.07409 -0.04886,12.11113c0.98031,-0.00326 1.96062,-0.00651 2.97064,-0.00986c23.90741,-0.07858 47.81481,-0.13652 71.72234,-0.17312c11.56174,-0.01817 23.12338,-0.04293 34.68506,-0.08345c10.08293,-0.03532 20.16577,-0.05802 30.24878,-0.06586c5.33365,-0.00458 10.66709,-0.01528 16.00067,-0.04111c5.03185,-0.02417 10.06339,-0.03133 15.0953,-0.02606c1.83557,-0.00096 3.67115,-0.00786 5.50665,-0.02153c26.54622,-0.18782 51.16271,7.418 70.48602,23.83619c17.56858,16.14134 27.77155,36.26085 27.63427,58.718c0.00256,1.55268 0.00257,1.5527 0.00519,3.13675c0.00271,2.84918 -0.00347,5.6982 -0.01355,8.54736c-0.00869,3.08144 -0.00573,6.16287 -0.00421,9.24432c0.00105,5.33087 -0.0052,10.66169 -0.01648,15.99255c-0.0163,7.7074 -0.02148,15.41479 -0.02399,23.12221c-0.00437,12.50649 -0.01761,25.01297 -0.03656,37.51945c-0.01838,12.14476 -0.03258,24.2895 -0.04108,36.43426c-0.00079,1.12398 -0.00078,1.124 -0.00159,2.27069c-0.00261,3.75935 -0.00514,7.5187 -0.00763,11.27804c-0.02072,31.15927 -0.05756,62.31849 -0.10065,93.47774c-21.78868,0 -43.57736,0 -66.0263,0c-0.02188,-10.87657 -0.02186,-10.87657 -0.04419,-21.97287c-0.04881,-23.21788 -0.11232,-46.4357 -0.18494,-69.65353c-0.01127,-3.60826 -0.02238,-7.21651 -0.03345,-10.82477c-0.00331,-1.07748 -0.00334,-1.07748 -0.00671,-2.17673c-0.03536,-11.62096 -0.06017,-23.24191 -0.08118,-34.8629c-0.02179,-11.93 -0.05494,-23.85995 -0.09845,-35.7899c-0.02648,-7.35755 -0.04421,-14.71502 -0.05066,-22.0726c-0.00527,-5.04984 -0.02159,-10.0996 -0.04639,-15.1494c-0.01397,-2.91064 -0.02152,-5.82109 -0.01929,-8.73176c0.00166,-3.16341 -0.01512,-6.32636 -0.03632,-9.4897c0.00485,-0.9096 0.00971,-1.81919 0.01471,-2.75635c-0.10048,-9.12331 -1.86346,-17.7018 -9.41711,-24.33841c-9.93384,-7.25076 -22.21062,-6.43664 -34.38443,-6.41077c-1.77843,-0.00267 -3.55684,-0.0061 -5.33527,-0.01023c-4.87447,-0.00907 -9.74887,-0.00715 -14.62335,-0.00337c-5.26192,0.00218 -10.52382,-0.00579 -15.78573,-0.0124c-10.30373,-0.01125 -20.60743,-0.01284 -30.91116,-0.01077c-8.37545,0.00157 -16.75092,0.00003 -25.12637,-0.00373c-1.19226,-0.00053 -2.3845,-0.00105 -3.61288,-0.00159c-2.42211,-0.00107 -4.84424,-0.00215 -7.26636,-0.00322c-22.71191,-0.0096 -45.42379,-0.00769 -68.1357,-0.0023c-20.774,0.00456 -41.54799,-0.00538 -62.32198,-0.02216c-21.33556,-0.01711 -42.67109,-0.02441 -64.00666,-0.02109c-11.97637,0.00169 -23.9527,-0.00051 -35.92906,-0.01299c-10.1953,-0.01052 -20.39055,-0.01177 -30.58586,-0.00108c-5.20037,0.0052 -10.40062,0.00616 -15.60098,-0.00442c-4.76394,-0.00958 -9.52768,-0.00685 -14.29161,0.00553c-1.71998,0.00234 -3.43997,0.00024 -5.15993,-0.00683c-17.3085,-0.06983 -17.3085,-0.06983 -32.38929,6.76284c-6.95524,6.16652 -8.91941,13.66852 -8.98981,22.17983c0.00446,0.66384 0.00893,1.32767 0.01353,2.01163c-0.00312,0.72799 -0.00625,1.45599 -0.00947,2.20604c-0.00792,2.41716 -0.00167,4.83412 0.00465,7.25128c-0.00271,1.74278 -0.00628,3.48557 -0.01063,5.22835c-0.0091,4.72195 -0.00559,9.44382 0.00076,14.16577c0.00508,4.9633 0.00036,9.92661 -0.00278,14.88991c-0.00364,8.34708 0.00115,16.69412 0.01069,25.0412c0.01084,9.60184 0.00738,19.20363 -0.00367,28.80546c-0.00914,8.27644 -0.01033,16.55287 -0.00513,24.82931c0.00309,4.92802 0.00363,9.85598 -0.00305,14.78399c-0.00586,4.64841 -0.00162,9.29676 0.0098,13.94516c0.0026,1.68864 0.00195,3.37728 -0.00253,5.06592c-0.03753,15.59287 0.38151,31.64001 4.4546,46.87771c0.32268,1.24523 0.32268,1.24524 0.65187,2.51562c8.00044,29.63425 24.74616,55.04527 48.18007,77.22503c0.72474,0.6977 1.44948,1.39542 2.19618,2.11426c37.40748,34.63826 89.20555,46.53527 141.59081,47.75451c8.42627,0.17344 16.85337,0.31261 25.2803,0.45892c0,19.23047 0,38.46093 0,58.27413c-13.64887,0.08195 -13.64885,0.08198 -27.57345,0.16559c-2.81974,0.02411 -5.63949,0.04821 -8.54468,0.07306c-19.67802,0.0983 -38.7438,-1.19091 -57.91929,-5.26038c-1.07309,-0.22443 -2.14618,-0.44882 -3.25178,-0.68005c-39.16609,-8.49319 -75.71711,-25.33973 -105.79164,-49.04058c-0.85499,-0.65786 -1.70998,-1.3157 -2.59087,-1.9935c-10.38781,-8.0819 -19.89316,-16.62128 -28.42147,-26.26065c-0.77761,-0.84793 -1.55523,-1.69586 -2.35641,-2.56949c-17.33098,-19.2357 -30.77041,-41.26925 -39.66032,-64.53405c-0.41323,-1.07941 -0.41323,-1.07942 -0.83481,-2.18063c-3.23937,-8.62709 -5.77268,-17.35199 -7.91868,-26.23907c-0.19884,-0.81642 -0.39767,-1.63284 -0.60253,-2.474c-3.32874,-14.46035 -3.94867,-28.63061 -3.9398,-43.33053c-0.006,-2.00612 -0.01281,-4.01222 -0.02036,-6.01834c-0.01754,-5.40518 -0.02235,-10.81032 -0.02363,-16.21551c-0.00143,-3.38521 -0.00574,-6.7704 -0.01102,-10.15561c-0.01751,-11.2241 -0.02685,-22.44816 -0.02534,-33.67227c0.00008,-0.6023 0.00016,-1.20461 0.00024,-1.82516c0.00008,-0.60305 0.00016,-1.2061 0.00024,-1.82742c0.00081,-9.7786 -0.01834,-19.55709 -0.04653,-29.33566c-0.02883,-10.08167 -0.04221,-20.16325 -0.04085,-30.24496c0.00051,-5.64381 -0.00506,-11.28749 -0.02635,-16.93127c-0.01947,-5.30728 -0.01947,-10.6143 -0.00498,-15.9216c0.00208,-1.93756 -0.00254,-3.87513 -0.01472,-5.81267c-0.06509,-11.08636 0.65781,-20.91818 4.50552,-31.52717c0.36779,-1.0166 0.73558,-2.03319 1.11452,-3.0806c7.80304,-20.51204 25.59907,-36.21499 46.8323,-46.33782c6.08093,-2.66704 12.55233,-4.58886 19.07986,-6.20689c0.62495,-0.15905 1.2499,-0.3181 1.89379,-0.48197c9.20033,-1.96996 18.67192,-1.51689 28.07175,-1.48439c2.02196,0.0005 4.04392,0.00022 6.06588,-0.00078c5.46632,-0.00051 10.93256,0.00985 16.39886,0.02221c5.7211,0.01107 11.44219,0.01208 17.16331,0.01417c10.82357,0.00548 21.64711,0.01996 32.47067,0.0377c12.32654,0.01976 24.6531,0.02945 36.97966,0.03831c25.34726,0.01844 50.69448,0.04949 76.04171,0.08887c-0.02619,-0.99689 -0.05239,-1.99378 -0.07938,-3.02089c-0.09124,-3.73522 -0.1482,-7.47036 -0.19537,-11.2062c-0.02499,-1.60995 -0.05903,-3.21981 -0.1026,-4.82945c-0.27717,-10.51017 -0.17517,-18.24526 7.69278,-26.69087c9.90466,-7.11538 22.13863,-10.47315 34.32617,-5.29765z" fill-rule="nonzero" fill="white" fill-opacity="1" style="mix-blend-mode:normal"></path></g></g></g></g></g><g id="mq1xninr62xqfoz6_translate"><g transform="matrix(1,0,0,1,494,262)"><g id="mq1xninr62xqfoz6" opacity="1" style="mix-blend-mode:normal"><g><g><path id="mq1xninr62xqfoz6_fill_path" d="M88.29053,10.54926c11.22185,8.65299 19.87049,20.7104 22,35c1.28023,18.75452 -1.84867,33.55717 -14.1875,48.1875c-9.13419,9.76255 -21.75004,16.49017 -35.21875,17.05078c-18.56894,0.40502 -32.49629,-3.86717 -46.26953,-16.75391c-11.78195,-12.59381 -14.84498,-26.76715 -14.60156,-43.38282c0.56193,-15.15825 8.399,-27.92449 19.27734,-38.10156c20.20442,-15.4487 48.05476,-17.23291 69,-2z" fill-rule="nonzero" fill="white" fill-opacity="1" style="mix-blend-mode:normal"></path></g></g></g></g></g><g id="mq1xninwiaqfzh2z_translate"><g transform="matrix(1,0,0,1,273,262)"><g id="mq1xninwiaqfzh2z" opacity="1" style="mix-blend-mode:normal"><g><g><path id="mq1xninwiaqfzh2z_fill_path" d="M88.29053,10.54926c11.22185,8.65299 19.87049,20.7104 22,35c1.28023,18.75452 -1.84867,33.55717 -14.1875,48.1875c-9.13419,9.76255 -21.75004,16.49017 -35.21875,17.05078c-18.56894,0.40502 -32.49629,-3.86717 -46.26953,-16.75391c-11.78195,-12.59381 -14.84498,-26.76715 -14.60156,-43.38282c0.56193,-15.15825 8.399,-27.92449 19.27734,-38.10156c20.20442,-15.4487 48.05476,-17.23291 69,-2z" fill-rule="nonzero" fill="white" fill-opacity="1" style="mix-blend-mode:normal"></path></g></g></g></g></g><g id="mqdpkgehwn2ndkjb_translate"><g transform="matrix(1,0,0,1,747,262)"><g id="mqdpkgehwn2ndkjb" opacity="1" style="mix-blend-mode:normal"><g><g><path id="mqdpkgehwn2ndkjb_fill_path" d="M0.01,0h22.49c12.42641,0 22.5,10.07359 22.5,22.5v1c0,12.42641 -10.07359,22.5 -22.5,22.5h-22.49c-0.00552,0 -0.01,-0.00448 -0.01,-0.01v-45.98c0,-0.00552 0.00448,-0.01 0.01,-0.01z" fill-rule="nonzero" fill="white" fill-opacity="1" style="mix-blend-mode:normal"></path></g></g></g></g></g><g id="mqdpkgem0qaig4cp_translate"><g transform="matrix(-0.9999999999984769,0.0000017453292519115186,-0.0000017453292519115186,-0.9999999999984769,131,331.002)"><g id="mqdpkgem0qaig4cp" opacity="1" style="mix-blend-mode:normal"><g><g><path id="mqdpkgem0qaig4cp_fill_path" d="M0.01,0h22.49c12.42641,0 22.5,10.07359 22.5,22.5v1c0,12.42641 -10.07359,22.5 -22.5,22.5h-22.49c-0.00552,0 -0.01,-0.00448 -0.01,-0.01v-45.98c0,-0.00552 0.00448,-0.01 0.01,-0.01z" fill-rule="nonzero" fill="white" fill-opacity="1" style="mix-blend-mode:normal"></path></g></g></g></g></g></g></g></g></g></g></g></g></g></g></g><animateTransform href="#mq1wxhvr3djj0k91" attributeName="transform" type="translate" values="20.5 34.5;20.5 34.5;20.5 34.5;20.5 34.5;20.5 34.5;20.5 34.5;20.5 34.5" dur="1.93s" repeatCount="indefinite" calcMode="spline" keyTimes="0;0.07;0.23;0.44;0.72;0.94;1" keySplines="0.5 0.35 0.15 1;0.5 0.35 0.15 1;0.5 0.35 0.15 1;0.5 0.35 0.15 1;0.5 0.35 0.15 1;0.5 0.35 0.15 1" additive="sum" fill="freeze"></animateTransform><animateTransform href="#mq1wxhvr3djj0k91" attributeName="transform" type="scale" values="0 0;0 0;1 1;0 0;1 1;0 0;0 0" dur="1.93s" repeatCount="indefinite" calcMode="spline" keyTimes="0;0.07;0.23;0.44;0.72;0.94;1" keySplines="0.5 0.35 0.15 1;0.5 0.35 0.15 1;0.5 0.35 0.15 1;0.5 0.35 0.15 1;0.5 0.35 0.15 1;0.5 0.35 0.15 1" additive="sum" fill="freeze"></animateTransform><animateTransform href="#mq1wxhvr3djj0k91" attributeName="transform" type="translate" values="-20.5 -34.5;-20.5 -34.5;-20.5 -34.5;-20.5 -34.5;-20.5 -34.5;-20.5 -34.5;-20.5 -34.5" dur="1.93s" repeatCount="indefinite" calcMode="spline" keyTimes="0;0.07;0.23;0.44;0.72;0.94;1" keySplines="0.5 0.35 0.15 1;0.5 0.35 0.15 1;0.5 0.35 0.15 1;0.5 0.35 0.15 1;0.5 0.35 0.15 1;0.5 0.35 0.15 1" additive="sum" fill="freeze"></animateTransform><animateTransform href="#mq1wxhvg69wswnw0" attributeName="transform" type="translate" values="21 90;21 90;21 90;21 90;21 90;21 90;21 90" dur="1.93s" repeatCount="indefinite" calcMode="spline" keyTimes="0;0.06;0.22;0.44;0.71;0.93;1" keySplines="0.5 0.35 0.15 1;0.5 0.35 0.15 1;0.5 0.35 0.15 1;0.5 0.35 0.15 1;0.5 0.35 0.15 1;0.5 0.35 0.15 1" additive="sum" fill="freeze"></animateTransform><animateTransform href="#mq1wxhvg69wswnw0" attributeName="transform" type="scale" values="0 0;0 0;1 1;0 0;1 1;0 0;0 0" dur="1.93s" repeatCount="indefinite" calcMode="spline" keyTimes="0;0.06;0.22;0.44;0.71;0.93;1" keySplines="0.5 0.35 0.15 1;0.5 0.35 0.15 1;0.5 0.35 0.15 1;0.5 0.35 0.15 1;0.5 0.35 0.15 1;0.5 0.35 0.15 1" additive="sum" fill="freeze"></animateTransform><animateTransform href="#mq1wxhvg69wswnw0" attributeName="transform" type="translate" values="-21 -90;-21 -90;-21 -90;-21 -90;-21 -90;-21 -90;-21 -90" dur="1.93s" repeatCount="indefinite" calcMode="spline" keyTimes="0;0.06;0.22;0.44;0.71;0.93;1" keySplines="0.5 0.35 0.15 1;0.5 0.35 0.15 1;0.5 0.35 0.15 1;0.5 0.35 0.15 1;0.5 0.35 0.15 1;0.5 0.35 0.15 1" additive="sum" fill="freeze"></animateTransform><animateTransform href="#mq1wxhva9ghpy55b" attributeName="transform" type="translate" values="21 150;21 150;21 150;21 150;21 150;21 150;21 150" dur="1.93s" repeatCount="indefinite" calcMode="spline" keyTimes="0;0.06;0.21;0.42;0.69;0.93;1" keySplines="0.5 0.35 0.15 1;0.5 0.35 0.15 1;0.5 0.35 0.15 1;0.5 0.35 0.15 1;0.5 0.35 0.15 1;0.5 0.35 0.15 1" additive="sum" fill="freeze"></animateTransform><animateTransform href="#mq1wxhva9ghpy55b" attributeName="transform" type="scale" values="0 0;0 0;1 1;0 0;1 1;0 0;0 0" dur="1.93s" repeatCount="indefinite" calcMode="spline" keyTimes="0;0.06;0.21;0.42;0.69;0.93;1" keySplines="0.5 0.35 0.15 1;0.5 0.35 0.15 1;0.5 0.35 0.15 1;0.5 0.35 0.15 1;0.5 0.35 0.15 1;0.5 0.35 0.15 1" additive="sum" fill="freeze"></animateTransform><animateTransform href="#mq1wxhva9ghpy55b" attributeName="transform" type="translate" values="-21 -150;-21 -150;-21 -150;-21 -150;-21 -150;-21 -150;-21 -150" dur="1.93s" repeatCount="indefinite" calcMode="spline" keyTimes="0;0.06;0.21;0.42;0.69;0.93;1" keySplines="0.5 0.35 0.15 1;0.5 0.35 0.15 1;0.5 0.35 0.15 1;0.5 0.35 0.15 1;0.5 0.35 0.15 1;0.5 0.35 0.15 1" additive="sum" fill="freeze"></animateTransform><animateTransform href="#mq1wxhvmp7yiz40j" attributeName="transform" type="translate" values="21 90;21 90;21 90;21 90;21 90;21 90;21 90" dur="1.93s" repeatCount="indefinite" calcMode="spline" keyTimes="0;0.05;0.2;0.41;0.69;0.91;1" keySplines="0.5 0.35 0.15 1;0.5 0.35 0.15 1;0.5 0.35 0.15 1;0.5 0.35 0.15 1;0.5 0.35 1 1;0.5 0.35 1 1" additive="sum" fill="freeze"></animateTransform><animateTransform href="#mq1wxhvmp7yiz40j" attributeName="transform" type="scale" values="0 0;0 0;1 1;0 0;1 1;0.0001 0.0001;0.0001 0.0001" dur="1.93s" repeatCount="indefinite" calcMode="spline" keyTimes="0;0.05;0.2;0.41;0.69;0.91;1" keySplines="0.5 0.35 0.15 1;0.5 0.35 0.15 1;0.5 0.35 0.15 1;0.5 0.35 0.15 1;0.5 0.35 1 1;0.5 0.35 1 1" additive="sum" fill="freeze"></animateTransform><animateTransform href="#mq1wxhvmp7yiz40j" attributeName="transform" type="translate" values="-21 -90;-21 -90;-21 -90;-21 -90;-21 -90;-21 -90;-21 -90" dur="1.93s" repeatCount="indefinite" calcMode="spline" keyTimes="0;0.05;0.2;0.41;0.69;0.91;1" keySplines="0.5 0.35 0.15 1;0.5 0.35 0.15 1;0.5 0.35 0.15 1;0.5 0.35 0.15 1;0.5 0.35 1 1;0.5 0.35 1 1" additive="sum" fill="freeze"></animateTransform></svg>