<svg width="6453" height="1400" viewBox="0 0 6453 1400" fill="none" xmlns="http://www.w3.org/2000/svg">
<path d="M605.427 216.937C616.142 221.912 621.211 228.302 626.97 238.48C628.05 245.983 628.05 245.983 628.054 254.434C628.073 256.786 628.073 256.786 628.092 259.185C628.123 264.442 628.093 269.696 628.064 274.952C628.074 278.757 628.087 282.562 628.105 286.367C628.141 296.826 628.123 307.284 628.096 317.743C628.077 329.021 628.107 340.299 628.13 351.578C628.169 373.673 628.16 395.768 628.135 417.863C628.116 435.817 628.113 453.771 628.123 471.725C628.124 474.278 628.125 476.832 628.127 479.463C628.129 484.65 628.132 489.837 628.135 495.024C628.16 543.685 628.131 592.346 628.085 641.006C628.047 682.777 628.053 724.546 628.093 766.317C628.139 814.801 628.157 863.285 628.131 911.77C628.128 916.938 628.125 922.106 628.123 927.275C628.121 929.818 628.12 932.361 628.119 934.981C628.111 952.917 628.124 970.853 628.144 988.79C628.168 1010.64 628.162 1032.5 628.116 1054.35C628.093 1065.5 628.084 1076.66 628.113 1087.81C628.138 1098.01 628.124 1108.22 628.078 1118.43C628.069 1122.12 628.074 1125.82 628.095 1129.51C628.121 1134.53 628.094 1139.55 628.054 1144.57C628.053 1147.35 628.051 1150.14 628.05 1153.02C626.425 1164.3 621.085 1170.85 612.967 1178.56C601.84 1183.73 591.639 1183.69 579.575 1182.06C568.86 1177.09 563.791 1170.7 558.032 1160.52C556.952 1153.02 556.952 1153.02 556.948 1144.57C556.935 1143 556.923 1141.43 556.91 1139.81C556.878 1134.56 556.908 1129.3 556.938 1124.05C556.928 1120.24 556.914 1116.44 556.897 1112.63C556.861 1102.17 556.879 1091.72 556.906 1081.26C556.925 1069.98 556.895 1058.7 556.871 1047.42C556.833 1025.33 556.841 1003.23 556.866 981.137C556.886 963.183 556.888 945.229 556.879 927.275C556.878 924.721 556.876 922.168 556.875 919.537C556.872 914.35 556.869 909.163 556.867 903.975C556.842 855.315 556.87 806.654 556.916 757.993C556.955 716.223 556.948 674.453 556.909 632.683C556.862 584.198 556.844 535.714 556.871 487.23C556.874 482.061 556.876 476.893 556.879 471.725C556.881 467.91 556.881 467.91 556.883 464.019C556.89 446.082 556.878 428.146 556.858 410.21C556.833 388.357 556.84 366.504 556.886 344.651C556.908 333.497 556.917 322.344 556.889 311.19C556.863 300.985 556.877 290.78 556.923 280.575C556.933 276.878 556.928 273.181 556.907 269.485C556.881 264.467 556.908 259.452 556.948 254.434C556.949 251.645 556.95 248.856 556.952 245.983C558.577 234.695 563.916 228.151 572.035 220.438C583.162 215.272 593.363 215.313 605.427 216.937Z" fill="white"/>
<path d="M881.177 354.813C891.188 359.461 898.473 366.058 902.72 376.356C904.001 385.456 903.882 394.49 903.814 403.667C903.827 406.449 903.841 409.231 903.854 412.097C903.89 419.805 903.873 427.512 903.846 435.22C903.826 443.537 903.857 451.855 903.88 460.173C903.919 476.462 903.91 492.75 903.885 509.039C903.866 522.278 903.863 535.515 903.873 548.753C903.874 550.637 903.875 552.521 903.877 554.462C903.879 558.289 903.882 562.116 903.885 565.943C903.91 601.832 903.881 637.72 903.835 673.609C903.797 704.405 903.803 735.201 903.843 765.997C903.889 801.757 903.907 837.517 903.881 873.277C903.878 877.09 903.875 880.902 903.873 884.715C903.871 886.591 903.87 888.468 903.869 890.4C903.861 903.623 903.874 916.846 903.894 930.068C903.918 946.182 903.912 962.294 903.866 978.408C903.843 986.63 903.834 994.851 903.863 1003.07C903.893 1011.98 903.857 1020.89 903.814 1029.8C903.833 1032.4 903.852 1035.01 903.872 1037.69C903.744 1051.28 903.362 1059.77 894.102 1070.04C885.874 1077.86 879.275 1079.32 868.251 1079.73C857.227 1079.32 850.627 1077.86 842.399 1070.04C831.409 1057.85 832.571 1045.64 832.688 1029.8C832.674 1027.02 832.661 1024.24 832.647 1021.37C832.611 1013.66 832.629 1005.96 832.656 998.249C832.675 989.931 832.645 981.614 832.621 973.296C832.583 957.007 832.591 940.718 832.616 924.429C832.636 911.191 832.638 897.953 832.629 884.715C832.628 882.832 832.626 880.948 832.625 879.007C832.622 875.18 832.619 871.353 832.617 867.526C832.592 831.637 832.62 795.749 832.666 759.86C832.705 729.064 832.698 698.268 832.659 667.472C832.612 631.712 832.594 595.952 832.621 560.192C832.624 556.379 832.626 552.566 832.629 548.753C832.63 546.877 832.632 545.001 832.633 543.068C832.64 529.846 832.628 516.623 832.608 503.401C832.583 487.287 832.59 471.174 832.636 455.061C832.658 446.839 832.667 438.618 832.639 430.396C832.608 421.486 832.645 412.577 832.688 403.667C832.669 401.065 832.649 398.462 832.63 395.781C832.757 382.186 833.14 373.699 842.399 363.43C853.755 352.642 866.329 352.814 881.177 354.813Z" fill="white"/>
<path d="M329.677 354.813C339.688 359.461 346.973 366.058 351.22 376.356C352.501 385.456 352.382 394.49 352.314 403.667C352.327 406.449 352.341 409.231 352.354 412.097C352.39 419.805 352.373 427.512 352.346 435.22C352.326 443.537 352.357 451.855 352.38 460.173C352.419 476.462 352.41 492.75 352.385 509.039C352.366 522.278 352.363 535.515 352.373 548.753C352.374 550.637 352.375 552.521 352.377 554.462C352.379 558.289 352.382 562.116 352.385 565.943C352.41 601.832 352.381 637.72 352.335 673.609C352.297 704.405 352.303 735.201 352.343 765.997C352.389 801.757 352.407 837.517 352.381 873.277C352.378 877.09 352.375 880.902 352.373 884.715C352.371 886.591 352.37 888.468 352.369 890.4C352.361 903.623 352.374 916.846 352.394 930.068C352.418 946.181 352.412 962.294 352.366 978.408C352.343 986.63 352.334 994.851 352.363 1003.07C352.393 1011.98 352.357 1020.89 352.314 1029.8C352.333 1032.4 352.352 1035.01 352.372 1037.69C352.244 1051.28 351.862 1059.77 342.602 1070.04C334.374 1077.86 327.775 1079.32 316.751 1079.73C305.727 1079.32 299.127 1077.86 290.899 1070.04C279.909 1057.85 281.071 1045.64 281.188 1029.8C281.174 1027.02 281.161 1024.24 281.147 1021.37C281.111 1013.66 281.129 1005.96 281.156 998.249C281.175 989.931 281.145 981.614 281.121 973.296C281.083 957.007 281.091 940.718 281.116 924.429C281.136 911.191 281.138 897.953 281.129 884.715C281.128 882.832 281.126 880.948 281.125 879.007C281.122 875.18 281.119 871.353 281.117 867.526C281.092 831.637 281.12 795.749 281.166 759.86C281.205 729.064 281.198 698.268 281.159 667.472C281.112 631.712 281.094 595.952 281.121 560.192C281.124 556.379 281.126 552.566 281.129 548.753C281.13 546.877 281.132 545.001 281.133 543.068C281.14 529.846 281.128 516.623 281.108 503.401C281.083 487.287 281.09 471.174 281.136 455.061C281.158 446.839 281.167 438.618 281.139 430.396C281.108 421.486 281.145 412.577 281.188 403.667C281.169 401.065 281.149 398.462 281.13 395.781C281.257 382.186 281.64 373.699 290.899 363.43C302.255 352.642 314.829 352.814 329.677 354.813Z" fill="white"/>
<path d="M743.301 458.219C754.002 463.187 759.215 469.509 764.844 479.762C766.05 486.263 766.009 492.624 765.938 499.222C765.952 501.159 765.965 503.097 765.979 505.093C766.013 511.573 765.986 518.051 765.959 524.531C765.971 529.181 765.986 533.831 766.005 538.482C766.044 551.105 766.029 563.727 766.001 576.35C765.98 589.558 766 602.767 766.013 615.975C766.029 638.156 766.008 660.337 765.967 682.518C765.921 708.165 765.936 733.811 765.983 759.458C766.022 781.475 766.028 803.493 766.005 825.51C765.992 838.661 765.99 851.812 766.018 864.963C766.043 877.326 766.026 889.689 765.976 902.053C765.965 906.591 765.968 911.13 765.987 915.668C766.011 921.862 765.981 928.053 765.938 934.247C765.957 936.044 765.977 937.842 765.996 939.694C765.843 951.124 763.72 957.519 756.227 966.633C747.999 974.449 741.399 975.918 730.375 976.327C719.351 975.918 712.752 974.449 704.524 966.633C695.527 955.691 694.667 947.807 694.812 934.247C694.792 931.341 694.792 931.341 694.771 928.376C694.737 921.896 694.764 915.418 694.791 908.938C694.78 904.288 694.764 899.637 694.746 894.987C694.706 882.364 694.722 869.742 694.749 857.119C694.771 843.911 694.751 830.702 694.737 817.494C694.721 795.313 694.742 773.132 694.783 750.951C694.83 725.304 694.815 699.657 694.767 674.01C694.728 651.993 694.723 629.976 694.745 607.959C694.759 594.808 694.76 581.657 694.732 568.506C694.707 556.142 694.724 543.779 694.774 531.416C694.786 526.877 694.782 522.339 694.763 517.8C694.74 511.607 694.769 505.415 694.812 499.222C694.783 496.526 694.783 496.526 694.754 493.775C694.908 482.345 697.03 475.95 704.524 466.836C715.88 456.048 728.454 456.22 743.301 458.219Z" fill="white"/>
<path d="M467.551 458.219C478.252 463.187 483.465 469.509 489.094 479.762C490.3 486.263 490.259 492.624 490.188 499.222C490.202 501.159 490.215 503.097 490.229 505.093C490.263 511.573 490.236 518.051 490.209 524.531C490.221 529.181 490.236 533.831 490.255 538.482C490.294 551.105 490.279 563.727 490.251 576.35C490.23 589.558 490.25 602.767 490.263 615.975C490.279 638.156 490.258 660.337 490.217 682.518C490.171 708.165 490.186 733.811 490.233 759.458C490.272 781.476 490.278 803.493 490.255 825.51C490.242 838.661 490.24 851.812 490.268 864.963C490.293 877.326 490.276 889.689 490.226 902.053C490.215 906.591 490.218 911.13 490.237 915.668C490.261 921.862 490.231 928.053 490.188 934.247C490.207 936.044 490.227 937.842 490.246 939.694C490.093 951.124 487.97 957.519 480.477 966.633C472.249 974.449 465.649 975.918 454.625 976.327C443.601 975.918 437.002 974.449 428.774 966.633C419.777 955.691 418.917 947.807 419.062 934.247C419.042 931.341 419.042 931.341 419.021 928.376C418.987 921.896 419.014 915.418 419.041 908.938C419.03 904.288 419.014 899.637 418.996 894.987C418.956 882.364 418.972 869.742 418.999 857.119C419.021 843.911 419.001 830.702 418.987 817.494C418.971 795.313 418.992 773.132 419.033 750.951C419.08 725.304 419.065 699.657 419.017 674.01C418.978 651.993 418.973 629.976 418.995 607.959C419.009 594.808 419.01 581.657 418.982 568.506C418.957 556.142 418.974 543.779 419.024 531.416C419.036 526.877 419.032 522.339 419.013 517.8C418.99 511.607 419.019 505.415 419.062 499.222C419.033 496.526 419.033 496.526 419.004 493.775C419.158 482.345 421.28 475.95 428.774 466.836C440.13 456.048 452.704 456.22 467.551 458.219Z" fill="white"/>
<path d="M1019.05 561.625C1029.07 566.279 1036.27 572.903 1040.59 583.168C1041.86 591.762 1041.77 600.278 1041.71 608.952C1041.72 611.539 1041.74 614.126 1041.75 616.791C1041.79 623.859 1041.78 630.926 1041.75 637.995C1041.73 645.407 1041.75 652.819 1041.76 660.23C1041.78 672.675 1041.76 685.12 1041.72 697.565C1041.67 711.934 1041.69 726.302 1041.73 740.671C1041.77 753.029 1041.78 765.386 1041.75 777.743C1041.74 785.115 1041.74 792.486 1041.77 799.857C1041.79 808.078 1041.76 816.296 1041.71 824.517C1041.73 826.948 1041.74 829.379 1041.76 831.884C1041.62 845.183 1040.91 853.13 1031.98 863.227C1023.75 871.043 1017.15 872.512 1006.12 872.921C995.101 872.512 988.501 871.043 980.273 863.227C969.687 851.263 970.43 840.008 970.541 824.517C970.526 821.93 970.511 819.343 970.495 816.678C970.464 809.61 970.471 802.543 970.498 795.474C970.52 788.062 970.5 780.65 970.486 773.238C970.471 760.794 970.491 748.349 970.533 735.904C970.579 721.535 970.564 707.167 970.517 692.797C970.478 680.44 970.472 668.083 970.495 655.726C970.508 648.354 970.51 640.983 970.481 633.612C970.46 625.391 970.493 617.173 970.541 608.952C970.523 606.521 970.506 604.09 970.488 601.585C970.632 588.286 971.339 580.339 980.273 570.242C991.629 559.454 1004.2 559.626 1019.05 561.625Z" fill="white"/>
<path d="M191.8 561.625C201.824 566.279 209.018 572.903 213.343 583.168C214.613 591.762 214.521 600.278 214.458 608.952C214.474 611.539 214.489 614.126 214.504 616.791C214.536 623.859 214.528 630.926 214.501 637.995C214.479 645.407 214.499 652.819 214.513 660.23C214.529 672.675 214.508 685.12 214.467 697.565C214.42 711.934 214.435 726.302 214.483 740.671C214.522 753.029 214.527 765.386 214.505 777.743C214.491 785.115 214.489 792.486 214.518 799.857C214.54 808.078 214.506 816.296 214.458 824.517C214.476 826.948 214.493 829.379 214.511 831.884C214.368 845.183 213.66 853.13 204.726 863.227C196.498 871.043 189.899 872.512 178.875 872.921C167.851 872.512 161.251 871.043 153.023 863.227C142.437 851.263 143.18 840.007 143.291 824.517C143.276 821.93 143.261 819.343 143.245 816.678C143.214 809.61 143.221 802.543 143.248 795.474C143.27 788.062 143.25 780.65 143.236 773.238C143.221 760.794 143.241 748.349 143.283 735.904C143.329 721.535 143.314 707.167 143.267 692.797C143.228 680.44 143.222 668.083 143.245 655.726C143.258 648.354 143.26 640.983 143.231 633.612C143.21 625.391 143.243 617.173 143.291 608.952C143.273 606.521 143.256 604.09 143.238 601.585C143.382 588.286 144.089 580.339 153.023 570.242C164.379 559.454 176.953 559.626 191.8 561.625Z" fill="white"/>
<path d="M3692.39 312.066C3698.34 312.066 3704.3 312.058 3710.26 312.045C3761.3 311.934 3812.37 312.378 3863.31 315.891C3866.89 316.136 3870.48 316.356 3874.06 316.575C3924.61 319.834 3967.85 332.874 4005 368.251C4006.06 369.231 4006.06 369.231 4007.14 370.231C4045.55 406.843 4062.05 463.793 4063.93 515.359C4065.13 569.508 4050 620.464 4022.36 666.767C4020.84 669.071 4020.84 669.071 4021 671.251C4021.97 671.701 4022.94 672.151 4023.94 672.614C4040.69 680.576 4054.52 690.752 4067.61 703.86C4069 705.251 4070.41 706.626 4071.85 707.962C4109.43 743.227 4124.4 802.565 4126 852.251C4126.02 852.919 4126.04 853.587 4126.07 854.276C4127.43 902.788 4116.48 957.649 4087 997.251C4086.26 998.282 4085.53 999.313 4084.77 1000.38C4072.57 1016.98 4057.17 1031.86 4040 1043.25C4039.4 1043.65 4038.81 1044.04 4038.2 1044.45C3985.22 1079.19 3920.02 1083.41 3858.5 1083.44C3857.46 1083.44 3856.41 1083.44 3855.33 1083.44C3830.22 1083.44 3805.11 1082.75 3780 1082.25C3621.1 1081.76 3621.1 1081.76 3459 1081.25C3459 827.811 3459 574.371 3459 313.251C3647.66 312.064 3647.66 312.064 3692.39 312.066ZM3663.77 455.7C3662.96 455.719 3662.16 455.739 3661.32 455.759C3648.87 456.064 3636.45 456.658 3624 457.251C3624 510.711 3624 564.171 3624 619.251C3659.97 619.338 3659.97 619.338 3695.94 619.397C3710.62 619.415 3725.3 619.436 3739.98 619.477C3750.67 619.507 3761.37 619.527 3772.06 619.533C3777.72 619.537 3783.37 619.546 3789.03 619.568C3794.36 619.589 3799.7 619.595 3805.04 619.59C3806.98 619.591 3808.93 619.597 3810.87 619.609C3832.02 619.729 3852.71 617.804 3871 606.251C3871.71 605.808 3872.42 605.364 3873.15 604.907C3887.42 594.301 3893.3 570.67 3895.88 554.001C3898.99 531.211 3896.9 505.428 3883 486.251C3867.62 466.642 3845.89 461.325 3822.23 458.287C3794.12 454.966 3766.02 454.964 3737.76 455.055C3733.61 455.066 3729.46 455.066 3725.31 455.065C3704.79 455.066 3684.28 455.201 3663.77 455.7ZM3703.62 763.751C3664.21 763.998 3664.21 763.998 3624 764.251C3624 818.041 3624 871.831 3624 927.251C3655.04 927.43 3655.04 927.43 3686.07 927.606C3698.79 927.678 3711.5 927.75 3724.21 927.824C3746.36 927.952 3768.51 928.072 3790.66 928.171C3800.11 928.214 3809.57 928.266 3819.02 928.339C3825.37 928.387 3831.73 928.421 3838.08 928.449C3840.56 928.462 3843.03 928.481 3845.5 928.506C3876.38 928.811 3909 926.609 3935 908.251C3936.24 907.421 3936.24 907.421 3937.51 906.575C3940.94 903.373 3942.81 899.777 3944.94 895.626C3945.59 894.365 3945.59 894.365 3946.25 893.08C3959.01 867.665 3963.17 839.388 3955 811.895C3948.8 793.927 3936.61 781.888 3920.06 773.063C3911.87 769.212 3903.53 766.993 3894.62 765.563C3893.88 765.444 3893.14 765.325 3892.38 765.202C3880.21 763.397 3867.99 763.102 3855.71 763.136C3854.23 763.136 3852.75 763.136 3851.27 763.136C3847.26 763.136 3843.25 763.143 3839.24 763.152C3836.68 763.157 3834.13 763.16 3831.58 763.163C3788.93 763.204 3746.28 763.476 3703.62 763.751Z" fill="#FEFEFE"/>
<path d="M2332.73 303.048C2334 303.041 2335.26 303.034 2336.57 303.026C2340.63 303.009 2344.69 303.002 2348.75 303.001C2349.44 303.001 2350.14 303 2350.85 303C2372.38 302.999 2393.64 303.322 2415 306.251C2416.07 306.393 2416.07 306.393 2417.15 306.538C2497.13 317.226 2574.13 347.026 2634 402.251C2635.41 403.508 2635.41 403.508 2636.85 404.79C2710.41 470.459 2738.07 567.601 2743.56 662.895C2747.87 751.387 2736.28 843.188 2664 961.251C2663.52 961.842 2663.05 962.433 2662.56 963.042C2656 971.181 2648.8 978.647 2641.44 986.063C2640.58 986.935 2639.71 987.807 2638.82 988.705C2632.86 994.642 2626.59 1000.02 2620 1005.25C2618.83 1006.2 2617.66 1007.16 2616.5 1008.11C2602.28 1019.5 2587.05 1029.15 2571.16 1038.04C2569.25 1039.11 2567.35 1040.2 2565.45 1041.29C2545.78 1052.28 2524.4 1060.34 2503 1067.25C2502.1 1067.55 2501.19 1067.85 2500.26 1068.15C2424.08 1093.04 2340.23 1098.05 2124.63 1048.19C2122.71 1047.21 2120.8 1046.22 2118.9 1045.23C2116.97 1044.24 2115.03 1043.28 2113.09 1042.32C2095.25 1033.39 2078.41 1021.89 2063 1009.25C2062.22 1008.61 2062.22 1008.61 2061.42 1007.96C2047.37 996.417 2033.78 984.131 2022 970.251C2021.28 969.425 2020.57 968.598 2019.83 967.747C2005.64 951.098 1993.86 933.226 1983 914.251C1982.33 913.088 1982.33 913.088 1981.65 911.901C1948.45 853.788 1934.98 782.073 1934.8 715.888C1934.79 715.183 1934.79 714.477 1934.79 713.751C1934.77 710.003 1934.76 706.255 1934.76 702.507C1934.76 699.495 1934.74 696.484 1934.72 693.472C1934.6 676.933 1934.88 660.543 1936.38 644.063C1936.44 643.382 1936.5 642.7 1936.56 641.998C1943.23 569.981 1964.79 495.216 2011 438.251C2011.76 437.298 2012.52 436.346 2013.3 435.364C2018.33 429.13 2023.6 423.159 2029 417.251C2030.28 415.812 2030.28 415.812 2031.59 414.345C2054.67 388.553 2083.55 368.389 2114 352.251C2114.98 351.731 2114.98 351.731 2115.98 351.202C2120.6 348.772 2125.28 346.475 2130 344.251C2130.81 343.87 2131.62 343.488 2132.45 343.096C2183.56 319.329 2238.33 310.445 2293.96 305.231C2295.32 305.104 2295.32 305.104 2296.71 304.973C2308.72 303.875 2320.67 303.093 2332.73 303.048ZM2158 518.251C2157.04 519.146 2156.08 520.04 2155.09 520.962C2114.2 559.866 2100.42 620.992 2098.94 675.495C2098.82 681.205 2098.81 686.915 2098.81 692.626C2098.81 693.51 2098.81 694.394 2098.81 695.305C2098.91 761.286 2108.03 825.13 2156 874.251C2192.54 910.413 2245.22 922.597 2295 926.251C2296.16 926.339 2297.31 926.428 2298.51 926.518C2310.18 927.344 2321.84 927.404 2333.55 927.381C2336.8 927.376 2340.05 927.381 2343.3 927.388C2360.95 927.395 2378.5 927.083 2396 924.563C2397.22 924.391 2398.43 924.219 2399.68 924.041C2444.2 917.458 2489.19 905.321 2523 874.251C2523.75 873.587 2524.49 872.923 2525.26 872.239C2536.27 861.943 2544.11 848.507 2551 835.251C2551.33 834.632 2551.66 834.012 2552 833.374C2568.38 802.412 2575.11 766.691 2579 732.251C2579.1 731.353 2579.21 730.455 2579.32 729.53C2580.38 718.977 2580.24 708.346 2580.25 697.751C2580.25 696.704 2580.25 695.658 2580.25 694.579C2580.24 677.948 2579.61 661.706 2577 645.251C2576.83 644.14 2576.66 643.029 2576.48 641.884C2569.38 597.172 2554.12 553.153 2522 520.251C2521.28 519.465 2520.55 518.678 2519.8 517.868C2484.26 480.222 2420.19 472.749 2371 469.251C2370.27 469.195 2369.54 469.138 2368.79 469.08C2300.26 463.919 2210.46 468.477 2158 518.251Z" fill="#FDFDFD"/>
<path d="M6242 313.251C6242 313.911 6242 314.571 6242 315.251C6241.32 315.787 6240.64 316.324 6239.94 316.876C6237.6 318.764 6235.96 320.368 6234.06 322.626C6230.58 326.717 6226.82 330.477 6223 334.251C6217.58 339.596 6217.58 339.596 6212.5 345.251C6208.65 349.811 6204.35 353.924 6200.11 358.118C6197.13 361.081 6194.21 364.038 6191.5 367.251C6188.22 371.138 6184.61 374.675 6181 378.251C6175.61 383.563 6175.61 383.563 6170.56 389.189C6166.5 394 6161.94 398.333 6157.47 402.76C6153.79 406.419 6150.28 410.128 6146.93 414.099C6143.49 417.931 6139.77 421.496 6136.11 425.119C6133.13 428.081 6130.21 431.038 6127.5 434.251C6124.22 438.138 6120.61 441.675 6117 445.251C6111.61 450.563 6111.61 450.563 6106.56 456.189C6102.5 461 6097.94 465.333 6093.47 469.76C6089.79 473.419 6086.28 477.128 6082.93 481.099C6079.49 484.93 6075.77 488.495 6072.12 492.116C6068.54 495.666 6065.15 499.283 6061.9 503.13C6058.68 506.725 6055.2 510.069 6051.77 513.463C6048.22 516.992 6044.85 520.608 6041.61 524.427C6039.19 527.169 6036.57 529.689 6033.97 532.251C6032.06 534.19 6030.27 536.188 6028.5 538.251C6025.48 541.763 6022.27 545.004 6018.97 548.251C6017.06 550.19 6015.27 552.188 6013.5 554.251C6011.1 557.04 6008.62 559.671 6006 562.251C6003.44 564.771 6001.02 567.332 5998.69 570.064C5994.97 574.394 5990.92 578.361 5986.84 582.345C5984.77 584.408 5982.86 586.558 5980.97 588.782C5975.12 595.541 5968.61 601.698 5962.25 607.979C5956.45 613.714 5950.72 619.413 5945.43 625.628C5943.38 627.958 5941.1 629.976 5938.75 632.001C5935.77 634.575 5933.25 637.01 5931 640.251C5931.62 640.918 5932.23 641.584 5932.87 642.271C5938.82 648.749 5944.48 655.397 5950 662.251C5951.42 663.981 5952.83 665.711 5954.25 667.439C5955.83 669.376 5957.42 671.313 5959 673.251C5959.74 674.151 5959.74 674.151 5960.49 675.069C5968.55 684.944 5976.49 694.909 5984.33 704.96C5990.2 712.47 5996.14 719.91 6002.17 727.292C6005.64 731.554 6009.06 735.852 6012.44 740.189C6017.12 746.194 6021.95 752.07 6026.81 757.935C6030.89 762.877 6034.88 767.883 6038.82 772.943C6042.46 777.612 6046.22 782.188 6050 786.751C6054.69 792.417 6059.3 798.137 6063.82 803.943C6067.46 808.612 6071.22 813.188 6075 817.751C6079.69 823.417 6084.3 829.137 6088.82 834.943C6092.46 839.612 6096.22 844.188 6100 848.751C6104.81 854.559 6109.53 860.423 6114.17 866.369C6117.58 870.726 6121.05 875.016 6124.56 879.286C6133.97 890.729 6143.22 902.284 6152.33 913.96C6158.8 922.243 6165.37 930.437 6172.02 938.583C6174.34 941.437 6176.65 944.306 6178.94 947.189C6187.17 957.508 6195.61 967.662 6204.17 977.719C6207.73 981.913 6211.21 986.167 6214.68 990.435C6217.28 993.589 6219.92 996.703 6222.56 999.814C6226.38 1004.31 6230.12 1008.85 6233.79 1013.47C6236.05 1016.31 6238.34 1019.12 6240.63 1021.94C6285 1076.35 6285 1076.35 6285 1081.25C6270.45 1081.38 6255.91 1081.51 6241.36 1081.64C6234.6 1081.7 6227.84 1081.76 6221.08 1081.82C6194.17 1082.07 6167.27 1082.31 6140.36 1082.25C6132.24 1082.23 6124.13 1082.28 6116.01 1082.46C6111.91 1082.54 6107.8 1082.57 6103.69 1082.59C6101.68 1082.62 6099.67 1082.66 6097.66 1082.73C6079.9 1083.32 6079.9 1083.32 6073.85 1078.23C6070.98 1075.37 6068.53 1072.29 6066.21 1068.97C6064.47 1066.5 6062.52 1064.23 6060.56 1061.94C6059.86 1061.06 6059.16 1060.19 6058.43 1059.28C6055.97 1056.21 6053.46 1053.17 6050.95 1050.14C6045.6 1043.68 6040.33 1037.18 6035.19 1030.56C6031.52 1025.87 6027.74 1021.27 6023.94 1016.69C6018.99 1010.71 6014.18 1004.66 6009.48 998.478C6006.78 994.937 6003.98 991.47 6001.19 988.001C5996.89 982.668 5992.7 977.268 5988.56 971.814C5983.72 965.435 5978.74 959.189 5973.67 952.994C5969.49 947.885 5965.45 942.688 5961.45 937.443C5958.91 934.125 5956.33 930.842 5953.75 927.564C5949.48 922.142 5945.23 916.702 5941 911.251C5935.47 904.128 5929.91 897.024 5924.33 889.937C5922.05 887.043 5919.77 884.147 5917.5 881.251C5916.58 880.084 5915.67 878.918 5914.75 877.751C5909.25 870.751 5909.25 870.751 5907.88 869.002C5906.96 867.833 5906.04 866.665 5905.12 865.497C5902.85 862.608 5900.58 859.717 5898.32 856.821C5892.9 849.889 5887.4 843.03 5881.84 836.213C5878.34 831.927 5874.9 827.608 5871.5 823.251C5866.42 816.745 5861.22 810.34 5856 803.943C5853.57 800.955 5851.15 797.953 5848.75 794.939C5843.79 788.717 5838.73 782.572 5833.68 776.427C5829.03 770.768 5824.46 765.059 5820 759.251C5813.68 764.43 5807.94 770.162 5802.18 775.945C5800.51 777.619 5798.83 779.287 5797.16 780.954C5792.06 786.054 5787.06 791.174 5782.37 796.664C5780.67 798.629 5778.87 800.449 5777 802.251C5770.57 808.618 5764.9 815.556 5759.19 822.564C5758.32 823.623 5758.32 823.623 5757.44 824.704C5756.9 825.376 5756.35 826.047 5755.79 826.739C5755.3 827.343 5754.81 827.947 5754.31 828.569C5748.04 836.62 5749.71 848.581 5749.44 858.387C5749.42 859.132 5749.4 859.878 5749.38 860.645C5748.81 881.357 5748.87 902.073 5748.9 922.792C5748.9 928.387 5748.91 933.983 5748.91 939.579C5748.91 950.114 5748.92 960.649 5748.93 971.185C5748.94 985.464 5748.95 999.744 5748.95 1014.02C5748.96 1036.43 5748.98 1058.84 5749 1081.25C5694.88 1081.25 5640.76 1081.25 5585 1081.25C5585 827.811 5585 574.371 5585 313.251C5639.12 313.251 5693.24 313.251 5749 313.251C5749.06 333.558 5749.12 353.864 5749.18 374.786C5749.22 387.67 5749.26 400.553 5749.31 413.437C5749.33 420.209 5749.35 426.981 5749.37 433.753C5749.38 435.026 5749.38 435.026 5749.38 436.324C5749.42 449.98 5749.47 463.636 5749.5 477.291C5749.55 491.332 5749.59 505.372 5749.64 519.413C5749.67 528.059 5749.69 536.705 5749.72 545.351C5749.73 551.301 5749.75 557.25 5749.77 563.199C5749.79 566.618 5749.8 570.038 5749.8 573.457C5749.84 589.414 5750.15 605.316 5751 621.251C5751.8 620.457 5752.61 619.664 5753.43 618.846C5754.82 617.473 5756.22 616.101 5757.61 614.732C5760.96 611.4 5764.07 607.907 5767.17 604.335C5770.27 600.805 5773.51 597.41 5776.75 594.001C5782.3 588.132 5787.8 582.224 5793.24 576.259C5798.78 570.208 5804.4 564.237 5810 558.251C5810.6 557.606 5811.21 556.961 5811.83 556.297C5815.56 552.309 5819.3 548.324 5823.04 544.341C5825.08 542.167 5827.12 539.99 5829.15 537.814C5835.65 530.884 5842.17 524.023 5848.93 517.353C5850.77 515.481 5852.49 513.568 5854.19 511.564C5858.31 506.73 5862.87 502.327 5867.41 497.881C5870.54 494.787 5873.56 491.655 5876.44 488.314C5880.91 483.13 5885.8 478.399 5890.68 473.607C5894.06 470.268 5897.34 466.916 5900.44 463.314C5905.29 457.668 5910.67 452.538 5915.97 447.318C5920.24 443.086 5924.33 438.791 5928.24 434.23C5932.17 429.81 5936.47 425.745 5940.68 421.607C5944.73 417.606 5948.56 413.514 5952.27 409.202C5955.2 405.901 5958.35 402.838 5961.5 399.751C5965.93 395.366 5970.24 390.973 5974.27 386.204C5977.02 383.103 5980 380.23 5982.95 377.319C5986.2 374.097 5989.22 370.757 5992.19 367.278C5995.17 363.938 5998.4 360.846 6001.58 357.7C6004.31 354.941 6006.84 352.059 6009.36 349.114C6011.51 346.668 6013.83 344.406 6016.16 342.122C6017.92 340.334 6019.56 338.493 6021.2 336.591C6025.14 332.054 6029.24 327.679 6033.38 323.314C6034.1 322.547 6034.82 321.781 6035.57 320.991C6043.36 312.74 6049.46 313.36 6060.75 313.004C6065.23 312.879 6069.71 312.78 6074.19 312.689C6075.18 312.668 6076.18 312.647 6077.2 312.625C6132.13 311.507 6187.08 312.518 6242 313.251Z" fill="#FCFCFC"/>
<path d="M4174 313.251C4227.79 313.251 4281.58 313.251 4337 313.251C4336.98 332.643 4336.98 332.643 4336.97 352.428C4336.94 393.918 4336.91 435.408 4336.9 476.898C4336.9 483.355 4336.89 489.813 4336.89 496.271C4336.89 497.556 4336.89 498.842 4336.89 500.166C4336.88 520.909 4336.86 541.652 4336.85 562.395C4336.83 583.721 4336.82 605.047 4336.81 626.373C4336.81 639.504 4336.8 652.635 4336.78 665.766C4336.77 674.803 4336.77 683.84 4336.77 692.876C4336.77 698.07 4336.77 703.263 4336.76 708.456C4336.63 775.959 4336.58 852.888 4386.19 904.813C4392.26 910.755 4398.88 915.629 4406 920.251C4407.08 920.951 4408.16 921.651 4409.27 922.372C4441.48 941.951 4481.07 946.486 4518 946.438C4518.86 946.438 4519.73 946.437 4520.62 946.437C4533.51 946.412 4546.22 946.125 4559 944.251C4559.89 944.127 4560.79 944.004 4561.71 943.876C4589.36 939.961 4616.75 931.685 4639 914.251C4639.8 913.631 4639.8 913.631 4640.62 912.999C4653.49 902.977 4663.13 891.317 4671 877.058C4671.91 875.407 4672.85 873.771 4673.8 872.138C4696.08 831.09 4698.2 779.917 4698.12 734.142C4698.12 732.31 4698.12 730.477 4698.12 728.645C4698.13 723.674 4698.12 718.702 4698.12 713.731C4698.11 708.346 4698.11 702.961 4698.11 697.576C4698.11 688.268 4698.11 678.959 4698.11 669.65C4698.1 656.192 4698.09 642.733 4698.09 629.275C4698.09 607.434 4698.08 585.594 4698.08 563.754C4698.07 542.549 4698.06 521.345 4698.05 500.141C4698.05 498.832 4698.05 497.523 4698.05 496.174C4698.05 489.606 4698.05 483.039 4698.05 476.471C4698.04 422.064 4698.02 367.658 4698 313.251C4752.78 313.251 4807.56 313.251 4864 313.251C4864.02 362.067 4864.04 410.882 4864.05 459.698C4864.05 465.49 4864.05 471.283 4864.05 477.075C4864.06 478.228 4864.06 479.381 4864.06 480.569C4864.06 499.12 4864.07 517.67 4864.08 536.22C4864.09 555.323 4864.09 574.426 4864.09 593.53C4864.1 604.231 4864.1 614.931 4864.11 625.632C4864.16 703.027 4864.16 703.027 4863.58 732.941C4863.56 733.911 4863.54 734.882 4863.52 735.881C4861.76 825.562 4847.92 920.261 4785.13 988.899C4783.32 990.896 4781.6 992.932 4779.87 995.001C4769.91 1006.36 4758.14 1015.86 4746 1024.78C4744.17 1026.13 4742.36 1027.49 4740.55 1028.86C4731.39 1035.72 4721.55 1041.33 4711.54 1046.85C4709.26 1048.11 4706.99 1049.38 4704.72 1050.66C4674.56 1067.4 4639.8 1078.74 4606 1085.25C4604.87 1085.47 4603.73 1085.7 4602.56 1085.92C4594.07 1087.56 4585.56 1088.98 4577 1090.25C4575.37 1090.5 4575.37 1090.5 4573.71 1090.76C4536.88 1096.16 4496.79 1095.77 4460 1090.25C4458.22 1090 4458.22 1090 4456.4 1089.75C4375.16 1078.25 4289.24 1042.37 4238.5 975.093C4237.32 973.488 4236.16 971.869 4235 970.251C4234.15 969.105 4233.3 967.961 4232.45 966.817C4222.81 953.771 4214.93 939.899 4208 925.251C4207.7 924.632 4207.41 924.013 4207.1 923.375C4183.13 872.818 4176.84 812.836 4174.11 757.508C4174.04 755.999 4173.96 754.491 4173.88 752.982C4172.63 729.711 4172.87 706.414 4172.9 683.118C4172.91 678.116 4172.91 673.114 4172.91 668.112C4172.96 602.502 4173.21 536.891 4173.45 471.281C4173.49 459.205 4173.53 447.129 4173.57 435.053C4173.58 434.179 4173.58 433.304 4173.58 432.404C4173.61 425.555 4173.63 418.706 4173.65 411.857C4173.77 378.988 4173.88 346.12 4174 313.251Z" fill="#FDFDFD"/>
<path d="M4922 313.251C4975.79 313.251 5029.58 313.251 5085 313.251C5086.1 317.667 5086.14 321.736 5086.12 326.248C5086.12 327.172 5086.12 328.096 5086.12 329.048C5086.12 332.169 5086.12 335.289 5086.11 338.409C5086.11 340.66 5086.11 342.912 5086.11 345.163C5086.11 351.37 5086.11 357.576 5086.1 363.783C5086.1 369.786 5086.09 375.789 5086.09 381.792C5086.09 394.09 5086.08 406.388 5086.08 418.687C5086.06 435.545 5086.06 452.403 5086.05 469.261C5086.05 477.13 5086.05 484.999 5086.05 492.868C5086.05 493.656 5086.05 494.444 5086.04 495.256C5086.04 514.033 5086.03 532.809 5086.02 551.586C5086.02 552.818 5086.02 552.818 5086.02 554.076C5086.01 569.036 5086 583.997 5086 598.957C5085.99 609.669 5085.98 620.382 5085.98 631.094C5085.98 631.906 5085.98 632.718 5085.98 633.555C5085.97 652.178 5085.96 670.802 5085.95 689.426C5085.95 690.609 5085.95 690.609 5085.95 691.815C5085.95 699.7 5085.95 707.585 5085.95 715.47C5085.94 732.271 5085.94 749.073 5085.92 765.874C5085.91 778.174 5085.91 790.475 5085.91 802.775C5085.9 809.402 5085.9 816.028 5085.89 822.655C5085.89 824.525 5085.89 824.525 5085.89 826.432C5085.89 828.682 5085.89 830.933 5085.88 833.183C5085.85 867.888 5086.46 902.54 5087 937.251C5231.87 937.251 5376.74 937.251 5526 937.251C5526 984.771 5526 1032.29 5526 1081.25C5452.18 1082.4 5452.17 1082.4 5423.62 1082.38C5419.15 1082.38 5414.69 1082.38 5410.23 1082.39C5401.56 1082.39 5392.9 1082.39 5384.24 1082.39C5377.12 1082.38 5370 1082.38 5362.87 1082.38C5361.84 1082.38 5360.8 1082.39 5359.73 1082.39C5357.62 1082.39 5355.51 1082.39 5353.4 1082.39C5333.79 1082.39 5314.17 1082.39 5294.55 1082.38C5278.1 1082.38 5261.65 1082.38 5245.21 1082.38C5225.76 1082.39 5206.32 1082.39 5186.88 1082.39C5184.75 1082.39 5182.63 1082.39 5180.5 1082.38C5179.46 1082.38 5178.41 1082.38 5177.34 1082.38C5170.36 1082.38 5163.38 1082.38 5156.39 1082.39C5077.93 1082.41 4999.46 1081.83 4921 1081.25C4920.98 1017.12 4920.97 952.982 4920.96 888.848C4920.96 887.894 4920.96 886.94 4920.96 885.957C4920.95 865.203 4920.95 844.449 4920.95 823.695C4920.95 813.512 4920.95 803.329 4920.95 793.147C4920.94 792.134 4920.94 791.121 4920.94 790.077C4920.94 757.433 4920.93 724.79 4920.92 692.146C4920.91 658.508 4920.91 624.87 4920.91 591.232C4920.91 586.445 4920.91 581.658 4920.91 576.87C4920.91 575.929 4920.91 574.987 4920.9 574.016C4920.9 559.973 4920.9 545.929 4920.89 531.886C4920.89 510.775 4920.88 489.665 4920.89 468.554C4920.89 467.73 4920.89 466.906 4920.89 466.056C4920.9 400.695 4920.9 400.695 4921.23 368.023C4921.24 367.05 4921.25 366.076 4921.26 365.074C4921.44 347.798 4921.73 330.525 4922 313.251Z" fill="#FCFCFC"/>
<path d="M2647 312.251C2670.81 311.749 2694.62 311.404 2718.43 311.243C2729.49 311.164 2740.54 311.036 2751.6 310.787C2761.25 310.569 2770.89 310.449 2780.54 310.441C2785.64 310.434 2790.73 310.38 2795.84 310.211C2827.74 309.197 2827.74 309.197 2835.46 315.918C2841.39 322.019 2845.14 329.448 2848.57 337.159C2850.39 341.104 2852.62 344.3 2855.25 347.751C2856.01 348.791 2856.76 349.831 2857.54 350.903C2858.36 352.019 2859.18 353.135 2860 354.251C2861.05 355.689 2862.1 357.128 2863.15 358.567C2870.7 368.897 2878.42 379.096 2886.2 389.262C2889.49 393.573 2892.75 397.905 2896 402.251C2901.38 409.454 2906.83 416.606 2912.29 423.755C2916.4 429.145 2920.49 434.554 2924.54 439.985C2927.94 444.512 2931.38 449.003 2934.81 453.501C2940.05 460.363 2945.26 467.244 2950.43 474.159C2954.54 479.655 2958.71 485.11 2962.88 490.563C2968.57 498.012 2974.17 505.52 2979.71 513.084C2984.09 519.05 2988.56 524.939 2993.06 530.813C2998.52 537.936 3003.84 545.134 3009.06 552.434C3013.32 558.376 3017.74 564.197 3022.19 570.001C3026.99 576.269 3031.73 582.564 3036.28 589.017C3041.47 596.359 3046.84 603.567 3052.19 610.795C3055.13 614.777 3058.06 618.764 3061 622.751C3064.51 627.515 3068.02 632.277 3071.54 637.036C3080.01 648.512 3088.39 660.054 3096.72 671.641C3097.87 673.248 3099.03 674.853 3100.18 676.459C3101.29 678.006 3102.41 679.555 3103.51 681.105C3106.84 685.736 3110.29 690.19 3114.12 694.426C3115 696.251 3115 696.251 3114.26 698.559C3112.97 701.314 3111.51 703.649 3109.76 706.137C3109.11 707.067 3108.46 707.996 3107.8 708.953C3107.1 709.938 3106.4 710.923 3105.69 711.938C3104.97 712.963 3104.25 713.987 3103.51 715.042C3097.6 723.447 3091.61 731.788 3085.56 740.094C3083.99 742.265 3082.43 744.444 3080.87 746.626C3074.4 755.657 3067.77 764.542 3061.02 773.357C3056.57 779.168 3052.2 785.03 3047.88 790.938C3042.67 798.045 3037.33 805.029 3031.91 811.963C3027.91 817.067 3024 822.218 3020.12 827.415C3017.45 830.986 3014.73 834.52 3012 838.054C3008.55 842.528 3005.12 847.012 3001.69 851.501C3001.14 852.22 3000.59 852.939 3000.02 853.68C2998.9 855.146 2997.78 856.613 2996.66 858.079C2995.06 860.178 2993.45 862.277 2991.84 864.376C2985.27 872.964 2978.71 881.56 2972.16 890.165C2968.74 894.656 2965.32 899.143 2961.88 903.622C2954.51 913.243 2947.27 922.938 2940.21 932.79C2936.85 937.475 2933.43 942.114 2930 946.751C2925.38 952.999 2920.8 959.265 2916.25 965.563C2915.71 966.314 2915.17 967.065 2914.61 967.839C2912.23 971.133 2909.87 974.432 2907.53 977.751C2901.94 985.667 2896.13 993.391 2890.24 1001.08C2884.95 1008 2879.72 1014.96 2874.51 1021.94C2870.94 1026.7 2867.32 1031.41 2863.63 1036.08C2858.26 1042.9 2853.13 1049.82 2848.25 1057C2847.71 1057.79 2847.17 1058.58 2846.62 1059.39C2844.12 1063.06 2841.67 1066.76 2839.32 1070.52C2838.48 1071.81 2837.65 1073.09 2836.81 1074.38C2836.12 1075.49 2835.42 1076.61 2834.71 1077.76C2830.67 1081.47 2827.34 1081.16 2822 1081.25C2820.66 1081.3 2819.32 1081.35 2817.98 1081.4C2813.94 1081.56 2809.91 1081.66 2805.87 1081.75C2803.42 1081.81 2800.97 1081.88 2798.51 1081.94C2764.27 1082.81 2729.99 1082.18 2695.75 1081.79C2690.33 1081.73 2684.92 1081.67 2679.51 1081.61C2669.01 1081.49 2658.5 1081.37 2648 1081.25C2648.88 1077.26 2650.65 1074.09 2652.75 1070.63C2653.14 1069.98 2653.53 1069.33 2653.94 1068.66C2658.69 1060.92 2664.08 1053.66 2669.46 1046.36C2671.65 1043.36 2673.79 1040.34 2675.94 1037.31C2684.49 1025.31 2693.24 1013.45 2702.26 1001.79C2711.82 989.455 2721.22 976.994 2730.56 964.495C2734.54 959.174 2738.57 953.891 2742.62 948.626C2747.61 942.142 2752.43 935.554 2757.2 928.908C2760.72 924 2764.3 919.138 2767.94 914.313C2774.09 906.146 2780.16 897.914 2786.22 889.674C2789.14 885.698 2792.07 881.724 2795 877.751C2796.17 876.167 2797.33 874.584 2798.5 873.001C2889.5 749.501 2889.5 749.501 2891.25 747.125C2892.42 745.543 2893.58 743.961 2894.75 742.378C2898.26 737.606 2901.78 732.838 2905.3 728.072C2907.04 725.715 2908.77 723.352 2910.5 720.989C2912.91 717.706 2915.36 714.462 2917.84 711.231C2919.06 709.613 2920.28 707.994 2921.5 706.376C2922.08 705.632 2922.67 704.889 2923.27 704.124C2924.7 702.204 2925.97 700.412 2927 698.251C2926.37 693.973 2923.41 690.961 2920.75 687.626C2919.84 686.471 2918.94 685.315 2918.03 684.157C2917.54 683.532 2917.05 682.907 2916.55 682.262C2913.72 678.595 2910.99 674.859 2908.25 671.126C2907.66 670.32 2907.07 669.514 2906.46 668.684C2905.24 667.03 2904.03 665.376 2902.81 663.722C2899.88 659.728 2896.94 655.739 2894 651.751C2890.47 646.967 2886.95 642.183 2883.43 637.395C2877.98 629.991 2872.53 622.596 2867 615.251C2860.87 607.101 2854.82 598.89 2848.78 590.674C2845.27 585.905 2841.76 581.14 2838.25 576.374C2835.34 572.43 2832.44 568.484 2829.54 564.536C2823.56 556.411 2817.56 548.311 2811.5 540.251C2804.86 531.411 2798.28 522.521 2791.73 513.61C2788.83 509.654 2785.91 505.702 2783 501.751C2779.47 496.967 2775.95 492.183 2772.43 487.395C2765.49 477.953 2758.5 468.546 2751.45 459.18C2750.01 457.268 2748.58 455.354 2747.15 453.438C2740.72 444.842 2734.23 436.293 2727.72 427.759C2723.52 422.248 2719.33 416.725 2715.18 411.173C2713.55 408.993 2711.92 406.816 2710.29 404.641C2703.03 394.999 2695.84 385.312 2688.71 375.578C2687.12 373.414 2685.52 371.256 2683.93 369.098C2676.88 359.522 2670.22 349.706 2663.62 339.813C2663.2 339.173 2662.77 338.532 2662.33 337.873C2659.54 333.676 2656.76 329.468 2654 325.251C2653.29 324.166 2652.58 323.082 2651.84 321.965C2651.2 320.975 2650.56 319.985 2649.9 318.966C2649.05 317.666 2649.05 317.666 2648.19 316.34C2647 314.251 2647 314.251 2647 312.251Z" fill="#F9A733"/>
<path d="M1977 311.251C1973.47 343.133 1958.51 375.959 1948.33 406.165C1939.79 431.542 1931.69 457.043 1923.74 482.612C1923.52 483.304 1923.31 483.996 1923.09 484.709C1922.65 486.122 1922.21 487.535 1921.77 488.948C1916.55 505.745 1911.25 522.518 1905.95 539.29C1904.68 543.304 1903.41 547.318 1902.14 551.332C1901.63 552.944 1901.12 554.555 1900.61 556.167C1900.23 557.364 1900.23 557.364 1899.85 558.586C1899.08 561.005 1898.32 563.425 1897.55 565.845C1892.15 582.936 1886.76 600.03 1881.38 617.126C1880.9 618.647 1880.42 620.167 1879.94 621.688C1874.79 638.028 1869.65 654.371 1864.51 670.716C1864.29 671.432 1864.06 672.149 1863.83 672.887C1862.01 678.667 1860.2 684.448 1858.38 690.229C1851.7 711.507 1845 732.779 1838.28 754.046C1836.51 759.639 1834.74 765.232 1832.98 770.826C1832.73 771.614 1832.48 772.402 1832.22 773.214C1831.22 776.391 1830.22 779.567 1829.21 782.743C1826.5 791.328 1823.79 799.912 1821.07 808.495C1809.42 845.323 1798 882.201 1787.07 919.252C1766.83 987.809 1766.83 987.809 1756.7 1019.1C1755.99 1021.3 1755.28 1023.49 1754.57 1025.68C1742.86 1061.98 1742.86 1061.98 1736 1076.25C1735.62 1077.11 1735.24 1077.96 1734.86 1078.85C1733 1081.25 1733 1081.25 1730.03 1081.85C1728.19 1081.82 1728.19 1081.82 1726.31 1081.8C1725.63 1081.8 1724.95 1081.8 1724.24 1081.8C1721.95 1081.79 1719.65 1081.75 1717.36 1081.7C1715.71 1081.69 1714.06 1081.68 1712.42 1081.67C1708.87 1081.65 1705.32 1081.62 1701.78 1081.57C1693.27 1081.46 1684.76 1081.42 1676.26 1081.38C1673.28 1081.36 1670.3 1081.34 1667.33 1081.32C1646.09 1081.19 1624.86 1081.43 1603.63 1081.71C1599.79 1081.76 1595.96 1081.81 1592.12 1081.86C1582.41 1081.98 1572.71 1082.11 1563 1082.25C1563.14 1080.21 1563.28 1078.16 1563.43 1076.12C1563.51 1074.98 1563.59 1073.85 1563.67 1072.67C1564.17 1067.42 1565.28 1062.38 1566.5 1057.25C1566.77 1056.13 1567.03 1055 1567.31 1053.84C1573.27 1029.42 1581.83 1005.76 1590.18 982.082C1599.95 954.265 1608.32 926.015 1616.75 897.77C1619.37 888.984 1622.01 880.201 1624.64 871.419C1624.91 870.527 1625.18 869.634 1625.45 868.715C1642 813.546 1659.06 758.537 1676.27 703.572C1677.23 700.53 1678.18 697.488 1679.13 694.446C1696.01 640.497 1713.18 586.644 1730.49 532.832C1733.02 524.973 1735.55 517.112 1738.07 509.252C1739.29 505.47 1740.5 501.688 1741.72 497.906C1748.58 476.602 1755.14 455.217 1761.58 433.782C1768.13 411.939 1774.78 390.129 1781.62 368.376C1781.98 367.227 1782.34 366.079 1782.71 364.895C1786.55 352.665 1790.53 340.504 1794.84 328.431C1795.21 327.381 1795.58 326.331 1795.96 325.249C1796.32 324.272 1796.67 323.296 1797.03 322.29C1797.34 321.435 1797.65 320.58 1797.97 319.699C1799.15 316.901 1800.13 314.665 1802 312.251C1804.95 311.62 1804.95 311.62 1808.65 311.612C1809.33 311.603 1810 311.595 1810.7 311.586C1812.98 311.564 1815.26 311.578 1817.54 311.592C1819.18 311.583 1820.81 311.573 1822.44 311.56C1826.88 311.532 1831.32 311.534 1835.76 311.542C1840.41 311.545 1845.06 311.52 1849.71 311.498C1858.52 311.461 1867.33 311.449 1876.14 311.446C1886.14 311.441 1896.14 311.408 1906.14 311.373C1929.76 311.29 1953.38 311.249 1977 311.251Z" fill="#FAA733"/>
<path d="M1144 311.251C1144.73 311.281 1145.45 311.311 1146.2 311.341C1166.32 312.143 1186.39 312.39 1206.52 312.352C1210.54 312.346 1214.55 312.346 1218.56 312.344C1226.1 312.341 1233.64 312.333 1241.19 312.323C1249.8 312.312 1258.41 312.306 1267.02 312.301C1284.68 312.291 1302.34 312.273 1320 312.251C1337.1 364.517 1337.1 364.517 1343.88 385.813C1345.21 389.991 1346.54 394.168 1347.88 398.345C1348.21 399.396 1348.55 400.447 1348.89 401.53C1351.37 409.306 1353.87 417.076 1356.38 424.845C1364.7 450.678 1372.96 476.53 1381.11 502.417C1385.02 514.814 1388.93 527.208 1392.88 539.595C1393.08 540.238 1393.28 540.88 1393.49 541.543C1394.33 544.156 1395.16 546.77 1395.99 549.384C1406.33 581.892 1416.54 614.441 1426.68 647.013C1427.8 650.596 1428.91 654.179 1430.03 657.762C1437.03 680.253 1444.03 702.75 1451 725.251C1451.25 726.063 1451.5 726.875 1451.76 727.711C1462.09 761.02 1472.39 794.333 1482.53 827.7C1482.8 828.584 1483.06 829.467 1483.34 830.377C1485.92 838.869 1488.49 847.363 1491.06 855.858C1499.85 884.93 1508.77 913.958 1518.44 942.751C1519.08 944.667 1519.72 946.583 1520.36 948.499C1523.25 957.143 1526.17 965.777 1529.17 974.384C1555 1048.46 1555 1048.46 1559 1081.25C1542.83 1081.38 1526.65 1081.51 1510.48 1081.64C1502.97 1081.7 1495.45 1081.76 1487.94 1081.82C1453.29 1082.11 1418.65 1082.34 1384 1082.25C1381.77 1076.5 1379.86 1070.72 1378.12 1064.81C1377.85 1063.89 1377.57 1062.97 1377.29 1062.03C1376.7 1060.04 1376.11 1058.05 1375.52 1056.05C1374.56 1052.84 1373.61 1049.63 1372.65 1046.41C1371.28 1041.79 1369.9 1037.17 1368.53 1032.55C1357.7 996.146 1346.8 959.774 1335.56 923.501C1335.31 922.672 1335.05 921.842 1334.78 920.988C1332.54 913.743 1330.29 906.499 1328.04 899.257C1325.18 890.045 1322.32 880.83 1319.49 871.61C1308.58 836.17 1297.44 800.805 1286.27 765.446C1283.74 757.439 1281.22 749.431 1278.69 741.422C1266.99 704.315 1255.23 667.224 1243.43 630.15C1227.95 581.552 1212.56 532.926 1197.22 484.283C1195.54 478.96 1193.86 473.637 1192.18 468.315C1180.25 430.533 1168.48 392.706 1156.85 354.83C1156.61 354.027 1156.36 353.225 1156.11 352.399C1154.96 348.656 1153.81 344.913 1152.66 341.169C1152.25 339.818 1151.84 338.467 1151.42 337.117C1151.22 336.472 1151.03 335.828 1150.82 335.163C1149.76 331.691 1148.68 328.224 1147.58 324.761C1147.35 324.026 1147.12 323.29 1146.88 322.532C1146.43 321.118 1145.98 319.705 1145.52 318.293C1144 313.473 1144 313.473 1144 311.251Z" fill="#FCFCFC"/>
<path d="M3181 786.251C3185.03 787.8 3187.33 790.627 3190 793.876C3190.72 794.738 3190.72 794.738 3191.45 795.618C3196.64 801.917 3201.5 808.459 3206.35 815.022C3208.1 817.384 3209.87 819.735 3211.64 822.083C3219.35 832.314 3226.94 842.626 3234.41 853.038C3236.01 855.267 3237.63 857.488 3239.24 859.708C3245.36 868.118 3251.34 876.607 3257.19 885.209C3261.27 891.205 3265.43 897.139 3269.63 903.052C3272.47 907.063 3275.27 911.097 3278.04 915.162C3288.33 930.285 3299.38 944.862 3310.54 959.352C3311.88 961.089 3313.21 962.828 3314.54 964.567C3318.08 969.176 3321.63 973.776 3325.2 978.353C3331.98 987.025 3338.67 995.753 3345.25 1004.58C3348.49 1008.91 3351.74 1013.23 3355.05 1017.52C3363.24 1028.14 3371.09 1038.91 3378.54 1050.07C3379.94 1052.17 3381.36 1054.26 3382.78 1056.35C3397 1077.34 3397 1077.34 3397 1081.25C3373.24 1081.85 3349.47 1082.33 3325.7 1082.68C3314.66 1082.84 3303.63 1083.04 3292.59 1083.33C3282.97 1083.59 3273.35 1083.77 3263.73 1083.86C3258.63 1083.92 3253.54 1084.01 3248.45 1084.18C3217.46 1085.21 3217.46 1085.21 3210.05 1080.29C3205.55 1075.68 3202.98 1070.58 3200.86 1064.54C3199.74 1061.57 3198.09 1059.23 3196.12 1056.74C3195.6 1056.03 3195.08 1055.33 3194.54 1054.6C3194.03 1053.93 3193.52 1053.26 3193 1052.56C3192.42 1051.79 3191.85 1051.02 3191.25 1050.22C3189.51 1047.89 3187.76 1045.57 3186 1043.25C3185.46 1042.54 3184.93 1041.84 3184.38 1041.11C3181.18 1036.9 3177.96 1032.71 3174.74 1028.52C3170.86 1023.47 3167.01 1018.4 3163.16 1013.33C3159.75 1008.86 3156.34 1004.38 3152.92 999.915C3145.9 990.742 3138.97 981.522 3132.15 972.204C3127.63 966.052 3122.96 960.028 3118.25 954.022C3113.45 947.878 3108.81 941.621 3104.21 935.328C3098.26 927.209 3092.14 919.222 3086 911.251C3091.75 901.636 3098.43 892.753 3105.12 883.781C3107.58 880.466 3110.03 877.135 3112.47 873.804C3117.65 866.74 3122.89 859.728 3128.26 852.802C3131.09 849.145 3133.89 845.463 3136.68 841.781C3167.81 800.837 3167.81 800.837 3181 786.251Z" fill="#FCFCFC"/>
<path d="M3217.97 313.122C3219.05 313.126 3219.05 313.126 3220.14 313.131C3220.9 313.13 3221.66 313.129 3222.44 313.128C3224.99 313.127 3227.54 313.132 3230.1 313.138C3231.92 313.138 3233.74 313.138 3235.56 313.137C3240.53 313.137 3245.49 313.143 3250.46 313.15C3255.64 313.156 3260.82 313.157 3266.01 313.158C3275.83 313.161 3285.65 313.169 3295.47 313.179C3306.65 313.19 3317.82 313.196 3329 313.201C3352 313.211 3375 313.229 3398 313.251C3396.34 317.626 3394.12 321.333 3391.5 325.189C3391.06 325.848 3390.61 326.507 3390.15 327.185C3386 333.319 3381.71 339.356 3377.37 345.359C3375.92 347.365 3374.48 349.378 3373.04 351.392C3366.53 360.502 3359.83 369.461 3353.02 378.352C3347.94 384.991 3342.95 391.694 3338.01 398.436C3334.35 403.422 3330.66 408.377 3326.94 413.314C3322.21 419.592 3317.59 425.944 3313 432.325C3304.32 444.385 3295.47 456.323 3286.53 468.2C3282.7 473.3 3278.91 478.426 3275.12 483.564C3274.54 484.36 3273.95 485.157 3273.35 485.978C3270.41 489.963 3267.49 493.951 3264.56 497.943C3257.79 507.171 3250.93 516.315 3243.97 525.404C3238.98 531.936 3234.07 538.523 3229.22 545.157C3226.61 548.715 3224 552.261 3221.33 555.77C3214.44 564.841 3207.89 574.087 3201.54 583.545C3200.04 585.781 3198.54 588.012 3197.03 590.243C3196.05 591.694 3195.07 593.144 3194.1 594.595C3193.66 595.247 3193.22 595.899 3192.77 596.571C3189.75 601.073 3186.85 605.64 3184 610.251C3180.34 608.555 3178.52 606.754 3176 603.564C3174.82 602.079 3174.82 602.079 3173.61 600.564C3173.19 600.027 3172.77 599.491 3172.33 598.939C3170.96 597.199 3169.57 595.474 3168.17 593.751C3160.88 584.753 3153.88 575.561 3147 566.251C3146.45 565.508 3145.9 564.766 3145.34 564.001C3141.81 559.232 3138.3 554.456 3134.79 549.679C3133.01 547.269 3131.24 544.861 3129.46 542.454C3121.57 531.772 3113.76 521.03 3106 510.251C3103.69 507.042 3101.38 503.834 3099.06 500.626C3098.28 499.543 3098.28 499.543 3097.49 498.438C3096.99 497.745 3096.49 497.052 3095.97 496.337C3095.49 495.661 3095.01 494.985 3094.51 494.289C3093.46 492.868 3092.36 491.483 3091.22 490.127C3089.64 488.219 3088.22 486.405 3087 484.251C3087.3 481.728 3087.3 481.728 3089 479.251C3089.36 478.7 3089.72 478.15 3090.09 477.582C3091.43 475.56 3092.83 473.594 3094.25 471.626C3094.78 470.888 3095.3 470.15 3095.85 469.39C3097.56 467.005 3099.28 464.627 3101 462.251C3101.86 461.06 3101.86 461.06 3102.74 459.845C3109.67 450.284 3116.77 440.904 3124.2 431.728C3126.86 428.444 3129.44 425.109 3132 421.751C3135.54 417.114 3139.15 412.544 3142.81 408.001C3147.69 401.938 3152.44 395.782 3157.15 389.584C3160.67 384.954 3164.27 380.398 3167.94 375.876C3182.67 357.607 3196.17 338.252 3209.07 318.654C3212.7 313.138 3212.7 313.138 3217.97 313.122Z" fill="#FCFCFC"/>
<path d="M1802 312.251C1857.11 312.251 1912.22 312.251 1969 312.251C1969 312.581 1969 312.911 1969 313.251C1968.16 313.253 1967.32 313.256 1966.45 313.258C1945.97 313.317 1925.49 313.393 1905.01 313.487C1895.1 313.532 1885.2 313.571 1875.29 313.597C1866.66 313.62 1858.03 313.654 1849.4 313.7C1844.83 313.724 1840.26 313.742 1835.69 313.749C1831.39 313.755 1827.09 313.775 1822.79 313.805C1821.21 313.814 1819.63 313.818 1818.05 313.816C1815.89 313.814 1813.74 313.831 1811.59 313.852C1810.38 313.857 1809.17 313.861 1807.93 313.866C1804.71 314.289 1804 314.822 1802 317.251C1801.34 317.251 1800.68 317.251 1800 317.251C1800.66 315.601 1801.32 313.951 1802 312.251Z" fill="#A87022"/>
<path d="M2052 394.251C2052.66 394.581 2053.32 394.911 2054 395.251C2045.42 403.831 2036.84 412.411 2028 421.251C2027.34 420.921 2026.68 420.591 2026 420.251C2034.02 411.526 2041.99 402.962 2051 395.251C2051.33 394.921 2051.66 394.591 2052 394.251Z" fill="#A7A7A7"/>
<path d="M1802 312.251C1804.64 312.251 1807.28 312.251 1810 312.251C1810 312.581 1810 312.911 1810 313.251C1808.64 313.684 1808.64 313.684 1807.25 314.126C1804.68 315.016 1802.39 315.966 1800 317.251C1800.66 315.601 1801.32 313.951 1802 312.251Z" fill="#C48629"/>
<path d="M1144 311.251C1147.96 311.581 1151.92 311.911 1156 312.251C1156 312.581 1156 312.911 1156 313.251C1152.7 313.251 1149.4 313.251 1146 313.251C1145.67 314.241 1145.34 315.231 1145 316.251C1144.67 314.601 1144.34 312.951 1144 311.251Z" fill="#A2A2A2"/>
</svg>
